G75*
%MOIN*%
%OFA0B0*%
%FSLAX25Y25*%
%IPPOS*%
%LPD*%
%AMOC8*
5,1,8,0,0,1.08239X$1,22.5*
%
%ADD10C,0.06000*%
%ADD11C,0.11811*%
%ADD12C,0.04756*%
%ADD13C,0.05150*%
%ADD14C,0.06750*%
%ADD15C,0.16598*%
%ADD16C,0.15024*%
%ADD17C,0.05937*%
%ADD18C,0.06600*%
%ADD19C,0.04000*%
%ADD20C,0.01600*%
%ADD21C,0.01000*%
%ADD22C,0.01500*%
D10*
X0107595Y0066800D03*
X0117595Y0066800D03*
X0127595Y0066800D03*
X0137595Y0066800D03*
X0147595Y0066800D03*
X0157595Y0066800D03*
X0167595Y0066800D03*
X0177595Y0066800D03*
X0187595Y0066800D03*
X0197595Y0066800D03*
X0207595Y0066800D03*
X0217595Y0066800D03*
X0227595Y0066800D03*
X0237595Y0066800D03*
X0247595Y0066800D03*
X0247595Y0076800D03*
X0237595Y0076800D03*
X0227595Y0076800D03*
X0217595Y0076800D03*
X0207595Y0076800D03*
X0197595Y0076800D03*
X0187595Y0076800D03*
X0177595Y0076800D03*
X0167595Y0076800D03*
X0157595Y0076800D03*
X0147595Y0076800D03*
X0137595Y0076800D03*
X0127595Y0076800D03*
X0117595Y0076800D03*
X0107595Y0076800D03*
X0212595Y0032300D03*
X0222595Y0031300D03*
X0232595Y0032300D03*
X0242595Y0031300D03*
X0252595Y0032300D03*
X0262595Y0031300D03*
X0272595Y0032300D03*
X0292595Y0032300D03*
X0302595Y0031300D03*
X0312595Y0032300D03*
X0322595Y0031300D03*
X0332595Y0032300D03*
X0342595Y0031300D03*
X0352595Y0032300D03*
X0362595Y0031300D03*
X0382595Y0032300D03*
X0392595Y0031300D03*
X0402595Y0032300D03*
X0412595Y0031300D03*
X0422595Y0032300D03*
X0432595Y0031300D03*
X0442595Y0032300D03*
X0452595Y0031300D03*
X0295095Y0071800D03*
X0295095Y0081800D03*
X0295095Y0091800D03*
X0295095Y0101800D03*
X0295095Y0111800D03*
X0295095Y0121800D03*
X0295095Y0131800D03*
X0295095Y0141800D03*
X0295095Y0151800D03*
X0295095Y0161800D03*
X0295095Y0171800D03*
X0295095Y0181800D03*
X0247595Y0176800D03*
X0237595Y0176800D03*
X0227595Y0176800D03*
X0217595Y0176800D03*
X0207595Y0176800D03*
X0197595Y0176800D03*
X0187595Y0176800D03*
X0177595Y0176800D03*
X0167595Y0176800D03*
X0157595Y0176800D03*
X0147595Y0176800D03*
X0137595Y0176800D03*
X0127595Y0176800D03*
X0117595Y0176800D03*
X0107595Y0176800D03*
X0107595Y0186800D03*
X0117595Y0186800D03*
X0127595Y0186800D03*
X0137595Y0186800D03*
X0147595Y0186800D03*
X0157595Y0186800D03*
X0167595Y0186800D03*
X0177595Y0186800D03*
X0187595Y0186800D03*
X0197595Y0186800D03*
X0207595Y0186800D03*
X0217595Y0186800D03*
X0227595Y0186800D03*
X0237595Y0186800D03*
X0247595Y0186800D03*
X0237595Y0221300D03*
X0227595Y0222300D03*
X0217595Y0221300D03*
X0207595Y0222300D03*
X0197595Y0221300D03*
X0187595Y0222300D03*
X0178295Y0221800D03*
X0166895Y0221800D03*
X0247595Y0222300D03*
X0257595Y0221300D03*
X0272595Y0222300D03*
X0282595Y0221300D03*
X0292595Y0222300D03*
X0302595Y0221300D03*
X0312595Y0222300D03*
X0322595Y0221300D03*
X0332595Y0222300D03*
X0342595Y0221300D03*
X0362595Y0222300D03*
X0372595Y0221300D03*
X0382595Y0222300D03*
X0392595Y0221300D03*
X0402595Y0222300D03*
X0412595Y0221300D03*
X0422595Y0222300D03*
X0432595Y0221300D03*
X0275095Y0091800D03*
X0265095Y0091800D03*
X0265095Y0081800D03*
X0275095Y0081800D03*
X0275095Y0071800D03*
X0265095Y0071800D03*
D11*
X0405095Y0074300D03*
X0457595Y0148300D03*
X0405095Y0179300D03*
X0457595Y0200300D03*
D12*
X0194406Y0046800D03*
X0186532Y0046800D03*
X0178658Y0046800D03*
X0170784Y0046800D03*
D13*
X0457595Y0174300D03*
D14*
X0155390Y0045658D03*
X0155390Y0027942D03*
X0129800Y0027942D03*
X0129800Y0045658D03*
D15*
X0426552Y0119300D03*
D16*
X0451158Y0119300D03*
X0437772Y0138198D03*
D17*
X0445095Y0064300D03*
X0455095Y0064300D03*
X0465095Y0064300D03*
D18*
X0412595Y0056800D03*
X0372595Y0056800D03*
X0267595Y0146800D03*
X0267595Y0186800D03*
D19*
X0269695Y0201100D03*
X0248795Y0205500D03*
X0239445Y0208800D03*
X0218545Y0208800D03*
X0193245Y0201100D03*
X0183345Y0196700D03*
X0162995Y0208250D03*
X0192695Y0165350D03*
X0206445Y0157100D03*
X0221845Y0159850D03*
X0222395Y0167000D03*
X0266395Y0170300D03*
X0274645Y0167550D03*
X0297195Y0201100D03*
X0238895Y0126300D03*
X0262545Y0104300D03*
X0252645Y0103200D03*
X0243295Y0099900D03*
X0235595Y0099350D03*
X0243295Y0088350D03*
X0252645Y0090000D03*
X0264745Y0061400D03*
X0268595Y0043250D03*
X0199845Y0091650D03*
X0282345Y0122450D03*
X0305445Y0124650D03*
X0305445Y0118600D03*
D20*
X0096995Y0026200D02*
X0096995Y0227400D01*
X0162596Y0227400D01*
X0160961Y0225765D01*
X0159895Y0223192D01*
X0159895Y0220408D01*
X0160961Y0217835D01*
X0162930Y0215866D01*
X0165503Y0214800D01*
X0168288Y0214800D01*
X0170860Y0215866D01*
X0172595Y0217601D01*
X0174330Y0215866D01*
X0176903Y0214800D01*
X0179688Y0214800D01*
X0182260Y0215866D01*
X0183195Y0216801D01*
X0183630Y0216366D01*
X0186203Y0215300D01*
X0188988Y0215300D01*
X0191560Y0216366D01*
X0193529Y0218335D01*
X0193634Y0218586D01*
X0193934Y0218173D01*
X0194468Y0217639D01*
X0194556Y0217575D01*
X0186431Y0209450D01*
X0178050Y0209450D01*
X0176396Y0208765D01*
X0175130Y0207499D01*
X0160715Y0193084D01*
X0158988Y0193800D01*
X0156203Y0193800D01*
X0153630Y0192734D01*
X0152595Y0191699D01*
X0151560Y0192734D01*
X0148988Y0193800D01*
X0146203Y0193800D01*
X0143630Y0192734D01*
X0142595Y0191699D01*
X0141560Y0192734D01*
X0138988Y0193800D01*
X0136203Y0193800D01*
X0133630Y0192734D01*
X0132595Y0191699D01*
X0131560Y0192734D01*
X0128988Y0193800D01*
X0126203Y0193800D01*
X0123630Y0192734D01*
X0122595Y0191699D01*
X0121560Y0192734D01*
X0118988Y0193800D01*
X0116203Y0193800D01*
X0113630Y0192734D01*
X0112595Y0191699D01*
X0111560Y0192734D01*
X0108988Y0193800D01*
X0106203Y0193800D01*
X0103630Y0192734D01*
X0101661Y0190765D01*
X0100595Y0188192D01*
X0100595Y0185408D01*
X0101661Y0182835D01*
X0103630Y0180866D01*
X0104518Y0180498D01*
X0104468Y0180461D01*
X0103934Y0179927D01*
X0103490Y0179316D01*
X0103147Y0178643D01*
X0102913Y0177924D01*
X0102795Y0177178D01*
X0102795Y0177000D01*
X0107395Y0177000D01*
X0107395Y0176600D01*
X0102795Y0176600D01*
X0102795Y0176422D01*
X0102913Y0175676D01*
X0103147Y0174957D01*
X0103490Y0174284D01*
X0103934Y0173673D01*
X0104468Y0173139D01*
X0105079Y0172695D01*
X0105753Y0172352D01*
X0106471Y0172118D01*
X0107217Y0172000D01*
X0107395Y0172000D01*
X0107395Y0176600D01*
X0107795Y0176600D01*
X0107795Y0172000D01*
X0107973Y0172000D01*
X0108719Y0172118D01*
X0109438Y0172352D01*
X0110111Y0172695D01*
X0110722Y0173139D01*
X0111256Y0173673D01*
X0111700Y0174284D01*
X0112043Y0174957D01*
X0112277Y0175676D01*
X0112395Y0176422D01*
X0112395Y0176600D01*
X0107795Y0176600D01*
X0107795Y0177000D01*
X0112395Y0177000D01*
X0112395Y0177178D01*
X0112277Y0177924D01*
X0112043Y0178643D01*
X0111700Y0179316D01*
X0111256Y0179927D01*
X0110722Y0180461D01*
X0110672Y0180498D01*
X0111560Y0180866D01*
X0112595Y0181901D01*
X0113630Y0180866D01*
X0114518Y0180498D01*
X0114468Y0180461D01*
X0113934Y0179927D01*
X0113490Y0179316D01*
X0113147Y0178643D01*
X0112913Y0177924D01*
X0112795Y0177178D01*
X0112795Y0177000D01*
X0117395Y0177000D01*
X0117395Y0176600D01*
X0112795Y0176600D01*
X0112795Y0176422D01*
X0112913Y0175676D01*
X0113147Y0174957D01*
X0113490Y0174284D01*
X0113934Y0173673D01*
X0114468Y0173139D01*
X0115079Y0172695D01*
X0115753Y0172352D01*
X0116471Y0172118D01*
X0117217Y0172000D01*
X0117395Y0172000D01*
X0117395Y0176600D01*
X0117795Y0176600D01*
X0117795Y0172000D01*
X0117973Y0172000D01*
X0118719Y0172118D01*
X0119438Y0172352D01*
X0120111Y0172695D01*
X0120722Y0173139D01*
X0121256Y0173673D01*
X0121700Y0174284D01*
X0122043Y0174957D01*
X0122277Y0175676D01*
X0122395Y0176422D01*
X0122395Y0176600D01*
X0117795Y0176600D01*
X0117795Y0177000D01*
X0122395Y0177000D01*
X0122395Y0177178D01*
X0122277Y0177924D01*
X0122043Y0178643D01*
X0121700Y0179316D01*
X0121256Y0179927D01*
X0120722Y0180461D01*
X0120672Y0180498D01*
X0121560Y0180866D01*
X0122595Y0181901D01*
X0123630Y0180866D01*
X0124518Y0180498D01*
X0124468Y0180461D01*
X0123934Y0179927D01*
X0123490Y0179316D01*
X0123147Y0178643D01*
X0122913Y0177924D01*
X0122795Y0177178D01*
X0122795Y0177000D01*
X0127395Y0177000D01*
X0127395Y0176600D01*
X0122795Y0176600D01*
X0122795Y0176422D01*
X0122913Y0175676D01*
X0123147Y0174957D01*
X0123490Y0174284D01*
X0123934Y0173673D01*
X0124468Y0173139D01*
X0125079Y0172695D01*
X0125753Y0172352D01*
X0126471Y0172118D01*
X0127217Y0172000D01*
X0127395Y0172000D01*
X0127395Y0176600D01*
X0127795Y0176600D01*
X0127795Y0172000D01*
X0127973Y0172000D01*
X0128719Y0172118D01*
X0129438Y0172352D01*
X0130111Y0172695D01*
X0130722Y0173139D01*
X0131256Y0173673D01*
X0131293Y0173723D01*
X0131661Y0172835D01*
X0133630Y0170866D01*
X0136203Y0169800D01*
X0138988Y0169800D01*
X0141560Y0170866D01*
X0142595Y0171901D01*
X0143630Y0170866D01*
X0146203Y0169800D01*
X0148988Y0169800D01*
X0151560Y0170866D01*
X0152595Y0171901D01*
X0153630Y0170866D01*
X0156203Y0169800D01*
X0158988Y0169800D01*
X0161560Y0170866D01*
X0162595Y0171901D01*
X0163630Y0170866D01*
X0166203Y0169800D01*
X0167845Y0169800D01*
X0167845Y0083800D01*
X0166203Y0083800D01*
X0163630Y0082734D01*
X0162595Y0081699D01*
X0161560Y0082734D01*
X0158988Y0083800D01*
X0156203Y0083800D01*
X0153630Y0082734D01*
X0152595Y0081699D01*
X0151560Y0082734D01*
X0148988Y0083800D01*
X0146203Y0083800D01*
X0143630Y0082734D01*
X0142595Y0081699D01*
X0141560Y0082734D01*
X0138988Y0083800D01*
X0136203Y0083800D01*
X0133630Y0082734D01*
X0132595Y0081699D01*
X0131560Y0082734D01*
X0128988Y0083800D01*
X0126203Y0083800D01*
X0123630Y0082734D01*
X0122595Y0081699D01*
X0121560Y0082734D01*
X0118988Y0083800D01*
X0116203Y0083800D01*
X0113630Y0082734D01*
X0112595Y0081699D01*
X0111560Y0082734D01*
X0108988Y0083800D01*
X0106203Y0083800D01*
X0103630Y0082734D01*
X0101661Y0080765D01*
X0100595Y0078192D01*
X0100595Y0075408D01*
X0101661Y0072835D01*
X0103630Y0070866D01*
X0104518Y0070498D01*
X0104468Y0070461D01*
X0103934Y0069927D01*
X0103490Y0069316D01*
X0103147Y0068643D01*
X0102913Y0067924D01*
X0102795Y0067178D01*
X0102795Y0067000D01*
X0107395Y0067000D01*
X0107395Y0066600D01*
X0102795Y0066600D01*
X0102795Y0066422D01*
X0102913Y0065676D01*
X0103147Y0064957D01*
X0103490Y0064284D01*
X0103934Y0063673D01*
X0104468Y0063139D01*
X0105079Y0062695D01*
X0105753Y0062352D01*
X0106471Y0062118D01*
X0107217Y0062000D01*
X0107395Y0062000D01*
X0107395Y0066600D01*
X0107795Y0066600D01*
X0107795Y0062000D01*
X0107973Y0062000D01*
X0108719Y0062118D01*
X0109438Y0062352D01*
X0110111Y0062695D01*
X0110722Y0063139D01*
X0111256Y0063673D01*
X0111700Y0064284D01*
X0112043Y0064957D01*
X0112277Y0065676D01*
X0112395Y0066422D01*
X0112395Y0066600D01*
X0107795Y0066600D01*
X0107795Y0067000D01*
X0112395Y0067000D01*
X0112395Y0067178D01*
X0112277Y0067924D01*
X0112043Y0068643D01*
X0111700Y0069316D01*
X0111256Y0069927D01*
X0110722Y0070461D01*
X0110672Y0070498D01*
X0111560Y0070866D01*
X0112595Y0071901D01*
X0113630Y0070866D01*
X0114518Y0070498D01*
X0114468Y0070461D01*
X0113934Y0069927D01*
X0113490Y0069316D01*
X0113147Y0068643D01*
X0112913Y0067924D01*
X0112795Y0067178D01*
X0112795Y0067000D01*
X0117395Y0067000D01*
X0117395Y0066600D01*
X0112795Y0066600D01*
X0112795Y0066422D01*
X0112913Y0065676D01*
X0113147Y0064957D01*
X0113490Y0064284D01*
X0113934Y0063673D01*
X0114468Y0063139D01*
X0115079Y0062695D01*
X0115753Y0062352D01*
X0116471Y0062118D01*
X0117217Y0062000D01*
X0117395Y0062000D01*
X0117395Y0066600D01*
X0117795Y0066600D01*
X0117795Y0062000D01*
X0117973Y0062000D01*
X0118719Y0062118D01*
X0119438Y0062352D01*
X0120111Y0062695D01*
X0120722Y0063139D01*
X0121256Y0063673D01*
X0121700Y0064284D01*
X0122043Y0064957D01*
X0122277Y0065676D01*
X0122395Y0066422D01*
X0122395Y0066600D01*
X0117795Y0066600D01*
X0117795Y0067000D01*
X0122395Y0067000D01*
X0122395Y0067178D01*
X0122277Y0067924D01*
X0122043Y0068643D01*
X0121700Y0069316D01*
X0121256Y0069927D01*
X0120722Y0070461D01*
X0120672Y0070498D01*
X0121560Y0070866D01*
X0122595Y0071901D01*
X0123630Y0070866D01*
X0124518Y0070498D01*
X0124468Y0070461D01*
X0123934Y0069927D01*
X0123490Y0069316D01*
X0123147Y0068643D01*
X0122913Y0067924D01*
X0122795Y0067178D01*
X0122795Y0067000D01*
X0127395Y0067000D01*
X0127395Y0066600D01*
X0122795Y0066600D01*
X0122795Y0066422D01*
X0122913Y0065676D01*
X0123147Y0064957D01*
X0123490Y0064284D01*
X0123934Y0063673D01*
X0124468Y0063139D01*
X0125079Y0062695D01*
X0125753Y0062352D01*
X0126471Y0062118D01*
X0127217Y0062000D01*
X0127395Y0062000D01*
X0127395Y0066600D01*
X0127795Y0066600D01*
X0127795Y0062000D01*
X0127973Y0062000D01*
X0128719Y0062118D01*
X0129438Y0062352D01*
X0130111Y0062695D01*
X0130722Y0063139D01*
X0131256Y0063673D01*
X0131293Y0063723D01*
X0131661Y0062835D01*
X0133630Y0060866D01*
X0136203Y0059800D01*
X0138988Y0059800D01*
X0140539Y0060443D01*
X0150142Y0050839D01*
X0149138Y0049836D01*
X0148015Y0047125D01*
X0148015Y0044191D01*
X0149138Y0041481D01*
X0151213Y0039406D01*
X0153923Y0038283D01*
X0156857Y0038283D01*
X0159568Y0039406D01*
X0161122Y0040960D01*
X0175881Y0026200D01*
X0160266Y0026200D01*
X0160438Y0026730D01*
X0160565Y0027534D01*
X0160565Y0027617D01*
X0155715Y0027617D01*
X0155715Y0028267D01*
X0155065Y0028267D01*
X0155065Y0027617D01*
X0150215Y0027617D01*
X0150215Y0027534D01*
X0150343Y0026730D01*
X0150515Y0026200D01*
X0137061Y0026200D01*
X0137175Y0026475D01*
X0137175Y0029409D01*
X0136052Y0032119D01*
X0133977Y0034194D01*
X0131267Y0035317D01*
X0128333Y0035317D01*
X0125622Y0034194D01*
X0123548Y0032119D01*
X0122425Y0029409D01*
X0122425Y0026475D01*
X0122539Y0026200D01*
X0096995Y0026200D01*
X0096995Y0026596D02*
X0105886Y0026596D01*
X0106239Y0026501D02*
X0108951Y0026501D01*
X0111570Y0027203D01*
X0113919Y0028559D01*
X0115837Y0030476D01*
X0117192Y0032825D01*
X0117894Y0035444D01*
X0117894Y0038156D01*
X0117192Y0040775D01*
X0115837Y0043124D01*
X0113919Y0045041D01*
X0111570Y0046397D01*
X0108951Y0047099D01*
X0106239Y0047099D01*
X0103620Y0046397D01*
X0101271Y0045041D01*
X0099354Y0043124D01*
X0097998Y0040775D01*
X0097296Y0038156D01*
X0097296Y0035444D01*
X0097998Y0032825D01*
X0099354Y0030476D01*
X0101271Y0028559D01*
X0103620Y0027203D01*
X0106239Y0026501D01*
X0109305Y0026596D02*
X0122425Y0026596D01*
X0122425Y0028194D02*
X0113288Y0028194D01*
X0115153Y0029793D02*
X0122584Y0029793D01*
X0123246Y0031391D02*
X0116365Y0031391D01*
X0117237Y0032990D02*
X0124418Y0032990D01*
X0126574Y0034588D02*
X0117665Y0034588D01*
X0117894Y0036187D02*
X0165895Y0036187D01*
X0167493Y0034588D02*
X0133026Y0034588D01*
X0135182Y0032990D02*
X0154180Y0032990D01*
X0154179Y0032989D02*
X0153404Y0032738D01*
X0152678Y0032368D01*
X0152019Y0031889D01*
X0151443Y0031313D01*
X0150964Y0030654D01*
X0150595Y0029928D01*
X0150343Y0029154D01*
X0150215Y0028349D01*
X0150215Y0028267D01*
X0155065Y0028267D01*
X0155065Y0033117D01*
X0154983Y0033117D01*
X0154179Y0032989D01*
X0155065Y0032990D02*
X0155715Y0032990D01*
X0155715Y0033117D02*
X0155715Y0028267D01*
X0160565Y0028267D01*
X0160565Y0028349D01*
X0160438Y0029154D01*
X0160186Y0029928D01*
X0159816Y0030654D01*
X0159338Y0031313D01*
X0158762Y0031889D01*
X0158103Y0032368D01*
X0157377Y0032738D01*
X0156602Y0032989D01*
X0155798Y0033117D01*
X0155715Y0033117D01*
X0156600Y0032990D02*
X0169092Y0032990D01*
X0170690Y0031391D02*
X0159260Y0031391D01*
X0160230Y0029793D02*
X0172289Y0029793D01*
X0173887Y0028194D02*
X0155715Y0028194D01*
X0155065Y0028194D02*
X0137175Y0028194D01*
X0137175Y0026596D02*
X0150386Y0026596D01*
X0150550Y0029793D02*
X0137016Y0029793D01*
X0136354Y0031391D02*
X0151521Y0031391D01*
X0155065Y0031391D02*
X0155715Y0031391D01*
X0155715Y0029793D02*
X0155065Y0029793D01*
X0160394Y0026596D02*
X0175486Y0026596D01*
X0164296Y0037785D02*
X0117894Y0037785D01*
X0117565Y0039384D02*
X0125676Y0039384D01*
X0125622Y0039406D02*
X0128333Y0038283D01*
X0131267Y0038283D01*
X0133977Y0039406D01*
X0136052Y0041481D01*
X0137175Y0044191D01*
X0137175Y0047125D01*
X0136052Y0049836D01*
X0133977Y0051910D01*
X0131267Y0053033D01*
X0128333Y0053033D01*
X0125622Y0051910D01*
X0123548Y0049836D01*
X0122425Y0047125D01*
X0122425Y0044191D01*
X0123548Y0041481D01*
X0125622Y0039406D01*
X0124046Y0040982D02*
X0117073Y0040982D01*
X0116150Y0042581D02*
X0123092Y0042581D01*
X0122430Y0044179D02*
X0114781Y0044179D01*
X0112644Y0045778D02*
X0122425Y0045778D01*
X0122529Y0047376D02*
X0096995Y0047376D01*
X0096995Y0045778D02*
X0102547Y0045778D01*
X0100409Y0044179D02*
X0096995Y0044179D01*
X0096995Y0042581D02*
X0099040Y0042581D01*
X0098117Y0040982D02*
X0096995Y0040982D01*
X0096995Y0039384D02*
X0097625Y0039384D01*
X0097296Y0037785D02*
X0096995Y0037785D01*
X0096995Y0036187D02*
X0097296Y0036187D01*
X0097525Y0034588D02*
X0096995Y0034588D01*
X0096995Y0032990D02*
X0097954Y0032990D01*
X0098825Y0031391D02*
X0096995Y0031391D01*
X0096995Y0029793D02*
X0100037Y0029793D01*
X0101903Y0028194D02*
X0096995Y0028194D01*
X0096995Y0048975D02*
X0123191Y0048975D01*
X0124285Y0050573D02*
X0096995Y0050573D01*
X0096995Y0052172D02*
X0126253Y0052172D01*
X0133347Y0052172D02*
X0148809Y0052172D01*
X0149876Y0050573D02*
X0135315Y0050573D01*
X0136409Y0048975D02*
X0148781Y0048975D01*
X0148119Y0047376D02*
X0137071Y0047376D01*
X0137175Y0045778D02*
X0148015Y0045778D01*
X0148020Y0044179D02*
X0137170Y0044179D01*
X0136508Y0042581D02*
X0148683Y0042581D01*
X0149637Y0040982D02*
X0135554Y0040982D01*
X0133923Y0039384D02*
X0151267Y0039384D01*
X0159514Y0039384D02*
X0162698Y0039384D01*
X0170784Y0047325D02*
X0170784Y0050978D01*
X0170455Y0050978D01*
X0169806Y0050875D01*
X0169180Y0050672D01*
X0168594Y0050373D01*
X0168097Y0050012D01*
X0158309Y0059800D01*
X0158988Y0059800D01*
X0161560Y0060866D01*
X0162595Y0061901D01*
X0163630Y0060866D01*
X0166203Y0059800D01*
X0168988Y0059800D01*
X0170715Y0060516D01*
X0173096Y0058135D01*
X0174750Y0057450D01*
X0175431Y0057450D01*
X0179703Y0053178D01*
X0177389Y0053178D01*
X0175045Y0052207D01*
X0173251Y0050413D01*
X0173174Y0050228D01*
X0172974Y0050373D01*
X0172388Y0050672D01*
X0171762Y0050875D01*
X0171113Y0050978D01*
X0170784Y0050978D01*
X0170784Y0047325D01*
X0170784Y0047325D01*
X0170784Y0047376D02*
X0170784Y0047376D01*
X0170784Y0048975D02*
X0170784Y0048975D01*
X0170784Y0050573D02*
X0170784Y0050573D01*
X0168987Y0050573D02*
X0167536Y0050573D01*
X0165937Y0052172D02*
X0175010Y0052172D01*
X0173412Y0050573D02*
X0172581Y0050573D01*
X0179111Y0053770D02*
X0164339Y0053770D01*
X0162740Y0055369D02*
X0177512Y0055369D01*
X0175914Y0056967D02*
X0161142Y0056967D01*
X0159543Y0058566D02*
X0172665Y0058566D01*
X0171067Y0060164D02*
X0169867Y0060164D01*
X0165323Y0060164D02*
X0159867Y0060164D01*
X0162457Y0061763D02*
X0162733Y0061763D01*
X0147211Y0053770D02*
X0096995Y0053770D01*
X0096995Y0055369D02*
X0145612Y0055369D01*
X0144014Y0056967D02*
X0096995Y0056967D01*
X0096995Y0058566D02*
X0142415Y0058566D01*
X0140817Y0060164D02*
X0139867Y0060164D01*
X0135323Y0060164D02*
X0096995Y0060164D01*
X0096995Y0061763D02*
X0132733Y0061763D01*
X0131443Y0063361D02*
X0130945Y0063361D01*
X0127795Y0063361D02*
X0127395Y0063361D01*
X0127395Y0064960D02*
X0127795Y0064960D01*
X0127795Y0066558D02*
X0127395Y0066558D01*
X0124246Y0063361D02*
X0120945Y0063361D01*
X0122044Y0064960D02*
X0123146Y0064960D01*
X0122795Y0066558D02*
X0122395Y0066558D01*
X0122201Y0068157D02*
X0122989Y0068157D01*
X0123809Y0069755D02*
X0121381Y0069755D01*
X0122048Y0071354D02*
X0123142Y0071354D01*
X0117795Y0066558D02*
X0117395Y0066558D01*
X0117395Y0064960D02*
X0117795Y0064960D01*
X0117795Y0063361D02*
X0117395Y0063361D01*
X0114246Y0063361D02*
X0110945Y0063361D01*
X0112044Y0064960D02*
X0113146Y0064960D01*
X0112795Y0066558D02*
X0112395Y0066558D01*
X0112201Y0068157D02*
X0112989Y0068157D01*
X0113809Y0069755D02*
X0111381Y0069755D01*
X0112048Y0071354D02*
X0113142Y0071354D01*
X0107795Y0066558D02*
X0107395Y0066558D01*
X0107395Y0064960D02*
X0107795Y0064960D01*
X0107795Y0063361D02*
X0107395Y0063361D01*
X0104246Y0063361D02*
X0096995Y0063361D01*
X0096995Y0064960D02*
X0103146Y0064960D01*
X0102795Y0066558D02*
X0096995Y0066558D01*
X0096995Y0068157D02*
X0102989Y0068157D01*
X0103809Y0069755D02*
X0096995Y0069755D01*
X0096995Y0071354D02*
X0103142Y0071354D01*
X0101612Y0072952D02*
X0096995Y0072952D01*
X0096995Y0074551D02*
X0100950Y0074551D01*
X0100595Y0076149D02*
X0096995Y0076149D01*
X0096995Y0077748D02*
X0100595Y0077748D01*
X0101073Y0079346D02*
X0096995Y0079346D01*
X0096995Y0080945D02*
X0101841Y0080945D01*
X0103439Y0082543D02*
X0096995Y0082543D01*
X0096995Y0084142D02*
X0167845Y0084142D01*
X0167845Y0085740D02*
X0096995Y0085740D01*
X0096995Y0087339D02*
X0167845Y0087339D01*
X0167845Y0088937D02*
X0096995Y0088937D01*
X0096995Y0090536D02*
X0167845Y0090536D01*
X0167845Y0092134D02*
X0096995Y0092134D01*
X0096995Y0093733D02*
X0167845Y0093733D01*
X0167845Y0095332D02*
X0096995Y0095332D01*
X0096995Y0096930D02*
X0167845Y0096930D01*
X0167845Y0098529D02*
X0096995Y0098529D01*
X0096995Y0100127D02*
X0167845Y0100127D01*
X0167845Y0101726D02*
X0096995Y0101726D01*
X0096995Y0103324D02*
X0167845Y0103324D01*
X0167845Y0104923D02*
X0096995Y0104923D01*
X0096995Y0106521D02*
X0167845Y0106521D01*
X0167845Y0108120D02*
X0096995Y0108120D01*
X0096995Y0109718D02*
X0167845Y0109718D01*
X0167845Y0111317D02*
X0096995Y0111317D01*
X0096995Y0112915D02*
X0167845Y0112915D01*
X0167845Y0114514D02*
X0096995Y0114514D01*
X0096995Y0116112D02*
X0167845Y0116112D01*
X0167845Y0117711D02*
X0096995Y0117711D01*
X0096995Y0119309D02*
X0167845Y0119309D01*
X0167845Y0120908D02*
X0096995Y0120908D01*
X0096995Y0122506D02*
X0167845Y0122506D01*
X0167845Y0124105D02*
X0096995Y0124105D01*
X0096995Y0125703D02*
X0167845Y0125703D01*
X0167845Y0127302D02*
X0096995Y0127302D01*
X0096995Y0128900D02*
X0167845Y0128900D01*
X0167845Y0130499D02*
X0096995Y0130499D01*
X0096995Y0132097D02*
X0167845Y0132097D01*
X0167845Y0133696D02*
X0096995Y0133696D01*
X0096995Y0135294D02*
X0167845Y0135294D01*
X0167845Y0136893D02*
X0096995Y0136893D01*
X0096995Y0138491D02*
X0167845Y0138491D01*
X0167845Y0140090D02*
X0096995Y0140090D01*
X0096995Y0141688D02*
X0167845Y0141688D01*
X0167845Y0143287D02*
X0096995Y0143287D01*
X0096995Y0144885D02*
X0167845Y0144885D01*
X0167845Y0146484D02*
X0096995Y0146484D01*
X0096995Y0148082D02*
X0167845Y0148082D01*
X0167845Y0149681D02*
X0096995Y0149681D01*
X0096995Y0151279D02*
X0167845Y0151279D01*
X0167845Y0152878D02*
X0096995Y0152878D01*
X0096995Y0154476D02*
X0167845Y0154476D01*
X0167845Y0156075D02*
X0096995Y0156075D01*
X0096995Y0157673D02*
X0167845Y0157673D01*
X0167845Y0159272D02*
X0096995Y0159272D01*
X0096995Y0160870D02*
X0167845Y0160870D01*
X0167845Y0162469D02*
X0096995Y0162469D01*
X0096995Y0164068D02*
X0167845Y0164068D01*
X0167845Y0165666D02*
X0096995Y0165666D01*
X0096995Y0167265D02*
X0167845Y0167265D01*
X0167845Y0168863D02*
X0096995Y0168863D01*
X0096995Y0170462D02*
X0134606Y0170462D01*
X0132436Y0172060D02*
X0128352Y0172060D01*
X0127795Y0172060D02*
X0127395Y0172060D01*
X0126838Y0172060D02*
X0118352Y0172060D01*
X0117795Y0172060D02*
X0117395Y0172060D01*
X0116838Y0172060D02*
X0108352Y0172060D01*
X0107795Y0172060D02*
X0107395Y0172060D01*
X0106838Y0172060D02*
X0096995Y0172060D01*
X0096995Y0173659D02*
X0103948Y0173659D01*
X0103049Y0175257D02*
X0096995Y0175257D01*
X0096995Y0176856D02*
X0107395Y0176856D01*
X0107795Y0176856D02*
X0117395Y0176856D01*
X0117795Y0176856D02*
X0127395Y0176856D01*
X0127395Y0175257D02*
X0127795Y0175257D01*
X0127795Y0173659D02*
X0127395Y0173659D01*
X0123948Y0173659D02*
X0121242Y0173659D01*
X0122141Y0175257D02*
X0123049Y0175257D01*
X0123086Y0178454D02*
X0122105Y0178454D01*
X0121131Y0180053D02*
X0124060Y0180053D01*
X0122845Y0181651D02*
X0122346Y0181651D01*
X0114060Y0180053D02*
X0111131Y0180053D01*
X0112105Y0178454D02*
X0113086Y0178454D01*
X0113049Y0175257D02*
X0112141Y0175257D01*
X0111242Y0173659D02*
X0113948Y0173659D01*
X0117395Y0173659D02*
X0117795Y0173659D01*
X0117795Y0175257D02*
X0117395Y0175257D01*
X0107795Y0175257D02*
X0107395Y0175257D01*
X0107395Y0173659D02*
X0107795Y0173659D01*
X0103086Y0178454D02*
X0096995Y0178454D01*
X0096995Y0180053D02*
X0104060Y0180053D01*
X0102845Y0181651D02*
X0096995Y0181651D01*
X0096995Y0183250D02*
X0101489Y0183250D01*
X0100827Y0184848D02*
X0096995Y0184848D01*
X0096995Y0186447D02*
X0100595Y0186447D01*
X0100595Y0188045D02*
X0096995Y0188045D01*
X0096995Y0189644D02*
X0101196Y0189644D01*
X0102138Y0191242D02*
X0096995Y0191242D01*
X0096995Y0192841D02*
X0103887Y0192841D01*
X0111303Y0192841D02*
X0113887Y0192841D01*
X0121303Y0192841D02*
X0123887Y0192841D01*
X0131303Y0192841D02*
X0133887Y0192841D01*
X0141303Y0192841D02*
X0143887Y0192841D01*
X0151303Y0192841D02*
X0153887Y0192841D01*
X0162070Y0194439D02*
X0096995Y0194439D01*
X0096995Y0196038D02*
X0163669Y0196038D01*
X0165267Y0197636D02*
X0096995Y0197636D01*
X0096995Y0199235D02*
X0166866Y0199235D01*
X0168464Y0200833D02*
X0096995Y0200833D01*
X0096995Y0202432D02*
X0161363Y0202432D01*
X0161802Y0202250D02*
X0159596Y0203163D01*
X0157909Y0204851D01*
X0156995Y0207057D01*
X0156995Y0209443D01*
X0157909Y0211649D01*
X0159596Y0213337D01*
X0161802Y0214250D01*
X0164189Y0214250D01*
X0166394Y0213337D01*
X0168082Y0211649D01*
X0168995Y0209443D01*
X0168995Y0207057D01*
X0168082Y0204851D01*
X0166394Y0203163D01*
X0164189Y0202250D01*
X0161802Y0202250D01*
X0164627Y0202432D02*
X0170063Y0202432D01*
X0171661Y0204030D02*
X0167261Y0204030D01*
X0168404Y0205629D02*
X0173260Y0205629D01*
X0174859Y0207227D02*
X0168995Y0207227D01*
X0168995Y0208826D02*
X0176543Y0208826D01*
X0175889Y0215220D02*
X0169301Y0215220D01*
X0171813Y0216818D02*
X0173377Y0216818D01*
X0180701Y0215220D02*
X0192201Y0215220D01*
X0192013Y0216818D02*
X0193800Y0216818D01*
X0193757Y0218417D02*
X0193563Y0218417D01*
X0197395Y0221500D02*
X0197395Y0226100D01*
X0197217Y0226100D01*
X0196471Y0225982D01*
X0195753Y0225748D01*
X0195079Y0225405D01*
X0194468Y0224961D01*
X0194186Y0224679D01*
X0193529Y0226265D01*
X0192395Y0227400D01*
X0199431Y0227400D01*
X0198780Y0226749D01*
X0198478Y0226020D01*
X0197973Y0226100D01*
X0197795Y0226100D01*
X0197795Y0221500D01*
X0197395Y0221500D01*
X0197395Y0221614D02*
X0197795Y0221614D01*
X0197795Y0223212D02*
X0197395Y0223212D01*
X0197395Y0224811D02*
X0197795Y0224811D01*
X0198640Y0226409D02*
X0193385Y0226409D01*
X0194132Y0224811D02*
X0194318Y0224811D01*
X0190603Y0213621D02*
X0165706Y0213621D01*
X0164489Y0215220D02*
X0117834Y0215220D01*
X0117894Y0215444D02*
X0117192Y0212825D01*
X0115837Y0210476D01*
X0113919Y0208559D01*
X0111570Y0207203D01*
X0108951Y0206501D01*
X0106239Y0206501D01*
X0103620Y0207203D01*
X0101271Y0208559D01*
X0099354Y0210476D01*
X0097998Y0212825D01*
X0097296Y0215444D01*
X0097296Y0218156D01*
X0097998Y0220775D01*
X0099354Y0223124D01*
X0101271Y0225041D01*
X0103620Y0226397D01*
X0106239Y0227099D01*
X0108951Y0227099D01*
X0111570Y0226397D01*
X0113919Y0225041D01*
X0115837Y0223124D01*
X0117192Y0220775D01*
X0117894Y0218156D01*
X0117894Y0215444D01*
X0117894Y0216818D02*
X0161977Y0216818D01*
X0160720Y0218417D02*
X0117824Y0218417D01*
X0117396Y0220015D02*
X0160058Y0220015D01*
X0159895Y0221614D02*
X0116708Y0221614D01*
X0115748Y0223212D02*
X0159903Y0223212D01*
X0160566Y0224811D02*
X0114149Y0224811D01*
X0111525Y0226409D02*
X0161605Y0226409D01*
X0160284Y0213621D02*
X0117406Y0213621D01*
X0116730Y0212023D02*
X0158283Y0212023D01*
X0157401Y0210424D02*
X0115785Y0210424D01*
X0114186Y0208826D02*
X0156995Y0208826D01*
X0156995Y0207227D02*
X0111613Y0207227D01*
X0103577Y0207227D02*
X0096995Y0207227D01*
X0096995Y0205629D02*
X0157587Y0205629D01*
X0158730Y0204030D02*
X0096995Y0204030D01*
X0096995Y0208826D02*
X0101004Y0208826D01*
X0099406Y0210424D02*
X0096995Y0210424D01*
X0096995Y0212023D02*
X0098461Y0212023D01*
X0097784Y0213621D02*
X0096995Y0213621D01*
X0096995Y0215220D02*
X0097356Y0215220D01*
X0097296Y0216818D02*
X0096995Y0216818D01*
X0096995Y0218417D02*
X0097366Y0218417D01*
X0096995Y0220015D02*
X0097794Y0220015D01*
X0098482Y0221614D02*
X0096995Y0221614D01*
X0096995Y0223212D02*
X0099442Y0223212D01*
X0101041Y0224811D02*
X0096995Y0224811D01*
X0096995Y0226409D02*
X0103665Y0226409D01*
X0167708Y0212023D02*
X0189004Y0212023D01*
X0187406Y0210424D02*
X0168589Y0210424D01*
X0189345Y0196336D02*
X0189434Y0196425D01*
X0189846Y0196013D01*
X0192052Y0195100D01*
X0194439Y0195100D01*
X0196644Y0196013D01*
X0198332Y0197701D01*
X0199245Y0199907D01*
X0199245Y0202293D01*
X0198332Y0204499D01*
X0197920Y0204911D01*
X0206109Y0213100D01*
X0210640Y0213100D01*
X0212294Y0213785D01*
X0213803Y0215294D01*
X0216203Y0214300D01*
X0217895Y0214300D01*
X0217895Y0193800D01*
X0216203Y0193800D01*
X0213630Y0192734D01*
X0212595Y0191699D01*
X0211560Y0192734D01*
X0208988Y0193800D01*
X0206203Y0193800D01*
X0203630Y0192734D01*
X0202595Y0191699D01*
X0201560Y0192734D01*
X0198988Y0193800D01*
X0196203Y0193800D01*
X0193630Y0192734D01*
X0192595Y0191699D01*
X0191560Y0192734D01*
X0188988Y0193800D01*
X0188638Y0193800D01*
X0189345Y0195507D01*
X0189345Y0196336D01*
X0189345Y0196038D02*
X0189822Y0196038D01*
X0188903Y0194439D02*
X0217895Y0194439D01*
X0217895Y0196038D02*
X0196668Y0196038D01*
X0198267Y0197636D02*
X0217895Y0197636D01*
X0217895Y0199235D02*
X0198967Y0199235D01*
X0199245Y0200833D02*
X0217895Y0200833D01*
X0217895Y0202432D02*
X0199188Y0202432D01*
X0198526Y0204030D02*
X0217895Y0204030D01*
X0217895Y0205629D02*
X0198638Y0205629D01*
X0200236Y0207227D02*
X0217895Y0207227D01*
X0217895Y0208826D02*
X0201835Y0208826D01*
X0203433Y0210424D02*
X0217895Y0210424D01*
X0217895Y0212023D02*
X0205032Y0212023D01*
X0211899Y0213621D02*
X0217895Y0213621D01*
X0213982Y0215220D02*
X0213729Y0215220D01*
X0237345Y0203176D02*
X0238252Y0202800D01*
X0240639Y0202800D01*
X0242844Y0203713D01*
X0242983Y0203853D01*
X0243709Y0202101D01*
X0245396Y0200413D01*
X0247602Y0199500D01*
X0249989Y0199500D01*
X0252194Y0200413D01*
X0253882Y0202101D01*
X0254795Y0204307D01*
X0254795Y0206693D01*
X0253882Y0208899D01*
X0252194Y0210587D01*
X0249989Y0211500D01*
X0247602Y0211500D01*
X0245396Y0210587D01*
X0245257Y0210447D01*
X0244532Y0212199D01*
X0244120Y0212611D01*
X0246809Y0215300D01*
X0248988Y0215300D01*
X0251560Y0216366D01*
X0252095Y0216901D01*
X0253630Y0215366D01*
X0256203Y0214300D01*
X0258988Y0214300D01*
X0261560Y0215366D01*
X0263529Y0217335D01*
X0264595Y0219908D01*
X0264595Y0222692D01*
X0264468Y0223000D01*
X0265595Y0223000D01*
X0265595Y0220908D01*
X0266661Y0218335D01*
X0268630Y0216366D01*
X0271203Y0215300D01*
X0273988Y0215300D01*
X0276560Y0216366D01*
X0277095Y0216901D01*
X0278630Y0215366D01*
X0281203Y0214300D01*
X0283988Y0214300D01*
X0286560Y0215366D01*
X0288095Y0216901D01*
X0288630Y0216366D01*
X0291203Y0215300D01*
X0293988Y0215300D01*
X0296560Y0216366D01*
X0297095Y0216901D01*
X0298630Y0215366D01*
X0299314Y0215082D01*
X0274189Y0189958D01*
X0273784Y0190935D01*
X0271730Y0192989D01*
X0269047Y0194100D01*
X0266143Y0194100D01*
X0263460Y0192989D01*
X0261406Y0190935D01*
X0260295Y0188252D01*
X0260295Y0185348D01*
X0261406Y0182665D01*
X0263460Y0180611D01*
X0264438Y0180206D01*
X0230195Y0145964D01*
X0230195Y0162936D01*
X0235394Y0168135D01*
X0236660Y0169401D01*
X0236825Y0169800D01*
X0238988Y0169800D01*
X0241560Y0170866D01*
X0243529Y0172835D01*
X0243897Y0173723D01*
X0243934Y0173673D01*
X0244468Y0173139D01*
X0245079Y0172695D01*
X0245753Y0172352D01*
X0246471Y0172118D01*
X0247217Y0172000D01*
X0247395Y0172000D01*
X0247395Y0176600D01*
X0247795Y0176600D01*
X0247795Y0172000D01*
X0247973Y0172000D01*
X0248719Y0172118D01*
X0249438Y0172352D01*
X0250111Y0172695D01*
X0250722Y0173139D01*
X0251256Y0173673D01*
X0251700Y0174284D01*
X0252043Y0174957D01*
X0252277Y0175676D01*
X0252395Y0176422D01*
X0252395Y0176600D01*
X0247795Y0176600D01*
X0247795Y0177000D01*
X0247395Y0177000D01*
X0247395Y0181600D01*
X0247217Y0181600D01*
X0246471Y0181482D01*
X0245753Y0181248D01*
X0245079Y0180905D01*
X0244468Y0180461D01*
X0243934Y0179927D01*
X0243897Y0179877D01*
X0243529Y0180765D01*
X0242495Y0181800D01*
X0243529Y0182835D01*
X0243897Y0183723D01*
X0243934Y0183673D01*
X0244468Y0183139D01*
X0245079Y0182695D01*
X0245753Y0182352D01*
X0246471Y0182118D01*
X0247217Y0182000D01*
X0247395Y0182000D01*
X0247395Y0186600D01*
X0247795Y0186600D01*
X0247795Y0182000D01*
X0247973Y0182000D01*
X0248719Y0182118D01*
X0249438Y0182352D01*
X0250111Y0182695D01*
X0250722Y0183139D01*
X0251256Y0183673D01*
X0251700Y0184284D01*
X0252043Y0184957D01*
X0252277Y0185676D01*
X0252395Y0186422D01*
X0252395Y0186600D01*
X0247795Y0186600D01*
X0247795Y0187000D01*
X0247395Y0187000D01*
X0247395Y0191600D01*
X0247217Y0191600D01*
X0246471Y0191482D01*
X0245753Y0191248D01*
X0245079Y0190905D01*
X0244468Y0190461D01*
X0243934Y0189927D01*
X0243897Y0189877D01*
X0243529Y0190765D01*
X0241560Y0192734D01*
X0238988Y0193800D01*
X0237345Y0193800D01*
X0237345Y0203176D01*
X0237345Y0202432D02*
X0243572Y0202432D01*
X0244977Y0200833D02*
X0237345Y0200833D01*
X0237345Y0199235D02*
X0263973Y0199235D01*
X0263695Y0199907D02*
X0264609Y0197701D01*
X0266296Y0196013D01*
X0268502Y0195100D01*
X0270889Y0195100D01*
X0273094Y0196013D01*
X0274782Y0197701D01*
X0275695Y0199907D01*
X0275695Y0202293D01*
X0274782Y0204499D01*
X0273094Y0206187D01*
X0270889Y0207100D01*
X0268502Y0207100D01*
X0266296Y0206187D01*
X0264609Y0204499D01*
X0263695Y0202293D01*
X0263695Y0199907D01*
X0263695Y0200833D02*
X0252614Y0200833D01*
X0254019Y0202432D02*
X0263752Y0202432D01*
X0264415Y0204030D02*
X0254681Y0204030D01*
X0254795Y0205629D02*
X0265739Y0205629D01*
X0273652Y0205629D02*
X0289860Y0205629D01*
X0291459Y0207227D02*
X0254574Y0207227D01*
X0253912Y0208826D02*
X0293057Y0208826D01*
X0294656Y0210424D02*
X0252356Y0210424D01*
X0253982Y0215220D02*
X0246729Y0215220D01*
X0245130Y0213621D02*
X0297853Y0213621D01*
X0298982Y0215220D02*
X0286208Y0215220D01*
X0288013Y0216818D02*
X0288177Y0216818D01*
X0278982Y0215220D02*
X0261208Y0215220D01*
X0263013Y0216818D02*
X0268177Y0216818D01*
X0266627Y0218417D02*
X0263978Y0218417D01*
X0264595Y0220015D02*
X0265965Y0220015D01*
X0265595Y0221614D02*
X0264595Y0221614D01*
X0277013Y0216818D02*
X0277177Y0216818D01*
X0274976Y0204030D02*
X0288261Y0204030D01*
X0286663Y0202432D02*
X0275638Y0202432D01*
X0275695Y0200833D02*
X0285064Y0200833D01*
X0283466Y0199235D02*
X0275417Y0199235D01*
X0274717Y0197636D02*
X0281867Y0197636D01*
X0280269Y0196038D02*
X0273118Y0196038D01*
X0271878Y0192841D02*
X0277072Y0192841D01*
X0278670Y0194439D02*
X0237345Y0194439D01*
X0237345Y0196038D02*
X0266272Y0196038D01*
X0264674Y0197636D02*
X0237345Y0197636D01*
X0241303Y0192841D02*
X0263312Y0192841D01*
X0261714Y0191242D02*
X0249450Y0191242D01*
X0249438Y0191248D02*
X0248719Y0191482D01*
X0247973Y0191600D01*
X0247795Y0191600D01*
X0247795Y0187000D01*
X0252395Y0187000D01*
X0252395Y0187178D01*
X0252277Y0187924D01*
X0252043Y0188643D01*
X0251700Y0189316D01*
X0251256Y0189927D01*
X0250722Y0190461D01*
X0250111Y0190905D01*
X0249438Y0191248D01*
X0247795Y0191242D02*
X0247395Y0191242D01*
X0247395Y0189644D02*
X0247795Y0189644D01*
X0247795Y0188045D02*
X0247395Y0188045D01*
X0247395Y0186447D02*
X0247795Y0186447D01*
X0247795Y0184848D02*
X0247395Y0184848D01*
X0247395Y0183250D02*
X0247795Y0183250D01*
X0247795Y0181600D02*
X0247795Y0177000D01*
X0252395Y0177000D01*
X0252395Y0177178D01*
X0252277Y0177924D01*
X0252043Y0178643D01*
X0251700Y0179316D01*
X0251256Y0179927D01*
X0250722Y0180461D01*
X0250111Y0180905D01*
X0249438Y0181248D01*
X0248719Y0181482D01*
X0247973Y0181600D01*
X0247795Y0181600D01*
X0247795Y0180053D02*
X0247395Y0180053D01*
X0247395Y0178454D02*
X0247795Y0178454D01*
X0247795Y0176856D02*
X0261087Y0176856D01*
X0262685Y0178454D02*
X0252105Y0178454D01*
X0251131Y0180053D02*
X0264284Y0180053D01*
X0262420Y0181651D02*
X0242643Y0181651D01*
X0243701Y0183250D02*
X0244357Y0183250D01*
X0244060Y0180053D02*
X0243825Y0180053D01*
X0247395Y0175257D02*
X0247795Y0175257D01*
X0247795Y0173659D02*
X0247395Y0173659D01*
X0247395Y0172060D02*
X0247795Y0172060D01*
X0248352Y0172060D02*
X0256291Y0172060D01*
X0254693Y0170462D02*
X0240585Y0170462D01*
X0242755Y0172060D02*
X0246838Y0172060D01*
X0243948Y0173659D02*
X0243871Y0173659D01*
X0251242Y0173659D02*
X0257890Y0173659D01*
X0259488Y0175257D02*
X0252141Y0175257D01*
X0253094Y0168863D02*
X0236122Y0168863D01*
X0234524Y0167265D02*
X0251496Y0167265D01*
X0249897Y0165666D02*
X0232925Y0165666D01*
X0231327Y0164068D02*
X0248299Y0164068D01*
X0246700Y0162469D02*
X0230195Y0162469D01*
X0230195Y0160870D02*
X0245102Y0160870D01*
X0243503Y0159272D02*
X0230195Y0159272D01*
X0230195Y0157673D02*
X0241905Y0157673D01*
X0240306Y0156075D02*
X0230195Y0156075D01*
X0230195Y0154476D02*
X0238708Y0154476D01*
X0237109Y0152878D02*
X0230195Y0152878D01*
X0230195Y0151279D02*
X0235511Y0151279D01*
X0233912Y0149681D02*
X0230195Y0149681D01*
X0230195Y0148082D02*
X0232314Y0148082D01*
X0230715Y0146484D02*
X0230195Y0146484D01*
X0264368Y0156409D02*
X0270834Y0162875D01*
X0271246Y0162463D01*
X0273452Y0161550D01*
X0275839Y0161550D01*
X0278044Y0162463D01*
X0279732Y0164151D01*
X0280645Y0166357D01*
X0280645Y0168743D01*
X0279732Y0170949D01*
X0279320Y0171361D01*
X0288175Y0180216D01*
X0289161Y0177835D01*
X0290196Y0176800D01*
X0289161Y0175765D01*
X0288095Y0173192D01*
X0288095Y0170408D01*
X0289161Y0167835D01*
X0291130Y0165866D01*
X0292018Y0165498D01*
X0291968Y0165461D01*
X0291434Y0164927D01*
X0290990Y0164316D01*
X0290647Y0163643D01*
X0290413Y0162924D01*
X0290295Y0162178D01*
X0290295Y0162000D01*
X0294895Y0162000D01*
X0294895Y0161600D01*
X0290295Y0161600D01*
X0290295Y0161422D01*
X0290413Y0160676D01*
X0290647Y0159957D01*
X0290990Y0159284D01*
X0291434Y0158673D01*
X0291968Y0158139D01*
X0292018Y0158102D01*
X0291130Y0157734D01*
X0289161Y0155765D01*
X0288775Y0154834D01*
X0287644Y0155965D01*
X0285990Y0156650D01*
X0264950Y0156650D01*
X0264368Y0156409D01*
X0265633Y0157673D02*
X0291069Y0157673D01*
X0290999Y0159272D02*
X0267231Y0159272D01*
X0268830Y0160870D02*
X0290383Y0160870D01*
X0290341Y0162469D02*
X0278049Y0162469D01*
X0279648Y0164068D02*
X0290863Y0164068D01*
X0291612Y0165666D02*
X0280359Y0165666D01*
X0280645Y0167265D02*
X0289731Y0167265D01*
X0288735Y0168863D02*
X0280596Y0168863D01*
X0279933Y0170462D02*
X0288095Y0170462D01*
X0288095Y0172060D02*
X0280019Y0172060D01*
X0281618Y0173659D02*
X0288288Y0173659D01*
X0288950Y0175257D02*
X0283216Y0175257D01*
X0284815Y0176856D02*
X0290140Y0176856D01*
X0288904Y0178454D02*
X0286413Y0178454D01*
X0288012Y0180053D02*
X0288242Y0180053D01*
X0296680Y0188720D02*
X0322259Y0214300D01*
X0323988Y0214300D01*
X0326560Y0215366D01*
X0328095Y0216901D01*
X0328630Y0216366D01*
X0331203Y0215300D01*
X0333988Y0215300D01*
X0336560Y0216366D01*
X0337095Y0216901D01*
X0337795Y0216201D01*
X0337795Y0144114D01*
X0311445Y0117764D01*
X0311445Y0119793D01*
X0310686Y0121625D01*
X0311445Y0123457D01*
X0311445Y0125843D01*
X0310532Y0128049D01*
X0308844Y0129737D01*
X0306639Y0130650D01*
X0304252Y0130650D01*
X0302046Y0129737D01*
X0301655Y0129345D01*
X0302095Y0130408D01*
X0302095Y0133192D01*
X0301029Y0135765D01*
X0299995Y0136800D01*
X0301029Y0137835D01*
X0302095Y0140408D01*
X0302095Y0143192D01*
X0301029Y0145765D01*
X0299995Y0146800D01*
X0301029Y0147835D01*
X0302095Y0150408D01*
X0302095Y0153192D01*
X0301029Y0155765D01*
X0299060Y0157734D01*
X0298172Y0158102D01*
X0298222Y0158139D01*
X0298756Y0158673D01*
X0299200Y0159284D01*
X0299543Y0159957D01*
X0299777Y0160676D01*
X0299895Y0161422D01*
X0299895Y0161600D01*
X0295295Y0161600D01*
X0295295Y0162000D01*
X0299895Y0162000D01*
X0299895Y0162178D01*
X0299777Y0162924D01*
X0299543Y0163643D01*
X0299200Y0164316D01*
X0298756Y0164927D01*
X0298222Y0165461D01*
X0298172Y0165498D01*
X0299060Y0165866D01*
X0301029Y0167835D01*
X0302095Y0170408D01*
X0302095Y0173192D01*
X0301029Y0175765D01*
X0299995Y0176800D01*
X0301029Y0177835D01*
X0302095Y0180408D01*
X0302095Y0183192D01*
X0301029Y0185765D01*
X0299060Y0187734D01*
X0296680Y0188720D01*
X0297603Y0189644D02*
X0337795Y0189644D01*
X0337795Y0191242D02*
X0299201Y0191242D01*
X0300800Y0192841D02*
X0337795Y0192841D01*
X0337795Y0194439D02*
X0302398Y0194439D01*
X0303997Y0196038D02*
X0337795Y0196038D01*
X0337795Y0197636D02*
X0305595Y0197636D01*
X0307194Y0199235D02*
X0337795Y0199235D01*
X0337795Y0200833D02*
X0308792Y0200833D01*
X0310391Y0202432D02*
X0337795Y0202432D01*
X0337795Y0204030D02*
X0311989Y0204030D01*
X0313588Y0205629D02*
X0337795Y0205629D01*
X0337795Y0207227D02*
X0315186Y0207227D01*
X0316785Y0208826D02*
X0337795Y0208826D01*
X0337795Y0210424D02*
X0318383Y0210424D01*
X0319982Y0212023D02*
X0337795Y0212023D01*
X0337795Y0213621D02*
X0321580Y0213621D01*
X0326208Y0215220D02*
X0337795Y0215220D01*
X0337177Y0216818D02*
X0337013Y0216818D01*
X0328177Y0216818D02*
X0328013Y0216818D01*
X0346795Y0215601D02*
X0348529Y0217335D01*
X0349595Y0219908D01*
X0349595Y0222086D01*
X0357730Y0213951D01*
X0358996Y0212685D01*
X0360650Y0212000D01*
X0417990Y0212000D01*
X0419644Y0212685D01*
X0422259Y0215300D01*
X0423988Y0215300D01*
X0426560Y0216366D01*
X0427095Y0216901D01*
X0428630Y0215366D01*
X0431203Y0214300D01*
X0433988Y0214300D01*
X0436560Y0215366D01*
X0438529Y0217335D01*
X0439595Y0219908D01*
X0439595Y0222692D01*
X0438529Y0225265D01*
X0436560Y0227234D01*
X0436160Y0227400D01*
X0470773Y0227400D01*
X0472055Y0226118D01*
X0471570Y0226397D01*
X0468951Y0227099D01*
X0466239Y0227099D01*
X0463620Y0226397D01*
X0461271Y0225041D01*
X0459354Y0223124D01*
X0457998Y0220775D01*
X0457296Y0218156D01*
X0457296Y0215444D01*
X0457998Y0212825D01*
X0459354Y0210476D01*
X0459666Y0210164D01*
X0459565Y0210205D01*
X0455625Y0210205D01*
X0451984Y0208697D01*
X0449198Y0205911D01*
X0447690Y0202270D01*
X0447690Y0198330D01*
X0449198Y0194689D01*
X0451984Y0191903D01*
X0455625Y0190394D01*
X0459565Y0190394D01*
X0463206Y0191903D01*
X0465993Y0194689D01*
X0467501Y0198330D01*
X0467501Y0202270D01*
X0465993Y0205911D01*
X0465097Y0206807D01*
X0466239Y0206501D01*
X0468951Y0206501D01*
X0471570Y0207203D01*
X0473919Y0208559D01*
X0475837Y0210476D01*
X0477192Y0212825D01*
X0477894Y0215444D01*
X0477894Y0218156D01*
X0477192Y0220775D01*
X0476913Y0221260D01*
X0478195Y0219977D01*
X0478195Y0033623D01*
X0476913Y0032340D01*
X0477192Y0032825D01*
X0477894Y0035444D01*
X0477894Y0038156D01*
X0477192Y0040775D01*
X0475837Y0043124D01*
X0473919Y0045041D01*
X0471570Y0046397D01*
X0468951Y0047099D01*
X0466239Y0047099D01*
X0463620Y0046397D01*
X0461271Y0045041D01*
X0459354Y0043124D01*
X0457998Y0040775D01*
X0457296Y0038156D01*
X0457296Y0036499D01*
X0456560Y0037234D01*
X0453988Y0038300D01*
X0451203Y0038300D01*
X0448630Y0037234D01*
X0448095Y0036699D01*
X0446560Y0038234D01*
X0443988Y0039300D01*
X0441203Y0039300D01*
X0438630Y0038234D01*
X0437095Y0036699D01*
X0436560Y0037234D01*
X0433988Y0038300D01*
X0431203Y0038300D01*
X0428630Y0037234D01*
X0428095Y0036699D01*
X0426560Y0038234D01*
X0423988Y0039300D01*
X0422459Y0039300D01*
X0415960Y0045799D01*
X0415960Y0045799D01*
X0414694Y0047065D01*
X0413040Y0047750D01*
X0272580Y0047750D01*
X0271994Y0048337D01*
X0269789Y0049250D01*
X0267402Y0049250D01*
X0265196Y0048337D01*
X0263509Y0046649D01*
X0262595Y0044443D01*
X0262595Y0042057D01*
X0262743Y0041700D01*
X0198326Y0041700D01*
X0199813Y0043187D01*
X0200784Y0045531D01*
X0200784Y0048069D01*
X0199813Y0050413D01*
X0198019Y0052207D01*
X0195675Y0053178D01*
X0193137Y0053178D01*
X0192638Y0052971D01*
X0185531Y0060078D01*
X0186203Y0059800D01*
X0188988Y0059800D01*
X0190574Y0060457D01*
X0193830Y0057201D01*
X0195096Y0055935D01*
X0196750Y0055250D01*
X0258490Y0055250D01*
X0260144Y0055935D01*
X0260934Y0056725D01*
X0261346Y0056313D01*
X0263552Y0055400D01*
X0265939Y0055400D01*
X0268144Y0056313D01*
X0269832Y0058001D01*
X0270745Y0060207D01*
X0270745Y0062593D01*
X0270235Y0063826D01*
X0271939Y0065530D01*
X0273703Y0064800D01*
X0276488Y0064800D01*
X0279060Y0065866D01*
X0281029Y0067835D01*
X0282095Y0070408D01*
X0282095Y0073192D01*
X0281365Y0074956D01*
X0288095Y0081686D01*
X0288095Y0080408D01*
X0289161Y0077835D01*
X0290196Y0076800D01*
X0289161Y0075765D01*
X0288095Y0073192D01*
X0288095Y0070408D01*
X0289161Y0067835D01*
X0291130Y0065866D01*
X0293703Y0064800D01*
X0296488Y0064800D01*
X0299060Y0065866D01*
X0301029Y0067835D01*
X0302095Y0070408D01*
X0302095Y0073192D01*
X0301029Y0075765D01*
X0299995Y0076800D01*
X0301029Y0077835D01*
X0302095Y0080408D01*
X0302095Y0083192D01*
X0301029Y0085765D01*
X0299995Y0086800D01*
X0301029Y0087835D01*
X0302095Y0090408D01*
X0302095Y0093192D01*
X0301365Y0094956D01*
X0344844Y0138435D01*
X0345595Y0139186D01*
X0345595Y0080905D01*
X0346280Y0079251D01*
X0347546Y0077985D01*
X0349200Y0077300D01*
X0395616Y0077300D01*
X0395190Y0076270D01*
X0395190Y0072330D01*
X0396698Y0068689D01*
X0399484Y0065903D01*
X0403125Y0064394D01*
X0407065Y0064394D01*
X0410706Y0065903D01*
X0413493Y0068689D01*
X0415001Y0072330D01*
X0415001Y0076270D01*
X0414574Y0077300D01*
X0415990Y0077300D01*
X0417644Y0077985D01*
X0418910Y0079251D01*
X0419595Y0080905D01*
X0419595Y0109115D01*
X0421805Y0107839D01*
X0424933Y0107001D01*
X0428171Y0107001D01*
X0431299Y0107839D01*
X0434104Y0109458D01*
X0436394Y0111748D01*
X0438013Y0114553D01*
X0438851Y0117681D01*
X0438851Y0120919D01*
X0438013Y0124047D01*
X0436490Y0126686D01*
X0439288Y0126686D01*
X0442216Y0127470D01*
X0444841Y0128986D01*
X0446984Y0131129D01*
X0448500Y0133754D01*
X0449284Y0136682D01*
X0449284Y0139713D01*
X0448500Y0142641D01*
X0446984Y0145266D01*
X0444841Y0147409D01*
X0442216Y0148925D01*
X0439288Y0149709D01*
X0436257Y0149709D01*
X0433329Y0148925D01*
X0430704Y0147409D01*
X0428561Y0145266D01*
X0427045Y0142641D01*
X0426260Y0139713D01*
X0426260Y0136682D01*
X0427045Y0133754D01*
X0428311Y0131562D01*
X0428171Y0131599D01*
X0424933Y0131599D01*
X0421805Y0130761D01*
X0419595Y0129485D01*
X0419595Y0172695D01*
X0418910Y0174349D01*
X0417644Y0175615D01*
X0415990Y0176300D01*
X0414574Y0176300D01*
X0415001Y0177330D01*
X0415001Y0181270D01*
X0413493Y0184911D01*
X0410706Y0187697D01*
X0407065Y0189205D01*
X0403125Y0189205D01*
X0399484Y0187697D01*
X0396698Y0184911D01*
X0395190Y0181270D01*
X0395190Y0177330D01*
X0395616Y0176300D01*
X0349200Y0176300D01*
X0347546Y0175615D01*
X0346795Y0174864D01*
X0346795Y0215601D01*
X0346795Y0215220D02*
X0356461Y0215220D01*
X0354863Y0216818D02*
X0348013Y0216818D01*
X0348978Y0218417D02*
X0353264Y0218417D01*
X0351666Y0220015D02*
X0349595Y0220015D01*
X0349595Y0221614D02*
X0350067Y0221614D01*
X0346795Y0213621D02*
X0358060Y0213621D01*
X0360595Y0212023D02*
X0346795Y0212023D01*
X0346795Y0210424D02*
X0459406Y0210424D01*
X0458461Y0212023D02*
X0418045Y0212023D01*
X0420580Y0213621D02*
X0457784Y0213621D01*
X0457356Y0215220D02*
X0436208Y0215220D01*
X0438013Y0216818D02*
X0457296Y0216818D01*
X0457366Y0218417D02*
X0438978Y0218417D01*
X0439595Y0220015D02*
X0457794Y0220015D01*
X0458482Y0221614D02*
X0439595Y0221614D01*
X0439380Y0223212D02*
X0459442Y0223212D01*
X0461041Y0224811D02*
X0438718Y0224811D01*
X0437385Y0226409D02*
X0463665Y0226409D01*
X0471525Y0226409D02*
X0471763Y0226409D01*
X0477396Y0220015D02*
X0478157Y0220015D01*
X0478195Y0218417D02*
X0477824Y0218417D01*
X0477894Y0216818D02*
X0478195Y0216818D01*
X0478195Y0215220D02*
X0477834Y0215220D01*
X0478195Y0213621D02*
X0477406Y0213621D01*
X0476730Y0212023D02*
X0478195Y0212023D01*
X0478195Y0210424D02*
X0475785Y0210424D01*
X0474186Y0208826D02*
X0478195Y0208826D01*
X0478195Y0207227D02*
X0471613Y0207227D01*
X0466110Y0205629D02*
X0478195Y0205629D01*
X0478195Y0204030D02*
X0466772Y0204030D01*
X0467434Y0202432D02*
X0478195Y0202432D01*
X0478195Y0200833D02*
X0467501Y0200833D01*
X0467501Y0199235D02*
X0478195Y0199235D01*
X0478195Y0197636D02*
X0467213Y0197636D01*
X0466551Y0196038D02*
X0478195Y0196038D01*
X0478195Y0194439D02*
X0465743Y0194439D01*
X0464144Y0192841D02*
X0478195Y0192841D01*
X0478195Y0191242D02*
X0461612Y0191242D01*
X0453578Y0191242D02*
X0346795Y0191242D01*
X0346795Y0189644D02*
X0478195Y0189644D01*
X0478195Y0188045D02*
X0409867Y0188045D01*
X0411957Y0186447D02*
X0478195Y0186447D01*
X0478195Y0184848D02*
X0413519Y0184848D01*
X0414181Y0183250D02*
X0478195Y0183250D01*
X0478195Y0181651D02*
X0414843Y0181651D01*
X0415001Y0180053D02*
X0478195Y0180053D01*
X0478195Y0178454D02*
X0458967Y0178454D01*
X0459274Y0178354D02*
X0458620Y0178567D01*
X0457939Y0178675D01*
X0457595Y0178675D01*
X0457251Y0178675D01*
X0456571Y0178567D01*
X0455916Y0178354D01*
X0455302Y0178042D01*
X0454745Y0177637D01*
X0454258Y0177150D01*
X0453853Y0176593D01*
X0453541Y0175979D01*
X0453328Y0175324D01*
X0453220Y0174644D01*
X0453220Y0174300D01*
X0453220Y0173956D01*
X0453328Y0173276D01*
X0453541Y0172621D01*
X0453853Y0172007D01*
X0454258Y0171450D01*
X0454745Y0170963D01*
X0455302Y0170558D01*
X0455916Y0170246D01*
X0456571Y0170033D01*
X0457251Y0169925D01*
X0457595Y0169925D01*
X0457595Y0174300D01*
X0457595Y0174300D01*
X0453220Y0174300D01*
X0457595Y0174300D01*
X0457595Y0178675D01*
X0457595Y0174300D01*
X0457595Y0174300D01*
X0457595Y0174300D01*
X0457595Y0169925D01*
X0457939Y0169925D01*
X0458620Y0170033D01*
X0459274Y0170246D01*
X0459888Y0170558D01*
X0460445Y0170963D01*
X0460932Y0171450D01*
X0461337Y0172007D01*
X0461649Y0172621D01*
X0461862Y0173276D01*
X0461970Y0173956D01*
X0461970Y0174300D01*
X0461970Y0174644D01*
X0461862Y0175324D01*
X0461649Y0175979D01*
X0461337Y0176593D01*
X0460932Y0177150D01*
X0460445Y0177637D01*
X0459888Y0178042D01*
X0459274Y0178354D01*
X0457595Y0178454D02*
X0457595Y0178454D01*
X0456223Y0178454D02*
X0415001Y0178454D01*
X0414804Y0176856D02*
X0454044Y0176856D01*
X0453317Y0175257D02*
X0418002Y0175257D01*
X0419196Y0173659D02*
X0453267Y0173659D01*
X0453826Y0172060D02*
X0419595Y0172060D01*
X0419595Y0170462D02*
X0455492Y0170462D01*
X0457595Y0170462D02*
X0457595Y0170462D01*
X0457595Y0172060D02*
X0457595Y0172060D01*
X0457595Y0173659D02*
X0457595Y0173659D01*
X0457595Y0174300D02*
X0457595Y0174300D01*
X0461970Y0174300D01*
X0457595Y0174300D01*
X0457595Y0175257D02*
X0457595Y0175257D01*
X0457595Y0176856D02*
X0457595Y0176856D01*
X0461146Y0176856D02*
X0478195Y0176856D01*
X0478195Y0175257D02*
X0461873Y0175257D01*
X0461923Y0173659D02*
X0478195Y0173659D01*
X0478195Y0172060D02*
X0461364Y0172060D01*
X0459698Y0170462D02*
X0478195Y0170462D01*
X0478195Y0168863D02*
X0419595Y0168863D01*
X0419595Y0167265D02*
X0478195Y0167265D01*
X0478195Y0165666D02*
X0419595Y0165666D01*
X0419595Y0164068D02*
X0478195Y0164068D01*
X0478195Y0162469D02*
X0419595Y0162469D01*
X0419595Y0160870D02*
X0478195Y0160870D01*
X0478195Y0159272D02*
X0419595Y0159272D01*
X0419595Y0157673D02*
X0454340Y0157673D01*
X0455625Y0158205D02*
X0451984Y0156697D01*
X0449198Y0153911D01*
X0447690Y0150270D01*
X0447690Y0146330D01*
X0449198Y0142689D01*
X0451984Y0139903D01*
X0455625Y0138394D01*
X0459565Y0138394D01*
X0463206Y0139903D01*
X0465993Y0142689D01*
X0467501Y0146330D01*
X0467501Y0150270D01*
X0465993Y0153911D01*
X0463206Y0156697D01*
X0459565Y0158205D01*
X0455625Y0158205D01*
X0451362Y0156075D02*
X0419595Y0156075D01*
X0419595Y0154476D02*
X0449763Y0154476D01*
X0448770Y0152878D02*
X0419595Y0152878D01*
X0419595Y0151279D02*
X0448108Y0151279D01*
X0447690Y0149681D02*
X0439394Y0149681D01*
X0436150Y0149681D02*
X0419595Y0149681D01*
X0419595Y0148082D02*
X0431870Y0148082D01*
X0429778Y0146484D02*
X0419595Y0146484D01*
X0419595Y0144885D02*
X0428341Y0144885D01*
X0427418Y0143287D02*
X0419595Y0143287D01*
X0419595Y0141688D02*
X0426790Y0141688D01*
X0426361Y0140090D02*
X0419595Y0140090D01*
X0419595Y0138491D02*
X0426260Y0138491D01*
X0426260Y0136893D02*
X0419595Y0136893D01*
X0419595Y0135294D02*
X0426632Y0135294D01*
X0427079Y0133696D02*
X0419595Y0133696D01*
X0419595Y0132097D02*
X0428002Y0132097D01*
X0421350Y0130499D02*
X0419595Y0130499D01*
X0437057Y0125703D02*
X0444392Y0125703D01*
X0444204Y0125515D02*
X0443552Y0124697D01*
X0442995Y0123811D01*
X0442542Y0122869D01*
X0442196Y0121882D01*
X0441963Y0120862D01*
X0441878Y0120100D01*
X0450358Y0120100D01*
X0450358Y0118500D01*
X0441878Y0118500D01*
X0441963Y0117738D01*
X0442196Y0116718D01*
X0442542Y0115731D01*
X0442995Y0114789D01*
X0443552Y0113903D01*
X0444204Y0113085D01*
X0444943Y0112346D01*
X0445761Y0111694D01*
X0446647Y0111137D01*
X0447589Y0110683D01*
X0448576Y0110338D01*
X0449596Y0110105D01*
X0450358Y0110019D01*
X0450358Y0118500D01*
X0451958Y0118500D01*
X0451958Y0110019D01*
X0452720Y0110105D01*
X0453740Y0110338D01*
X0454727Y0110683D01*
X0455670Y0111137D01*
X0456555Y0111694D01*
X0457373Y0112346D01*
X0458112Y0113085D01*
X0458764Y0113903D01*
X0459321Y0114789D01*
X0459775Y0115731D01*
X0460120Y0116718D01*
X0460353Y0117738D01*
X0460439Y0118500D01*
X0451958Y0118500D01*
X0451958Y0120100D01*
X0450358Y0120100D01*
X0450358Y0128581D01*
X0449596Y0128495D01*
X0448576Y0128262D01*
X0447589Y0127917D01*
X0446647Y0127463D01*
X0445761Y0126906D01*
X0444943Y0126254D01*
X0444204Y0125515D01*
X0443180Y0124105D02*
X0437980Y0124105D01*
X0438426Y0122506D02*
X0442415Y0122506D01*
X0441974Y0120908D02*
X0438851Y0120908D01*
X0438851Y0119309D02*
X0450358Y0119309D01*
X0450358Y0117711D02*
X0451958Y0117711D01*
X0451958Y0119309D02*
X0478195Y0119309D01*
X0478195Y0117711D02*
X0460347Y0117711D01*
X0459908Y0116112D02*
X0478195Y0116112D01*
X0478195Y0114514D02*
X0459148Y0114514D01*
X0457942Y0112915D02*
X0478195Y0112915D01*
X0478195Y0111317D02*
X0455955Y0111317D01*
X0451958Y0111317D02*
X0450358Y0111317D01*
X0450358Y0112915D02*
X0451958Y0112915D01*
X0451958Y0114514D02*
X0450358Y0114514D01*
X0450358Y0116112D02*
X0451958Y0116112D01*
X0451958Y0120100D02*
X0460439Y0120100D01*
X0460353Y0120862D01*
X0460120Y0121882D01*
X0459775Y0122869D01*
X0459321Y0123811D01*
X0458764Y0124697D01*
X0458112Y0125515D01*
X0457373Y0126254D01*
X0456555Y0126906D01*
X0455670Y0127463D01*
X0454727Y0127917D01*
X0453740Y0128262D01*
X0452720Y0128495D01*
X0451958Y0128581D01*
X0451958Y0120100D01*
X0451958Y0120908D02*
X0450358Y0120908D01*
X0450358Y0122506D02*
X0451958Y0122506D01*
X0451958Y0124105D02*
X0450358Y0124105D01*
X0450358Y0125703D02*
X0451958Y0125703D01*
X0451958Y0127302D02*
X0450358Y0127302D01*
X0446391Y0127302D02*
X0441587Y0127302D01*
X0444692Y0128900D02*
X0478195Y0128900D01*
X0478195Y0127302D02*
X0455926Y0127302D01*
X0457924Y0125703D02*
X0478195Y0125703D01*
X0478195Y0124105D02*
X0459137Y0124105D01*
X0459902Y0122506D02*
X0478195Y0122506D01*
X0478195Y0120908D02*
X0460342Y0120908D01*
X0446361Y0111317D02*
X0435962Y0111317D01*
X0437067Y0112915D02*
X0444374Y0112915D01*
X0443168Y0114514D02*
X0437990Y0114514D01*
X0438431Y0116112D02*
X0442408Y0116112D01*
X0441970Y0117711D02*
X0438851Y0117711D01*
X0434364Y0109718D02*
X0478195Y0109718D01*
X0478195Y0108120D02*
X0431785Y0108120D01*
X0421318Y0108120D02*
X0419595Y0108120D01*
X0419595Y0106521D02*
X0478195Y0106521D01*
X0478195Y0104923D02*
X0419595Y0104923D01*
X0419595Y0103324D02*
X0478195Y0103324D01*
X0478195Y0101726D02*
X0419595Y0101726D01*
X0419595Y0100127D02*
X0478195Y0100127D01*
X0478195Y0098529D02*
X0419595Y0098529D01*
X0419595Y0096930D02*
X0478195Y0096930D01*
X0478195Y0095332D02*
X0419595Y0095332D01*
X0419595Y0093733D02*
X0478195Y0093733D01*
X0478195Y0092134D02*
X0419595Y0092134D01*
X0419595Y0090536D02*
X0478195Y0090536D01*
X0478195Y0088937D02*
X0419595Y0088937D01*
X0419595Y0087339D02*
X0478195Y0087339D01*
X0478195Y0085740D02*
X0419595Y0085740D01*
X0419595Y0084142D02*
X0478195Y0084142D01*
X0478195Y0082543D02*
X0419595Y0082543D01*
X0419595Y0080945D02*
X0478195Y0080945D01*
X0478195Y0079346D02*
X0418950Y0079346D01*
X0417072Y0077748D02*
X0478195Y0077748D01*
X0478195Y0076149D02*
X0415001Y0076149D01*
X0415001Y0074551D02*
X0478195Y0074551D01*
X0478195Y0072952D02*
X0415001Y0072952D01*
X0414596Y0071354D02*
X0478195Y0071354D01*
X0478195Y0069755D02*
X0469495Y0069755D01*
X0469042Y0070208D02*
X0466481Y0071268D01*
X0463709Y0071268D01*
X0461148Y0070208D01*
X0459188Y0068247D01*
X0458800Y0067313D01*
X0458732Y0067406D01*
X0458202Y0067937D01*
X0457594Y0068378D01*
X0456926Y0068719D01*
X0456212Y0068951D01*
X0455470Y0069068D01*
X0455279Y0069068D01*
X0455279Y0064484D01*
X0454911Y0064484D01*
X0454911Y0069068D01*
X0454720Y0069068D01*
X0453979Y0068951D01*
X0453265Y0068719D01*
X0452596Y0068378D01*
X0451989Y0067937D01*
X0451458Y0067406D01*
X0451390Y0067313D01*
X0451003Y0068247D01*
X0449042Y0070208D01*
X0446481Y0071268D01*
X0443709Y0071268D01*
X0441148Y0070208D01*
X0439188Y0068247D01*
X0438127Y0065686D01*
X0438127Y0062914D01*
X0439188Y0060353D01*
X0441148Y0058392D01*
X0443709Y0057331D01*
X0446481Y0057331D01*
X0449042Y0058392D01*
X0451003Y0060353D01*
X0451390Y0061287D01*
X0451458Y0061194D01*
X0451989Y0060663D01*
X0452596Y0060222D01*
X0453265Y0059881D01*
X0453979Y0059649D01*
X0454720Y0059531D01*
X0454911Y0059531D01*
X0454911Y0064116D01*
X0455279Y0064116D01*
X0455279Y0059531D01*
X0455470Y0059531D01*
X0456212Y0059649D01*
X0456926Y0059881D01*
X0457594Y0060222D01*
X0458202Y0060663D01*
X0458732Y0061194D01*
X0458800Y0061287D01*
X0459188Y0060353D01*
X0461148Y0058392D01*
X0463709Y0057331D01*
X0466481Y0057331D01*
X0469042Y0058392D01*
X0471003Y0060353D01*
X0472064Y0062914D01*
X0472064Y0065686D01*
X0471003Y0068247D01*
X0469042Y0070208D01*
X0471040Y0068157D02*
X0478195Y0068157D01*
X0478195Y0066558D02*
X0471702Y0066558D01*
X0472064Y0064960D02*
X0478195Y0064960D01*
X0478195Y0063361D02*
X0472064Y0063361D01*
X0471587Y0061763D02*
X0478195Y0061763D01*
X0478195Y0060164D02*
X0470814Y0060164D01*
X0469216Y0058566D02*
X0478195Y0058566D01*
X0478195Y0056967D02*
X0419895Y0056967D01*
X0419895Y0058252D02*
X0419895Y0055348D01*
X0418784Y0052665D01*
X0416730Y0050611D01*
X0414047Y0049500D01*
X0411143Y0049500D01*
X0408460Y0050611D01*
X0406406Y0052665D01*
X0405295Y0055348D01*
X0405295Y0058252D01*
X0406406Y0060935D01*
X0408460Y0062989D01*
X0411143Y0064100D01*
X0414047Y0064100D01*
X0416730Y0062989D01*
X0418784Y0060935D01*
X0419895Y0058252D01*
X0419765Y0058566D02*
X0440974Y0058566D01*
X0439376Y0060164D02*
X0419103Y0060164D01*
X0417956Y0061763D02*
X0438603Y0061763D01*
X0438127Y0063361D02*
X0415831Y0063361D01*
X0411362Y0066558D02*
X0438488Y0066558D01*
X0438127Y0064960D02*
X0408430Y0064960D01*
X0409360Y0063361D02*
X0375831Y0063361D01*
X0376730Y0062989D02*
X0374047Y0064100D01*
X0371143Y0064100D01*
X0368460Y0062989D01*
X0366406Y0060935D01*
X0365295Y0058252D01*
X0365295Y0055348D01*
X0366406Y0052665D01*
X0368460Y0050611D01*
X0371143Y0049500D01*
X0374047Y0049500D01*
X0376730Y0050611D01*
X0378784Y0052665D01*
X0379895Y0055348D01*
X0379895Y0058252D01*
X0378784Y0060935D01*
X0376730Y0062989D01*
X0377956Y0061763D02*
X0407234Y0061763D01*
X0406087Y0060164D02*
X0379103Y0060164D01*
X0379765Y0058566D02*
X0405425Y0058566D01*
X0405295Y0056967D02*
X0379895Y0056967D01*
X0379895Y0055369D02*
X0405295Y0055369D01*
X0405949Y0053770D02*
X0379242Y0053770D01*
X0378291Y0052172D02*
X0406900Y0052172D01*
X0408552Y0050573D02*
X0376638Y0050573D01*
X0368552Y0050573D02*
X0199653Y0050573D01*
X0200409Y0048975D02*
X0266737Y0048975D01*
X0264236Y0047376D02*
X0200784Y0047376D01*
X0200784Y0045778D02*
X0263148Y0045778D01*
X0262595Y0044179D02*
X0200224Y0044179D01*
X0199207Y0042581D02*
X0262595Y0042581D01*
X0270453Y0048975D02*
X0478195Y0048975D01*
X0478195Y0050573D02*
X0416638Y0050573D01*
X0418291Y0052172D02*
X0478195Y0052172D01*
X0478195Y0053770D02*
X0419242Y0053770D01*
X0419895Y0055369D02*
X0478195Y0055369D01*
X0478195Y0047376D02*
X0413943Y0047376D01*
X0415981Y0045778D02*
X0462547Y0045778D01*
X0460409Y0044179D02*
X0417580Y0044179D01*
X0419178Y0042581D02*
X0459040Y0042581D01*
X0458117Y0040982D02*
X0420777Y0040982D01*
X0422375Y0039384D02*
X0457625Y0039384D01*
X0457296Y0037785D02*
X0455231Y0037785D01*
X0449960Y0037785D02*
X0447009Y0037785D01*
X0438181Y0037785D02*
X0435231Y0037785D01*
X0429960Y0037785D02*
X0427009Y0037785D01*
X0449216Y0058566D02*
X0460974Y0058566D01*
X0459376Y0060164D02*
X0457482Y0060164D01*
X0455279Y0060164D02*
X0454911Y0060164D01*
X0454911Y0061763D02*
X0455279Y0061763D01*
X0455279Y0063361D02*
X0454911Y0063361D01*
X0454911Y0064960D02*
X0455279Y0064960D01*
X0455279Y0066558D02*
X0454911Y0066558D01*
X0454911Y0068157D02*
X0455279Y0068157D01*
X0457899Y0068157D02*
X0459150Y0068157D01*
X0460696Y0069755D02*
X0449495Y0069755D01*
X0451040Y0068157D02*
X0452291Y0068157D01*
X0440696Y0069755D02*
X0413934Y0069755D01*
X0412960Y0068157D02*
X0439150Y0068157D01*
X0450814Y0060164D02*
X0452708Y0060164D01*
X0472644Y0045778D02*
X0478195Y0045778D01*
X0478195Y0044179D02*
X0474781Y0044179D01*
X0476150Y0042581D02*
X0478195Y0042581D01*
X0478195Y0040982D02*
X0477073Y0040982D01*
X0477565Y0039384D02*
X0478195Y0039384D01*
X0478195Y0037785D02*
X0477894Y0037785D01*
X0477894Y0036187D02*
X0478195Y0036187D01*
X0478195Y0034588D02*
X0477665Y0034588D01*
X0477562Y0032990D02*
X0477237Y0032990D01*
X0401760Y0064960D02*
X0296873Y0064960D01*
X0299753Y0066558D02*
X0398828Y0066558D01*
X0397230Y0068157D02*
X0301163Y0068157D01*
X0301825Y0069755D02*
X0396256Y0069755D01*
X0395594Y0071354D02*
X0302095Y0071354D01*
X0302095Y0072952D02*
X0395190Y0072952D01*
X0395190Y0074551D02*
X0301532Y0074551D01*
X0300645Y0076149D02*
X0395190Y0076149D01*
X0369360Y0063361D02*
X0270427Y0063361D01*
X0270745Y0061763D02*
X0367234Y0061763D01*
X0366087Y0060164D02*
X0270728Y0060164D01*
X0270065Y0058566D02*
X0365425Y0058566D01*
X0365295Y0056967D02*
X0268798Y0056967D01*
X0258777Y0055369D02*
X0365295Y0055369D01*
X0365949Y0053770D02*
X0191839Y0053770D01*
X0190240Y0055369D02*
X0196463Y0055369D01*
X0194064Y0056967D02*
X0188642Y0056967D01*
X0187043Y0058566D02*
X0192465Y0058566D01*
X0190867Y0060164D02*
X0189867Y0060164D01*
X0198054Y0052172D02*
X0366900Y0052172D01*
X0348119Y0077748D02*
X0300943Y0077748D01*
X0301656Y0079346D02*
X0346241Y0079346D01*
X0345595Y0080945D02*
X0302095Y0080945D01*
X0302095Y0082543D02*
X0345595Y0082543D01*
X0345595Y0084142D02*
X0301702Y0084142D01*
X0301040Y0085740D02*
X0345595Y0085740D01*
X0345595Y0087339D02*
X0300534Y0087339D01*
X0301486Y0088937D02*
X0345595Y0088937D01*
X0345595Y0090536D02*
X0302095Y0090536D01*
X0302095Y0092134D02*
X0345595Y0092134D01*
X0345595Y0093733D02*
X0301871Y0093733D01*
X0301741Y0095332D02*
X0345595Y0095332D01*
X0345595Y0096930D02*
X0303339Y0096930D01*
X0304938Y0098529D02*
X0345595Y0098529D01*
X0345595Y0100127D02*
X0306536Y0100127D01*
X0308135Y0101726D02*
X0345595Y0101726D01*
X0345595Y0103324D02*
X0309733Y0103324D01*
X0311332Y0104923D02*
X0345595Y0104923D01*
X0345595Y0106521D02*
X0312930Y0106521D01*
X0314529Y0108120D02*
X0345595Y0108120D01*
X0345595Y0109718D02*
X0316127Y0109718D01*
X0317726Y0111317D02*
X0345595Y0111317D01*
X0345595Y0112915D02*
X0319324Y0112915D01*
X0320923Y0114514D02*
X0345595Y0114514D01*
X0345595Y0116112D02*
X0322521Y0116112D01*
X0324120Y0117711D02*
X0345595Y0117711D01*
X0345595Y0119309D02*
X0325718Y0119309D01*
X0327317Y0120908D02*
X0345595Y0120908D01*
X0345595Y0122506D02*
X0328915Y0122506D01*
X0330514Y0124105D02*
X0345595Y0124105D01*
X0345595Y0125703D02*
X0332112Y0125703D01*
X0333711Y0127302D02*
X0345595Y0127302D01*
X0345595Y0128900D02*
X0335309Y0128900D01*
X0336908Y0130499D02*
X0345595Y0130499D01*
X0345595Y0132097D02*
X0338506Y0132097D01*
X0340105Y0133696D02*
X0345595Y0133696D01*
X0345595Y0135294D02*
X0341703Y0135294D01*
X0343302Y0136893D02*
X0345595Y0136893D01*
X0345595Y0138491D02*
X0344900Y0138491D01*
X0336968Y0143287D02*
X0302056Y0143287D01*
X0302095Y0141688D02*
X0335370Y0141688D01*
X0333771Y0140090D02*
X0301963Y0140090D01*
X0301301Y0138491D02*
X0332173Y0138491D01*
X0330574Y0136893D02*
X0300087Y0136893D01*
X0301224Y0135294D02*
X0328975Y0135294D01*
X0327377Y0133696D02*
X0301887Y0133696D01*
X0302095Y0132097D02*
X0325778Y0132097D01*
X0324180Y0130499D02*
X0307004Y0130499D01*
X0309680Y0128900D02*
X0322581Y0128900D01*
X0320983Y0127302D02*
X0310841Y0127302D01*
X0311445Y0125703D02*
X0319384Y0125703D01*
X0317786Y0124105D02*
X0311445Y0124105D01*
X0311051Y0122506D02*
X0316187Y0122506D01*
X0314589Y0120908D02*
X0310984Y0120908D01*
X0311445Y0119309D02*
X0312990Y0119309D01*
X0303887Y0130499D02*
X0302095Y0130499D01*
X0301394Y0144885D02*
X0337795Y0144885D01*
X0337795Y0146484D02*
X0300311Y0146484D01*
X0301132Y0148082D02*
X0337795Y0148082D01*
X0337795Y0149681D02*
X0301794Y0149681D01*
X0302095Y0151279D02*
X0337795Y0151279D01*
X0337795Y0152878D02*
X0302095Y0152878D01*
X0301563Y0154476D02*
X0337795Y0154476D01*
X0337795Y0156075D02*
X0300720Y0156075D01*
X0299121Y0157673D02*
X0337795Y0157673D01*
X0337795Y0159272D02*
X0299192Y0159272D01*
X0299808Y0160870D02*
X0337795Y0160870D01*
X0337795Y0162469D02*
X0299849Y0162469D01*
X0299327Y0164068D02*
X0337795Y0164068D01*
X0337795Y0165666D02*
X0298578Y0165666D01*
X0300459Y0167265D02*
X0337795Y0167265D01*
X0337795Y0168863D02*
X0301455Y0168863D01*
X0302095Y0170462D02*
X0337795Y0170462D01*
X0337795Y0172060D02*
X0302095Y0172060D01*
X0301902Y0173659D02*
X0337795Y0173659D01*
X0337795Y0175257D02*
X0301240Y0175257D01*
X0300050Y0176856D02*
X0337795Y0176856D01*
X0337795Y0178454D02*
X0301286Y0178454D01*
X0301948Y0180053D02*
X0337795Y0180053D01*
X0337795Y0181651D02*
X0302095Y0181651D01*
X0302071Y0183250D02*
X0337795Y0183250D01*
X0337795Y0184848D02*
X0301409Y0184848D01*
X0300348Y0186447D02*
X0337795Y0186447D01*
X0337795Y0188045D02*
X0298310Y0188045D01*
X0275473Y0191242D02*
X0273477Y0191242D01*
X0260872Y0189644D02*
X0251462Y0189644D01*
X0252238Y0188045D02*
X0260295Y0188045D01*
X0260295Y0186447D02*
X0252395Y0186447D01*
X0251988Y0184848D02*
X0260502Y0184848D01*
X0261164Y0183250D02*
X0250833Y0183250D01*
X0245741Y0191242D02*
X0243052Y0191242D01*
X0213887Y0192841D02*
X0211303Y0192841D01*
X0203887Y0192841D02*
X0201303Y0192841D01*
X0193887Y0192841D02*
X0191303Y0192841D01*
X0164606Y0170462D02*
X0160585Y0170462D01*
X0154606Y0170462D02*
X0150585Y0170462D01*
X0144606Y0170462D02*
X0140585Y0170462D01*
X0131320Y0173659D02*
X0131242Y0173659D01*
X0112845Y0181651D02*
X0112346Y0181651D01*
X0244605Y0212023D02*
X0296254Y0212023D01*
X0297013Y0216818D02*
X0297177Y0216818D01*
X0252177Y0216818D02*
X0252013Y0216818D01*
X0270428Y0162469D02*
X0271241Y0162469D01*
X0287379Y0156075D02*
X0289471Y0156075D01*
X0346795Y0175257D02*
X0347188Y0175257D01*
X0346795Y0176856D02*
X0395386Y0176856D01*
X0395190Y0178454D02*
X0346795Y0178454D01*
X0346795Y0180053D02*
X0395190Y0180053D01*
X0395347Y0181651D02*
X0346795Y0181651D01*
X0346795Y0183250D02*
X0396009Y0183250D01*
X0396672Y0184848D02*
X0346795Y0184848D01*
X0346795Y0186447D02*
X0398233Y0186447D01*
X0400324Y0188045D02*
X0346795Y0188045D01*
X0346795Y0192841D02*
X0451046Y0192841D01*
X0449447Y0194439D02*
X0346795Y0194439D01*
X0346795Y0196038D02*
X0448639Y0196038D01*
X0447977Y0197636D02*
X0346795Y0197636D01*
X0346795Y0199235D02*
X0447690Y0199235D01*
X0447690Y0200833D02*
X0346795Y0200833D01*
X0346795Y0202432D02*
X0447757Y0202432D01*
X0448419Y0204030D02*
X0346795Y0204030D01*
X0346795Y0205629D02*
X0449081Y0205629D01*
X0450514Y0207227D02*
X0346795Y0207227D01*
X0346795Y0208826D02*
X0452294Y0208826D01*
X0428982Y0215220D02*
X0422179Y0215220D01*
X0427013Y0216818D02*
X0427177Y0216818D01*
X0460850Y0157673D02*
X0478195Y0157673D01*
X0478195Y0156075D02*
X0463829Y0156075D01*
X0465427Y0154476D02*
X0478195Y0154476D01*
X0478195Y0152878D02*
X0466421Y0152878D01*
X0467083Y0151279D02*
X0478195Y0151279D01*
X0478195Y0149681D02*
X0467501Y0149681D01*
X0467501Y0148082D02*
X0478195Y0148082D01*
X0478195Y0146484D02*
X0467501Y0146484D01*
X0466902Y0144885D02*
X0478195Y0144885D01*
X0478195Y0143287D02*
X0466240Y0143287D01*
X0464992Y0141688D02*
X0478195Y0141688D01*
X0478195Y0140090D02*
X0463393Y0140090D01*
X0459799Y0138491D02*
X0478195Y0138491D01*
X0478195Y0136893D02*
X0449284Y0136893D01*
X0449284Y0138491D02*
X0455391Y0138491D01*
X0451797Y0140090D02*
X0449183Y0140090D01*
X0448755Y0141688D02*
X0450198Y0141688D01*
X0448950Y0143287D02*
X0448127Y0143287D01*
X0448288Y0144885D02*
X0447204Y0144885D01*
X0447690Y0146484D02*
X0445766Y0146484D01*
X0447690Y0148082D02*
X0443675Y0148082D01*
X0448912Y0135294D02*
X0478195Y0135294D01*
X0478195Y0133696D02*
X0448466Y0133696D01*
X0447543Y0132097D02*
X0478195Y0132097D01*
X0478195Y0130499D02*
X0446354Y0130499D01*
X0289248Y0077748D02*
X0284157Y0077748D01*
X0285755Y0079346D02*
X0288535Y0079346D01*
X0288095Y0080945D02*
X0287354Y0080945D01*
X0289545Y0076149D02*
X0282558Y0076149D01*
X0281532Y0074551D02*
X0288658Y0074551D01*
X0288095Y0072952D02*
X0282095Y0072952D01*
X0282095Y0071354D02*
X0288095Y0071354D01*
X0288365Y0069755D02*
X0281825Y0069755D01*
X0281163Y0068157D02*
X0289027Y0068157D01*
X0290437Y0066558D02*
X0279753Y0066558D01*
X0276873Y0064960D02*
X0293317Y0064960D01*
X0273317Y0064960D02*
X0271369Y0064960D01*
X0262395Y0031500D02*
X0257795Y0031500D01*
X0257795Y0031678D01*
X0257913Y0032424D01*
X0258003Y0032700D01*
X0257392Y0032700D01*
X0257395Y0032678D01*
X0257395Y0032500D01*
X0252795Y0032500D01*
X0252795Y0032100D01*
X0257395Y0032100D01*
X0257395Y0031922D01*
X0257277Y0031176D01*
X0257122Y0030700D01*
X0257830Y0030700D01*
X0257795Y0030922D01*
X0257795Y0031100D01*
X0262395Y0031100D01*
X0262395Y0031500D01*
X0262395Y0031391D02*
X0257311Y0031391D01*
X0163439Y0082543D02*
X0161751Y0082543D01*
X0153439Y0082543D02*
X0151751Y0082543D01*
X0143439Y0082543D02*
X0141751Y0082543D01*
X0133439Y0082543D02*
X0131751Y0082543D01*
X0123439Y0082543D02*
X0121751Y0082543D01*
X0113439Y0082543D02*
X0111751Y0082543D01*
D21*
X0137595Y0076800D02*
X0137695Y0076800D01*
X0137695Y0073500D01*
X0142645Y0068550D01*
X0142645Y0064700D01*
X0156395Y0050950D01*
X0157495Y0050950D01*
X0182245Y0026200D01*
X0396195Y0026200D01*
X0402245Y0032250D01*
X0402595Y0032300D01*
X0406645Y0037200D02*
X0412145Y0031700D01*
X0412595Y0031300D01*
X0406645Y0037200D02*
X0174545Y0037200D01*
X0147595Y0064150D01*
X0147595Y0066800D01*
X0172345Y0065250D02*
X0175645Y0061950D01*
X0177295Y0061950D01*
X0192145Y0047100D01*
X0194345Y0047100D01*
X0194406Y0046800D01*
X0197645Y0059750D02*
X0257595Y0059750D01*
X0264745Y0066900D01*
X0266945Y0066900D01*
X0270245Y0070200D01*
X0270245Y0074050D01*
X0272995Y0076800D01*
X0276845Y0076800D01*
X0290045Y0090000D01*
X0290045Y0093850D01*
X0292795Y0096600D01*
X0296645Y0096600D01*
X0342295Y0142250D01*
X0342295Y0220900D01*
X0342595Y0221300D01*
X0350545Y0227500D02*
X0361545Y0216500D01*
X0417095Y0216500D01*
X0422595Y0222000D01*
X0422595Y0222300D01*
X0392595Y0221300D02*
X0392345Y0221450D01*
X0384095Y0229700D01*
X0208095Y0229700D01*
X0202595Y0224200D01*
X0202595Y0219250D01*
X0188295Y0204950D01*
X0178945Y0204950D01*
X0160795Y0186800D01*
X0157595Y0186800D01*
X0167595Y0186800D02*
X0167945Y0186800D01*
X0172345Y0182400D01*
X0172345Y0065250D01*
X0177595Y0066800D02*
X0177845Y0066900D01*
X0180595Y0066900D01*
X0185545Y0071850D01*
X0189395Y0071850D01*
X0192695Y0075150D01*
X0192695Y0079000D01*
X0225695Y0112000D01*
X0225695Y0164800D01*
X0232845Y0171950D01*
X0232845Y0207700D01*
X0247145Y0222000D01*
X0247595Y0222300D01*
X0227595Y0222300D02*
X0227345Y0222000D01*
X0222395Y0217050D01*
X0222395Y0167550D01*
X0222120Y0167275D01*
X0222395Y0167000D01*
X0222120Y0167275D02*
X0195995Y0141150D01*
X0195995Y0090000D01*
X0196545Y0089450D01*
X0196545Y0087800D01*
X0187745Y0079000D01*
X0187745Y0076800D01*
X0187595Y0076800D01*
X0187595Y0066800D02*
X0187745Y0066350D01*
X0191045Y0066350D01*
X0197645Y0059750D01*
X0200945Y0066350D02*
X0205345Y0061950D01*
X0229545Y0061950D01*
X0232845Y0065250D01*
X0232845Y0069100D01*
X0235595Y0071850D01*
X0239445Y0071850D01*
X0242745Y0075150D01*
X0242745Y0082300D01*
X0248795Y0088350D01*
X0248795Y0135100D01*
X0265845Y0152150D01*
X0285095Y0152150D01*
X0294995Y0142250D01*
X0295095Y0141800D01*
X0350095Y0171800D02*
X0350095Y0081800D01*
X0415095Y0081800D01*
X0415095Y0171800D01*
X0350095Y0171800D01*
X0322495Y0220900D02*
X0322595Y0221300D01*
X0322495Y0220900D02*
X0231745Y0130150D01*
X0231745Y0097700D01*
X0232295Y0097150D01*
X0232295Y0074600D01*
X0227895Y0070200D01*
X0227895Y0066900D01*
X0227595Y0066800D01*
X0227595Y0076800D02*
X0227895Y0076800D01*
X0227895Y0137300D01*
X0312595Y0222000D01*
X0312595Y0222300D01*
X0350545Y0227500D02*
X0216895Y0227500D01*
X0212495Y0223100D01*
X0212495Y0220350D01*
X0209745Y0217600D01*
X0204245Y0217600D01*
X0183345Y0196700D01*
X0262545Y0104300D02*
X0262545Y0096050D01*
X0260345Y0093850D01*
X0260345Y0076250D01*
X0264745Y0071850D01*
X0265095Y0071800D01*
X0268595Y0043250D02*
X0412145Y0043250D01*
X0422595Y0032800D01*
X0422595Y0032300D01*
X0200945Y0066350D02*
X0197645Y0066350D01*
X0197595Y0066800D01*
D22*
X0272995Y0146650D02*
X0292795Y0126850D01*
X0297195Y0126850D01*
X0305445Y0118600D01*
X0272995Y0146650D02*
X0268045Y0146650D01*
X0267595Y0146800D01*
M02*
