G75*
%MOIN*%
%OFA0B0*%
%FSLAX25Y25*%
%IPPOS*%
%LPD*%
%AMOC8*
5,1,8,0,0,1.08239X$1,22.5*
%
%ADD10R,0.07400X0.07400*%
%ADD11C,0.07400*%
%ADD12OC8,0.06400*%
%ADD13C,0.11811*%
%ADD14C,0.06299*%
%ADD15R,0.15600X0.15600*%
%ADD16C,0.12500*%
%ADD17R,0.07500X0.07500*%
%ADD18C,0.07500*%
%ADD19C,0.16598*%
%ADD20C,0.15024*%
%ADD21R,0.06337X0.06337*%
%ADD22C,0.07600*%
%ADD23C,0.01500*%
%ADD24C,0.04000*%
%ADD25C,0.01600*%
%ADD26C,0.01000*%
D10*
X0292595Y0032300D03*
X0382595Y0032300D03*
X0342595Y0221300D03*
X0362595Y0222300D03*
X0257595Y0221300D03*
D11*
X0247595Y0222300D03*
X0237595Y0221300D03*
X0227595Y0222300D03*
X0217595Y0221300D03*
X0207595Y0222300D03*
X0197595Y0221300D03*
X0187595Y0222300D03*
X0178295Y0221800D03*
X0166895Y0221800D03*
X0272595Y0222300D03*
X0282595Y0221300D03*
X0292595Y0222300D03*
X0302595Y0221300D03*
X0312595Y0222300D03*
X0322595Y0221300D03*
X0332595Y0222300D03*
X0372595Y0221300D03*
X0382595Y0222300D03*
X0392595Y0221300D03*
X0402595Y0222300D03*
X0412595Y0221300D03*
X0422595Y0222300D03*
X0432595Y0221300D03*
X0422595Y0032300D03*
X0412595Y0031300D03*
X0402595Y0032300D03*
X0392595Y0031300D03*
X0362595Y0031300D03*
X0352595Y0032300D03*
X0342595Y0031300D03*
X0332595Y0032300D03*
X0322595Y0031300D03*
X0312595Y0032300D03*
X0302595Y0031300D03*
X0272595Y0032300D03*
X0262595Y0031300D03*
X0252595Y0032300D03*
X0242595Y0031300D03*
X0232595Y0032300D03*
X0222595Y0031300D03*
X0212595Y0032300D03*
X0432595Y0031300D03*
X0442595Y0032300D03*
X0452595Y0031300D03*
D12*
X0295095Y0071800D03*
X0295095Y0081800D03*
X0295095Y0091800D03*
X0295095Y0101800D03*
X0295095Y0111800D03*
X0295095Y0121800D03*
X0295095Y0131800D03*
X0295095Y0141800D03*
X0295095Y0151800D03*
X0295095Y0161800D03*
X0295095Y0171800D03*
X0295095Y0181800D03*
X0247595Y0176800D03*
X0237595Y0176800D03*
X0227595Y0176800D03*
X0217595Y0176800D03*
X0207595Y0176800D03*
X0197595Y0176800D03*
X0187595Y0176800D03*
X0177595Y0176800D03*
X0167595Y0176800D03*
X0157595Y0176800D03*
X0147595Y0176800D03*
X0137595Y0176800D03*
X0127595Y0176800D03*
X0117595Y0176800D03*
X0107595Y0176800D03*
X0107595Y0186800D03*
X0117595Y0186800D03*
X0127595Y0186800D03*
X0137595Y0186800D03*
X0147595Y0186800D03*
X0157595Y0186800D03*
X0167595Y0186800D03*
X0177595Y0186800D03*
X0187595Y0186800D03*
X0197595Y0186800D03*
X0207595Y0186800D03*
X0217595Y0186800D03*
X0227595Y0186800D03*
X0237595Y0186800D03*
X0247595Y0186800D03*
X0265095Y0091800D03*
X0275095Y0091800D03*
X0275095Y0081800D03*
X0265095Y0081800D03*
X0265095Y0071800D03*
X0275095Y0071800D03*
X0247595Y0066800D03*
X0237595Y0066800D03*
X0227595Y0066800D03*
X0217595Y0066800D03*
X0207595Y0066800D03*
X0197595Y0066800D03*
X0187595Y0066800D03*
X0177595Y0066800D03*
X0167595Y0066800D03*
X0157595Y0066800D03*
X0147595Y0066800D03*
X0137595Y0066800D03*
X0127595Y0066800D03*
X0117595Y0066800D03*
X0107595Y0066800D03*
X0107595Y0076800D03*
X0117595Y0076800D03*
X0127595Y0076800D03*
X0137595Y0076800D03*
X0147595Y0076800D03*
X0157595Y0076800D03*
X0167595Y0076800D03*
X0177595Y0076800D03*
X0187595Y0076800D03*
X0197595Y0076800D03*
X0207595Y0076800D03*
X0217595Y0076800D03*
X0227595Y0076800D03*
X0237595Y0076800D03*
X0247595Y0076800D03*
D13*
X0405095Y0074300D03*
X0405095Y0179300D03*
D14*
X0194406Y0046800D03*
X0186532Y0046800D03*
X0178658Y0046800D03*
X0170784Y0046800D03*
D15*
X0457595Y0174300D03*
D16*
X0457595Y0200300D03*
X0457595Y0148300D03*
D17*
X0129800Y0045658D03*
D18*
X0129800Y0027942D03*
X0155390Y0027942D03*
X0155390Y0045658D03*
D19*
X0426552Y0119300D03*
D20*
X0451158Y0119300D03*
X0437772Y0138198D03*
D21*
X0445095Y0064300D03*
X0455095Y0064300D03*
X0465095Y0064300D03*
D22*
X0412595Y0056800D03*
X0372595Y0056800D03*
X0267595Y0146800D03*
X0267595Y0186800D03*
D23*
X0268045Y0186800D01*
X0272995Y0181850D01*
X0294995Y0181850D01*
X0295095Y0181800D01*
X0286195Y0162050D02*
X0271895Y0176350D01*
X0247695Y0176350D01*
X0247595Y0176800D01*
X0286195Y0162050D02*
X0294995Y0162050D01*
X0295095Y0161800D01*
X0295545Y0162600D01*
X0339545Y0162600D01*
X0364295Y0187350D01*
X0444595Y0187350D01*
X0457245Y0174700D01*
X0457595Y0174300D01*
X0248795Y0205500D02*
X0242195Y0205500D01*
X0241095Y0204400D01*
X0196545Y0204400D01*
X0193245Y0201100D01*
X0117345Y0159300D02*
X0101945Y0174700D01*
X0101945Y0181300D01*
X0107445Y0186800D01*
X0107595Y0186800D01*
X0117345Y0159300D02*
X0117345Y0076800D01*
X0117595Y0076800D01*
X0107595Y0076800D02*
X0107445Y0076800D01*
X0107445Y0074050D01*
X0101945Y0068550D01*
X0101945Y0064700D01*
X0114595Y0052050D01*
X0173445Y0052050D01*
X0178395Y0047100D01*
X0178658Y0046800D01*
X0176195Y0041600D02*
X0171245Y0046550D01*
X0170784Y0046800D01*
X0176195Y0041600D02*
X0240545Y0041600D01*
X0249345Y0032800D01*
X0252095Y0032800D01*
X0252595Y0032300D01*
X0242595Y0031300D02*
X0235595Y0038300D01*
X0218545Y0038300D01*
X0213045Y0032800D01*
X0212595Y0032300D01*
D24*
X0268595Y0043250D03*
X0264745Y0061400D03*
X0252645Y0090000D03*
X0243295Y0088350D03*
X0243295Y0099900D03*
X0235595Y0099350D03*
X0252645Y0103200D03*
X0262545Y0104300D03*
X0282345Y0122450D03*
X0305445Y0124650D03*
X0305445Y0118600D03*
X0238895Y0126300D03*
X0206445Y0157100D03*
X0221845Y0159850D03*
X0222395Y0167000D03*
X0192695Y0165350D03*
X0183345Y0196700D03*
X0193245Y0201100D03*
X0218545Y0208800D03*
X0239445Y0208800D03*
X0248795Y0205500D03*
X0269695Y0201100D03*
X0297195Y0201100D03*
X0274645Y0167550D03*
X0266395Y0170300D03*
X0162995Y0208250D03*
X0199845Y0091650D03*
D25*
X0096195Y0025400D02*
X0096195Y0228200D01*
X0164316Y0228200D01*
X0162987Y0227650D01*
X0161046Y0225709D01*
X0159995Y0223172D01*
X0159995Y0220427D01*
X0161046Y0217891D01*
X0161475Y0217462D01*
X0140549Y0196537D01*
X0139508Y0195496D01*
X0138945Y0194136D01*
X0138945Y0193200D01*
X0134944Y0193200D01*
X0132595Y0190851D01*
X0130246Y0193200D01*
X0124944Y0193200D01*
X0122595Y0190851D01*
X0120246Y0193200D01*
X0114944Y0193200D01*
X0112595Y0190851D01*
X0110246Y0193200D01*
X0104944Y0193200D01*
X0101195Y0189451D01*
X0101195Y0186136D01*
X0098596Y0183537D01*
X0097995Y0182086D01*
X0097995Y0173914D01*
X0098596Y0172463D01*
X0099708Y0171351D01*
X0113395Y0157664D01*
X0113395Y0081651D01*
X0112595Y0080851D01*
X0110246Y0083200D01*
X0104944Y0083200D01*
X0101195Y0079451D01*
X0101195Y0074149D01*
X0101577Y0073768D01*
X0099708Y0071899D01*
X0098596Y0070787D01*
X0097995Y0069336D01*
X0097995Y0063914D01*
X0098596Y0062462D01*
X0111246Y0049812D01*
X0112358Y0048701D01*
X0113809Y0048100D01*
X0122850Y0048100D01*
X0122850Y0041272D01*
X0123337Y0040096D01*
X0124237Y0039195D01*
X0125413Y0038708D01*
X0134186Y0038708D01*
X0135363Y0039195D01*
X0136263Y0040096D01*
X0136750Y0041272D01*
X0136750Y0048100D01*
X0148879Y0048100D01*
X0148440Y0047041D01*
X0148440Y0044276D01*
X0149498Y0041721D01*
X0151454Y0039766D01*
X0154008Y0038708D01*
X0156773Y0038708D01*
X0159327Y0039766D01*
X0161282Y0041721D01*
X0162340Y0044276D01*
X0162340Y0047041D01*
X0161902Y0048100D01*
X0166002Y0048100D01*
X0165956Y0047959D01*
X0165835Y0047190D01*
X0165835Y0046800D01*
X0165835Y0046410D01*
X0165956Y0045641D01*
X0166197Y0044900D01*
X0166551Y0044206D01*
X0167009Y0043576D01*
X0167560Y0043025D01*
X0168190Y0042567D01*
X0168884Y0042213D01*
X0169625Y0041972D01*
X0170395Y0041850D01*
X0170784Y0041850D01*
X0170784Y0046800D01*
X0170784Y0046800D01*
X0165835Y0046800D01*
X0170784Y0046800D01*
X0170784Y0046800D01*
X0170784Y0041850D01*
X0171174Y0041850D01*
X0171943Y0041972D01*
X0172684Y0042213D01*
X0173378Y0042567D01*
X0173687Y0042791D01*
X0175061Y0041417D01*
X0177395Y0040450D01*
X0179921Y0040450D01*
X0182255Y0041417D01*
X0182595Y0041757D01*
X0182935Y0041417D01*
X0185269Y0040450D01*
X0187795Y0040450D01*
X0190129Y0041417D01*
X0190469Y0041757D01*
X0190809Y0041417D01*
X0193143Y0040450D01*
X0195669Y0040450D01*
X0198003Y0041417D01*
X0199789Y0043203D01*
X0200756Y0045537D01*
X0200756Y0048063D01*
X0199789Y0050397D01*
X0198003Y0052183D01*
X0195669Y0053150D01*
X0193143Y0053150D01*
X0190809Y0052183D01*
X0190469Y0051843D01*
X0190129Y0052183D01*
X0187795Y0053150D01*
X0185269Y0053150D01*
X0182935Y0052183D01*
X0182595Y0051843D01*
X0182255Y0052183D01*
X0179921Y0053150D01*
X0177932Y0053150D01*
X0175683Y0055399D01*
X0174231Y0056000D01*
X0116231Y0056000D01*
X0110049Y0062183D01*
X0112595Y0064729D01*
X0112595Y0066600D01*
X0107795Y0066600D01*
X0107795Y0067000D01*
X0112595Y0067000D01*
X0112595Y0068871D01*
X0110656Y0070810D01*
X0112595Y0072749D01*
X0114534Y0070810D01*
X0112595Y0068871D01*
X0112595Y0067000D01*
X0117395Y0067000D01*
X0117395Y0066600D01*
X0112595Y0066600D01*
X0112595Y0064729D01*
X0115524Y0061800D01*
X0117395Y0061800D01*
X0117395Y0066600D01*
X0117795Y0066600D01*
X0117795Y0061800D01*
X0119666Y0061800D01*
X0122595Y0064729D01*
X0122595Y0066600D01*
X0117795Y0066600D01*
X0117795Y0067000D01*
X0122595Y0067000D01*
X0122595Y0068871D01*
X0120656Y0070810D01*
X0122595Y0072749D01*
X0124534Y0070810D01*
X0122595Y0068871D01*
X0122595Y0067000D01*
X0127395Y0067000D01*
X0127395Y0066600D01*
X0122595Y0066600D01*
X0122595Y0064729D01*
X0125524Y0061800D01*
X0127395Y0061800D01*
X0127395Y0066600D01*
X0127795Y0066600D01*
X0127795Y0061800D01*
X0129666Y0061800D01*
X0131605Y0063739D01*
X0134944Y0060400D01*
X0140246Y0060400D01*
X0142595Y0062749D01*
X0144944Y0060400D01*
X0150246Y0060400D01*
X0152595Y0062749D01*
X0154944Y0060400D01*
X0160246Y0060400D01*
X0162595Y0062749D01*
X0164944Y0060400D01*
X0170246Y0060400D01*
X0172595Y0062749D01*
X0174944Y0060400D01*
X0180246Y0060400D01*
X0182595Y0062749D01*
X0184944Y0060400D01*
X0190246Y0060400D01*
X0191004Y0061158D01*
X0210949Y0041213D01*
X0212309Y0040650D01*
X0215309Y0040650D01*
X0213859Y0039200D01*
X0211223Y0039200D01*
X0208687Y0038150D01*
X0206746Y0036209D01*
X0205695Y0033672D01*
X0205695Y0030927D01*
X0206746Y0028391D01*
X0208687Y0026450D01*
X0211223Y0025400D01*
X0213968Y0025400D01*
X0216504Y0026450D01*
X0217095Y0027042D01*
X0218687Y0025450D01*
X0218808Y0025400D01*
X0160324Y0025400D01*
X0160534Y0025811D01*
X0160804Y0026642D01*
X0160940Y0027505D01*
X0160940Y0027617D01*
X0155715Y0027617D01*
X0155715Y0028267D01*
X0155065Y0028267D01*
X0155065Y0027617D01*
X0149840Y0027617D01*
X0149840Y0027505D01*
X0149977Y0026642D01*
X0150247Y0025811D01*
X0150457Y0025400D01*
X0136270Y0025400D01*
X0136750Y0026559D01*
X0136750Y0029324D01*
X0135692Y0031879D01*
X0133737Y0033834D01*
X0131182Y0034892D01*
X0128417Y0034892D01*
X0125863Y0033834D01*
X0123908Y0031879D01*
X0122850Y0029324D01*
X0122850Y0026559D01*
X0123330Y0025400D01*
X0096195Y0025400D01*
X0096195Y0026596D02*
X0122850Y0026596D01*
X0122850Y0028194D02*
X0111641Y0028194D01*
X0112976Y0028747D02*
X0109485Y0027301D01*
X0105706Y0027301D01*
X0102214Y0028747D01*
X0099542Y0031419D01*
X0098096Y0034910D01*
X0098096Y0038690D01*
X0099542Y0042181D01*
X0102214Y0044853D01*
X0105706Y0046299D01*
X0109485Y0046299D01*
X0112976Y0044853D01*
X0115648Y0042181D01*
X0117094Y0038690D01*
X0117094Y0034910D01*
X0115648Y0031419D01*
X0112976Y0028747D01*
X0114022Y0029793D02*
X0123044Y0029793D01*
X0123706Y0031391D02*
X0115620Y0031391D01*
X0116299Y0032990D02*
X0125019Y0032990D01*
X0127684Y0034588D02*
X0116961Y0034588D01*
X0117094Y0036187D02*
X0206737Y0036187D01*
X0206074Y0034588D02*
X0131915Y0034588D01*
X0134581Y0032990D02*
X0153072Y0032990D01*
X0153260Y0033085D02*
X0152482Y0032689D01*
X0151775Y0032175D01*
X0151157Y0031557D01*
X0150644Y0030851D01*
X0150247Y0030072D01*
X0149977Y0029241D01*
X0149840Y0028379D01*
X0149840Y0028267D01*
X0155065Y0028267D01*
X0155065Y0033492D01*
X0154954Y0033492D01*
X0154091Y0033355D01*
X0153260Y0033085D01*
X0155065Y0032990D02*
X0155715Y0032990D01*
X0155715Y0033492D02*
X0155715Y0028267D01*
X0160940Y0028267D01*
X0160940Y0028379D01*
X0160804Y0029241D01*
X0160534Y0030072D01*
X0160137Y0030851D01*
X0159624Y0031557D01*
X0159006Y0032175D01*
X0158299Y0032689D01*
X0157521Y0033085D01*
X0156690Y0033355D01*
X0155827Y0033492D01*
X0155715Y0033492D01*
X0157708Y0032990D02*
X0205695Y0032990D01*
X0205695Y0031391D02*
X0159745Y0031391D01*
X0160625Y0029793D02*
X0206165Y0029793D01*
X0206943Y0028194D02*
X0155715Y0028194D01*
X0155065Y0028194D02*
X0136750Y0028194D01*
X0136750Y0026596D02*
X0149992Y0026596D01*
X0150156Y0029793D02*
X0136556Y0029793D01*
X0135894Y0031391D02*
X0151036Y0031391D01*
X0155065Y0031391D02*
X0155715Y0031391D01*
X0155715Y0029793D02*
X0155065Y0029793D01*
X0160789Y0026596D02*
X0208542Y0026596D01*
X0216649Y0026596D02*
X0217542Y0026596D01*
X0214043Y0039384D02*
X0158403Y0039384D01*
X0160543Y0040982D02*
X0176111Y0040982D01*
X0173898Y0042581D02*
X0173397Y0042581D01*
X0170784Y0042581D02*
X0170784Y0042581D01*
X0170784Y0044179D02*
X0170784Y0044179D01*
X0170784Y0045778D02*
X0170784Y0045778D01*
X0166570Y0044179D02*
X0162300Y0044179D01*
X0162340Y0045778D02*
X0165935Y0045778D01*
X0165864Y0047376D02*
X0162201Y0047376D01*
X0161638Y0042581D02*
X0168171Y0042581D01*
X0181205Y0040982D02*
X0183985Y0040982D01*
X0189079Y0040982D02*
X0191859Y0040982D01*
X0196953Y0040982D02*
X0211507Y0040982D01*
X0209582Y0042581D02*
X0199166Y0042581D01*
X0200193Y0044179D02*
X0207983Y0044179D01*
X0206385Y0045778D02*
X0200756Y0045778D01*
X0200756Y0047376D02*
X0204786Y0047376D01*
X0203188Y0048975D02*
X0200378Y0048975D01*
X0199613Y0050573D02*
X0201589Y0050573D01*
X0199991Y0052172D02*
X0198014Y0052172D01*
X0198392Y0053770D02*
X0177311Y0053770D01*
X0175713Y0055369D02*
X0196794Y0055369D01*
X0195195Y0056967D02*
X0115264Y0056967D01*
X0113666Y0058566D02*
X0193597Y0058566D01*
X0191998Y0060164D02*
X0112067Y0060164D01*
X0110468Y0061763D02*
X0133581Y0061763D01*
X0131983Y0063361D02*
X0131227Y0063361D01*
X0127795Y0063361D02*
X0127395Y0063361D01*
X0127395Y0064960D02*
X0127795Y0064960D01*
X0127795Y0066558D02*
X0127395Y0066558D01*
X0123963Y0063361D02*
X0121227Y0063361D01*
X0122595Y0064960D02*
X0122595Y0064960D01*
X0122595Y0066558D02*
X0122595Y0066558D01*
X0122595Y0068157D02*
X0122595Y0068157D01*
X0121711Y0069755D02*
X0123479Y0069755D01*
X0123990Y0071354D02*
X0121200Y0071354D01*
X0113990Y0071354D02*
X0111200Y0071354D01*
X0111711Y0069755D02*
X0113479Y0069755D01*
X0112595Y0068157D02*
X0112595Y0068157D01*
X0112595Y0066558D02*
X0112595Y0066558D01*
X0112595Y0064960D02*
X0112595Y0064960D01*
X0111227Y0063361D02*
X0113963Y0063361D01*
X0117395Y0063361D02*
X0117795Y0063361D01*
X0117795Y0064960D02*
X0117395Y0064960D01*
X0117395Y0066558D02*
X0117795Y0066558D01*
X0105690Y0055369D02*
X0096195Y0055369D01*
X0096195Y0056967D02*
X0104092Y0056967D01*
X0102493Y0058566D02*
X0096195Y0058566D01*
X0096195Y0060164D02*
X0100895Y0060164D01*
X0099296Y0061763D02*
X0096195Y0061763D01*
X0096195Y0063361D02*
X0098224Y0063361D01*
X0097995Y0064960D02*
X0096195Y0064960D01*
X0096195Y0066558D02*
X0097995Y0066558D01*
X0097995Y0068157D02*
X0096195Y0068157D01*
X0096195Y0069755D02*
X0098169Y0069755D01*
X0099163Y0071354D02*
X0096195Y0071354D01*
X0096195Y0072952D02*
X0100761Y0072952D01*
X0101195Y0074551D02*
X0096195Y0074551D01*
X0096195Y0076149D02*
X0101195Y0076149D01*
X0101195Y0077748D02*
X0096195Y0077748D01*
X0096195Y0079346D02*
X0101195Y0079346D01*
X0102689Y0080945D02*
X0096195Y0080945D01*
X0096195Y0082543D02*
X0104288Y0082543D01*
X0110903Y0082543D02*
X0113395Y0082543D01*
X0113395Y0084142D02*
X0096195Y0084142D01*
X0096195Y0085740D02*
X0113395Y0085740D01*
X0113395Y0087339D02*
X0096195Y0087339D01*
X0096195Y0088937D02*
X0113395Y0088937D01*
X0113395Y0090536D02*
X0096195Y0090536D01*
X0096195Y0092134D02*
X0113395Y0092134D01*
X0113395Y0093733D02*
X0096195Y0093733D01*
X0096195Y0095332D02*
X0113395Y0095332D01*
X0113395Y0096930D02*
X0096195Y0096930D01*
X0096195Y0098529D02*
X0113395Y0098529D01*
X0113395Y0100127D02*
X0096195Y0100127D01*
X0096195Y0101726D02*
X0113395Y0101726D01*
X0113395Y0103324D02*
X0096195Y0103324D01*
X0096195Y0104923D02*
X0113395Y0104923D01*
X0113395Y0106521D02*
X0096195Y0106521D01*
X0096195Y0108120D02*
X0113395Y0108120D01*
X0113395Y0109718D02*
X0096195Y0109718D01*
X0096195Y0111317D02*
X0113395Y0111317D01*
X0113395Y0112915D02*
X0096195Y0112915D01*
X0096195Y0114514D02*
X0113395Y0114514D01*
X0113395Y0116112D02*
X0096195Y0116112D01*
X0096195Y0117711D02*
X0113395Y0117711D01*
X0113395Y0119309D02*
X0096195Y0119309D01*
X0096195Y0120908D02*
X0113395Y0120908D01*
X0113395Y0122506D02*
X0096195Y0122506D01*
X0096195Y0124105D02*
X0113395Y0124105D01*
X0113395Y0125703D02*
X0096195Y0125703D01*
X0096195Y0127302D02*
X0113395Y0127302D01*
X0113395Y0128900D02*
X0096195Y0128900D01*
X0096195Y0130499D02*
X0113395Y0130499D01*
X0113395Y0132097D02*
X0096195Y0132097D01*
X0096195Y0133696D02*
X0113395Y0133696D01*
X0113395Y0135294D02*
X0096195Y0135294D01*
X0096195Y0136893D02*
X0113395Y0136893D01*
X0113395Y0138491D02*
X0096195Y0138491D01*
X0096195Y0140090D02*
X0113395Y0140090D01*
X0113395Y0141688D02*
X0096195Y0141688D01*
X0096195Y0143287D02*
X0113395Y0143287D01*
X0113395Y0144885D02*
X0096195Y0144885D01*
X0096195Y0146484D02*
X0113395Y0146484D01*
X0113395Y0148082D02*
X0096195Y0148082D01*
X0096195Y0149681D02*
X0113395Y0149681D01*
X0113395Y0151279D02*
X0096195Y0151279D01*
X0096195Y0152878D02*
X0113395Y0152878D01*
X0113395Y0154476D02*
X0096195Y0154476D01*
X0096195Y0156075D02*
X0113395Y0156075D01*
X0113386Y0157673D02*
X0096195Y0157673D01*
X0096195Y0159272D02*
X0111787Y0159272D01*
X0110189Y0160870D02*
X0096195Y0160870D01*
X0096195Y0162469D02*
X0108590Y0162469D01*
X0106991Y0164068D02*
X0096195Y0164068D01*
X0096195Y0165666D02*
X0105393Y0165666D01*
X0103794Y0167265D02*
X0096195Y0167265D01*
X0096195Y0168863D02*
X0102196Y0168863D01*
X0100597Y0170462D02*
X0096195Y0170462D01*
X0096195Y0172060D02*
X0098999Y0172060D01*
X0099708Y0171351D02*
X0099708Y0171351D01*
X0098101Y0173659D02*
X0096195Y0173659D01*
X0096195Y0175257D02*
X0097995Y0175257D01*
X0097995Y0176856D02*
X0096195Y0176856D01*
X0096195Y0178454D02*
X0097995Y0178454D01*
X0097995Y0180053D02*
X0096195Y0180053D01*
X0096195Y0181651D02*
X0097995Y0181651D01*
X0098477Y0183250D02*
X0096195Y0183250D01*
X0096195Y0184848D02*
X0099907Y0184848D01*
X0101195Y0186447D02*
X0096195Y0186447D01*
X0096195Y0188045D02*
X0101195Y0188045D01*
X0101388Y0189644D02*
X0096195Y0189644D01*
X0096195Y0191242D02*
X0102986Y0191242D01*
X0104585Y0192841D02*
X0096195Y0192841D01*
X0096195Y0194439D02*
X0139071Y0194439D01*
X0140050Y0196038D02*
X0096195Y0196038D01*
X0096195Y0197636D02*
X0141649Y0197636D01*
X0140549Y0196537D02*
X0140549Y0196537D01*
X0143247Y0199235D02*
X0096195Y0199235D01*
X0096195Y0200833D02*
X0144846Y0200833D01*
X0146444Y0202432D02*
X0096195Y0202432D01*
X0096195Y0204030D02*
X0148043Y0204030D01*
X0149641Y0205629D02*
X0096195Y0205629D01*
X0096195Y0207227D02*
X0151240Y0207227D01*
X0152838Y0208826D02*
X0113055Y0208826D01*
X0112976Y0208747D02*
X0115648Y0211419D01*
X0117094Y0214910D01*
X0117094Y0218690D01*
X0115648Y0222181D01*
X0112976Y0224853D01*
X0109485Y0226299D01*
X0105706Y0226299D01*
X0102214Y0224853D01*
X0099542Y0222181D01*
X0098096Y0218690D01*
X0098096Y0214910D01*
X0099542Y0211419D01*
X0102214Y0208747D01*
X0105706Y0207301D01*
X0109485Y0207301D01*
X0112976Y0208747D01*
X0114653Y0210424D02*
X0154437Y0210424D01*
X0156035Y0212023D02*
X0115898Y0212023D01*
X0116560Y0213621D02*
X0157634Y0213621D01*
X0159232Y0215220D02*
X0117094Y0215220D01*
X0117094Y0216818D02*
X0160831Y0216818D01*
X0160828Y0218417D02*
X0117094Y0218417D01*
X0116545Y0220015D02*
X0160166Y0220015D01*
X0159995Y0221614D02*
X0115883Y0221614D01*
X0114617Y0223212D02*
X0160012Y0223212D01*
X0160674Y0224811D02*
X0113018Y0224811D01*
X0102172Y0224811D02*
X0096195Y0224811D01*
X0096195Y0226409D02*
X0161747Y0226409D01*
X0163852Y0228008D02*
X0096195Y0228008D01*
X0096195Y0223212D02*
X0100574Y0223212D01*
X0099307Y0221614D02*
X0096195Y0221614D01*
X0096195Y0220015D02*
X0098645Y0220015D01*
X0098096Y0218417D02*
X0096195Y0218417D01*
X0096195Y0216818D02*
X0098096Y0216818D01*
X0098096Y0215220D02*
X0096195Y0215220D01*
X0096195Y0213621D02*
X0098630Y0213621D01*
X0099292Y0212023D02*
X0096195Y0212023D01*
X0096195Y0210424D02*
X0100537Y0210424D01*
X0102135Y0208826D02*
X0096195Y0208826D01*
X0110605Y0192841D02*
X0114585Y0192841D01*
X0112986Y0191242D02*
X0112204Y0191242D01*
X0112595Y0182749D02*
X0114534Y0180810D01*
X0112595Y0178871D01*
X0110656Y0180810D01*
X0112595Y0182749D01*
X0111497Y0181651D02*
X0113693Y0181651D01*
X0113777Y0180053D02*
X0111414Y0180053D01*
X0112595Y0178871D02*
X0112595Y0177000D01*
X0107795Y0177000D01*
X0107795Y0176600D01*
X0112595Y0176600D01*
X0112595Y0174729D01*
X0110049Y0172183D01*
X0120694Y0161537D01*
X0121295Y0160086D01*
X0121295Y0082151D01*
X0122595Y0080851D01*
X0124944Y0083200D01*
X0130246Y0083200D01*
X0132595Y0080851D01*
X0134944Y0083200D01*
X0140246Y0083200D01*
X0142595Y0080851D01*
X0144944Y0083200D01*
X0150246Y0083200D01*
X0152595Y0080851D01*
X0154944Y0083200D01*
X0160246Y0083200D01*
X0162595Y0080851D01*
X0164944Y0083200D01*
X0170246Y0083200D01*
X0172595Y0080851D01*
X0174944Y0083200D01*
X0180246Y0083200D01*
X0182595Y0080851D01*
X0184103Y0082359D01*
X0139508Y0126954D01*
X0138945Y0128314D01*
X0138945Y0170400D01*
X0134944Y0170400D01*
X0131605Y0173739D01*
X0129666Y0171800D01*
X0127795Y0171800D01*
X0127795Y0176600D01*
X0127395Y0176600D01*
X0122595Y0176600D01*
X0117795Y0176600D01*
X0117795Y0171800D01*
X0119666Y0171800D01*
X0122595Y0174729D01*
X0122595Y0176600D01*
X0122595Y0174729D01*
X0125524Y0171800D01*
X0127395Y0171800D01*
X0127395Y0176600D01*
X0127395Y0177000D01*
X0122595Y0177000D01*
X0122595Y0178871D01*
X0120656Y0180810D01*
X0122595Y0182749D01*
X0124534Y0180810D01*
X0122595Y0178871D01*
X0122595Y0177000D01*
X0117795Y0177000D01*
X0117795Y0176600D01*
X0117395Y0176600D01*
X0112595Y0176600D01*
X0112595Y0174729D01*
X0115524Y0171800D01*
X0117395Y0171800D01*
X0117395Y0176600D01*
X0117395Y0177000D01*
X0112595Y0177000D01*
X0112595Y0178871D01*
X0112595Y0178454D02*
X0112595Y0178454D01*
X0112595Y0175257D02*
X0112595Y0175257D01*
X0111525Y0173659D02*
X0113666Y0173659D01*
X0115264Y0172060D02*
X0110171Y0172060D01*
X0111770Y0170462D02*
X0134883Y0170462D01*
X0133284Y0172060D02*
X0129926Y0172060D01*
X0127795Y0172060D02*
X0127395Y0172060D01*
X0127395Y0173659D02*
X0127795Y0173659D01*
X0127795Y0175257D02*
X0127395Y0175257D01*
X0127395Y0176856D02*
X0117795Y0176856D01*
X0117395Y0176856D02*
X0107795Y0176856D01*
X0117395Y0175257D02*
X0117795Y0175257D01*
X0117795Y0173659D02*
X0117395Y0173659D01*
X0117395Y0172060D02*
X0117795Y0172060D01*
X0119926Y0172060D02*
X0125264Y0172060D01*
X0123666Y0173659D02*
X0121525Y0173659D01*
X0122595Y0175257D02*
X0122595Y0175257D01*
X0122595Y0178454D02*
X0122595Y0178454D01*
X0121414Y0180053D02*
X0123777Y0180053D01*
X0123693Y0181651D02*
X0121497Y0181651D01*
X0131525Y0173659D02*
X0131686Y0173659D01*
X0138945Y0168863D02*
X0113368Y0168863D01*
X0114967Y0167265D02*
X0138945Y0167265D01*
X0138945Y0165666D02*
X0116565Y0165666D01*
X0118164Y0164068D02*
X0138945Y0164068D01*
X0138945Y0162469D02*
X0119762Y0162469D01*
X0120970Y0160870D02*
X0138945Y0160870D01*
X0138945Y0159272D02*
X0121295Y0159272D01*
X0121295Y0157673D02*
X0138945Y0157673D01*
X0138945Y0156075D02*
X0121295Y0156075D01*
X0121295Y0154476D02*
X0138945Y0154476D01*
X0138945Y0152878D02*
X0121295Y0152878D01*
X0121295Y0151279D02*
X0138945Y0151279D01*
X0138945Y0149681D02*
X0121295Y0149681D01*
X0121295Y0148082D02*
X0138945Y0148082D01*
X0138945Y0146484D02*
X0121295Y0146484D01*
X0121295Y0144885D02*
X0138945Y0144885D01*
X0138945Y0143287D02*
X0121295Y0143287D01*
X0121295Y0141688D02*
X0138945Y0141688D01*
X0138945Y0140090D02*
X0121295Y0140090D01*
X0121295Y0138491D02*
X0138945Y0138491D01*
X0138945Y0136893D02*
X0121295Y0136893D01*
X0121295Y0135294D02*
X0138945Y0135294D01*
X0138945Y0133696D02*
X0121295Y0133696D01*
X0121295Y0132097D02*
X0138945Y0132097D01*
X0138945Y0130499D02*
X0121295Y0130499D01*
X0121295Y0128900D02*
X0138945Y0128900D01*
X0139364Y0127302D02*
X0121295Y0127302D01*
X0121295Y0125703D02*
X0140759Y0125703D01*
X0142358Y0124105D02*
X0121295Y0124105D01*
X0121295Y0122506D02*
X0143956Y0122506D01*
X0145555Y0120908D02*
X0121295Y0120908D01*
X0121295Y0119309D02*
X0147153Y0119309D01*
X0148752Y0117711D02*
X0121295Y0117711D01*
X0121295Y0116112D02*
X0150350Y0116112D01*
X0151949Y0114514D02*
X0121295Y0114514D01*
X0121295Y0112915D02*
X0153547Y0112915D01*
X0155146Y0111317D02*
X0121295Y0111317D01*
X0121295Y0109718D02*
X0156744Y0109718D01*
X0158343Y0108120D02*
X0121295Y0108120D01*
X0121295Y0106521D02*
X0159941Y0106521D01*
X0161540Y0104923D02*
X0121295Y0104923D01*
X0121295Y0103324D02*
X0163138Y0103324D01*
X0164737Y0101726D02*
X0121295Y0101726D01*
X0121295Y0100127D02*
X0166335Y0100127D01*
X0167934Y0098529D02*
X0121295Y0098529D01*
X0121295Y0096930D02*
X0169533Y0096930D01*
X0171131Y0095332D02*
X0121295Y0095332D01*
X0121295Y0093733D02*
X0172730Y0093733D01*
X0174328Y0092134D02*
X0121295Y0092134D01*
X0121295Y0090536D02*
X0175927Y0090536D01*
X0177525Y0088937D02*
X0121295Y0088937D01*
X0121295Y0087339D02*
X0179124Y0087339D01*
X0180722Y0085740D02*
X0121295Y0085740D01*
X0121295Y0084142D02*
X0182321Y0084142D01*
X0180903Y0082543D02*
X0183919Y0082543D01*
X0182689Y0080945D02*
X0182501Y0080945D01*
X0174288Y0082543D02*
X0170903Y0082543D01*
X0172501Y0080945D02*
X0172689Y0080945D01*
X0164288Y0082543D02*
X0160903Y0082543D01*
X0162501Y0080945D02*
X0162689Y0080945D01*
X0154288Y0082543D02*
X0150903Y0082543D01*
X0152501Y0080945D02*
X0152689Y0080945D01*
X0144288Y0082543D02*
X0140903Y0082543D01*
X0142501Y0080945D02*
X0142689Y0080945D01*
X0134288Y0082543D02*
X0130903Y0082543D01*
X0132501Y0080945D02*
X0132689Y0080945D01*
X0124288Y0082543D02*
X0121295Y0082543D01*
X0122501Y0080945D02*
X0122689Y0080945D01*
X0112689Y0080945D02*
X0112501Y0080945D01*
X0141609Y0061763D02*
X0143581Y0061763D01*
X0151609Y0061763D02*
X0153581Y0061763D01*
X0161609Y0061763D02*
X0163581Y0061763D01*
X0171609Y0061763D02*
X0173581Y0061763D01*
X0181609Y0061763D02*
X0183581Y0061763D01*
X0182924Y0052172D02*
X0182266Y0052172D01*
X0190140Y0052172D02*
X0190798Y0052172D01*
X0208322Y0037785D02*
X0117094Y0037785D01*
X0116807Y0039384D02*
X0124049Y0039384D01*
X0122970Y0040982D02*
X0116145Y0040982D01*
X0115248Y0042581D02*
X0122850Y0042581D01*
X0122850Y0044179D02*
X0113650Y0044179D01*
X0110744Y0045778D02*
X0122850Y0045778D01*
X0122850Y0047376D02*
X0096195Y0047376D01*
X0096195Y0045778D02*
X0104447Y0045778D01*
X0101540Y0044179D02*
X0096195Y0044179D01*
X0096195Y0042581D02*
X0099942Y0042581D01*
X0099046Y0040982D02*
X0096195Y0040982D01*
X0096195Y0039384D02*
X0098383Y0039384D01*
X0098096Y0037785D02*
X0096195Y0037785D01*
X0096195Y0036187D02*
X0098096Y0036187D01*
X0098229Y0034588D02*
X0096195Y0034588D01*
X0096195Y0032990D02*
X0098892Y0032990D01*
X0099570Y0031391D02*
X0096195Y0031391D01*
X0096195Y0029793D02*
X0101169Y0029793D01*
X0103549Y0028194D02*
X0096195Y0028194D01*
X0096195Y0048975D02*
X0112084Y0048975D01*
X0110486Y0050573D02*
X0096195Y0050573D01*
X0096195Y0052172D02*
X0108887Y0052172D01*
X0107289Y0053770D02*
X0096195Y0053770D01*
X0136750Y0047376D02*
X0148579Y0047376D01*
X0148440Y0045778D02*
X0136750Y0045778D01*
X0136750Y0044179D02*
X0148480Y0044179D01*
X0149143Y0042581D02*
X0136750Y0042581D01*
X0136630Y0040982D02*
X0150238Y0040982D01*
X0152377Y0039384D02*
X0135551Y0039384D01*
X0238831Y0040650D02*
X0264044Y0040650D01*
X0264187Y0040304D01*
X0265650Y0038842D01*
X0267561Y0038050D01*
X0268587Y0038050D01*
X0266746Y0036209D01*
X0266370Y0035303D01*
X0266178Y0035495D01*
X0265478Y0036004D01*
X0264706Y0036397D01*
X0263883Y0036665D01*
X0263028Y0036800D01*
X0262795Y0036800D01*
X0262795Y0031500D01*
X0262395Y0031500D01*
X0262395Y0036800D01*
X0262162Y0036800D01*
X0261307Y0036665D01*
X0260484Y0036397D01*
X0259712Y0036004D01*
X0259012Y0035495D01*
X0258400Y0034883D01*
X0257891Y0034183D01*
X0257815Y0034033D01*
X0257692Y0034411D01*
X0257299Y0035183D01*
X0256790Y0035883D01*
X0256178Y0036495D01*
X0255478Y0037004D01*
X0254706Y0037397D01*
X0253883Y0037665D01*
X0253028Y0037800D01*
X0252795Y0037800D01*
X0252795Y0032500D01*
X0252395Y0032500D01*
X0252395Y0037800D01*
X0252162Y0037800D01*
X0251307Y0037665D01*
X0250484Y0037397D01*
X0249712Y0037004D01*
X0249012Y0036495D01*
X0248400Y0035883D01*
X0248135Y0035518D01*
X0246504Y0037150D01*
X0243968Y0038200D01*
X0241281Y0038200D01*
X0238944Y0040537D01*
X0238831Y0040650D01*
X0240098Y0039384D02*
X0265108Y0039384D01*
X0265119Y0036187D02*
X0266737Y0036187D01*
X0268322Y0037785D02*
X0253122Y0037785D01*
X0252795Y0037785D02*
X0252395Y0037785D01*
X0252068Y0037785D02*
X0244969Y0037785D01*
X0247467Y0036187D02*
X0248704Y0036187D01*
X0252395Y0036187D02*
X0252795Y0036187D01*
X0252795Y0034588D02*
X0252395Y0034588D01*
X0252395Y0032990D02*
X0252795Y0032990D01*
X0252795Y0032100D02*
X0252795Y0026800D01*
X0253028Y0026800D01*
X0253883Y0026935D01*
X0254706Y0027203D01*
X0255478Y0027596D01*
X0256178Y0028105D01*
X0256790Y0028717D01*
X0257299Y0029417D01*
X0257375Y0029567D01*
X0257498Y0029189D01*
X0257891Y0028417D01*
X0258400Y0027717D01*
X0259012Y0027105D01*
X0259712Y0026596D01*
X0260484Y0026203D01*
X0261307Y0025935D01*
X0262162Y0025800D01*
X0262395Y0025800D01*
X0262395Y0031100D01*
X0262795Y0031100D01*
X0262795Y0025800D01*
X0263028Y0025800D01*
X0263883Y0025935D01*
X0264706Y0026203D01*
X0265478Y0026596D01*
X0266178Y0027105D01*
X0266790Y0027717D01*
X0267055Y0028082D01*
X0268687Y0026450D01*
X0271223Y0025400D01*
X0273968Y0025400D01*
X0276504Y0026450D01*
X0278445Y0028391D01*
X0279495Y0030927D01*
X0279495Y0032617D01*
X0283045Y0029067D01*
X0283045Y0027114D01*
X0283608Y0025754D01*
X0283963Y0025400D01*
X0246382Y0025400D01*
X0246504Y0025450D01*
X0248445Y0027391D01*
X0248820Y0028297D01*
X0249012Y0028105D01*
X0249712Y0027596D01*
X0250484Y0027203D01*
X0251307Y0026935D01*
X0252162Y0026800D01*
X0252395Y0026800D01*
X0252395Y0032100D01*
X0252795Y0032100D01*
X0252795Y0031391D02*
X0252395Y0031391D01*
X0252395Y0029793D02*
X0252795Y0029793D01*
X0252795Y0028194D02*
X0252395Y0028194D01*
X0248923Y0028194D02*
X0248777Y0028194D01*
X0247649Y0026596D02*
X0259713Y0026596D01*
X0258053Y0028194D02*
X0256267Y0028194D01*
X0262395Y0028194D02*
X0262795Y0028194D01*
X0262795Y0026596D02*
X0262395Y0026596D01*
X0265477Y0026596D02*
X0268542Y0026596D01*
X0262795Y0029793D02*
X0262395Y0029793D01*
X0262395Y0032990D02*
X0262795Y0032990D01*
X0262795Y0034588D02*
X0262395Y0034588D01*
X0262395Y0036187D02*
X0262795Y0036187D01*
X0260071Y0036187D02*
X0256487Y0036187D01*
X0257602Y0034588D02*
X0258186Y0034588D01*
X0276649Y0026596D02*
X0283260Y0026596D01*
X0283045Y0028194D02*
X0278247Y0028194D01*
X0279025Y0029793D02*
X0282320Y0029793D01*
X0280721Y0031391D02*
X0279495Y0031391D01*
X0353145Y0045883D02*
X0353145Y0078600D01*
X0397021Y0078600D01*
X0395990Y0076111D01*
X0395990Y0072489D01*
X0397376Y0069142D01*
X0399937Y0066581D01*
X0403284Y0065194D01*
X0406906Y0065194D01*
X0410253Y0066581D01*
X0412814Y0069142D01*
X0414201Y0072489D01*
X0414201Y0076111D01*
X0413170Y0078600D01*
X0415732Y0078600D01*
X0416908Y0079087D01*
X0417808Y0079987D01*
X0418295Y0081163D01*
X0418295Y0111294D01*
X0419491Y0110098D01*
X0422113Y0108584D01*
X0425038Y0107801D01*
X0428066Y0107801D01*
X0430990Y0108584D01*
X0433613Y0110098D01*
X0435753Y0112239D01*
X0437267Y0114861D01*
X0438051Y0117786D01*
X0438051Y0120814D01*
X0437267Y0123739D01*
X0435753Y0126361D01*
X0433994Y0128120D01*
X0436362Y0127486D01*
X0439183Y0127486D01*
X0441907Y0128216D01*
X0444350Y0129626D01*
X0446344Y0131620D01*
X0447754Y0134063D01*
X0448484Y0136787D01*
X0448484Y0139608D01*
X0447754Y0142332D01*
X0446344Y0144775D01*
X0444350Y0146769D01*
X0441907Y0148179D01*
X0439183Y0148909D01*
X0436362Y0148909D01*
X0433638Y0148179D01*
X0431195Y0146769D01*
X0429201Y0144775D01*
X0427790Y0142332D01*
X0427060Y0139608D01*
X0427060Y0136787D01*
X0427790Y0134063D01*
X0429201Y0131620D01*
X0430738Y0130083D01*
X0428066Y0130799D01*
X0425038Y0130799D01*
X0422113Y0130016D01*
X0419491Y0128502D01*
X0418295Y0127306D01*
X0418295Y0172437D01*
X0417808Y0173613D01*
X0416908Y0174513D01*
X0415732Y0175000D01*
X0413170Y0175000D01*
X0414201Y0177489D01*
X0414201Y0181111D01*
X0412814Y0184458D01*
X0410253Y0187019D01*
X0406906Y0188405D01*
X0403284Y0188405D01*
X0399937Y0187019D01*
X0397376Y0184458D01*
X0395990Y0181111D01*
X0395990Y0177489D01*
X0397021Y0175000D01*
X0349459Y0175000D01*
X0348282Y0174513D01*
X0347382Y0173613D01*
X0346895Y0172437D01*
X0346895Y0093933D01*
X0301495Y0139333D01*
X0301495Y0144451D01*
X0299146Y0146800D01*
X0301495Y0149149D01*
X0301495Y0154451D01*
X0298156Y0157790D01*
X0300095Y0159729D01*
X0300095Y0161600D01*
X0295295Y0161600D01*
X0295295Y0162000D01*
X0295295Y0165400D01*
X0294895Y0165400D01*
X0294895Y0162000D01*
X0294895Y0161600D01*
X0290095Y0161600D01*
X0290095Y0159729D01*
X0292034Y0157790D01*
X0291936Y0157692D01*
X0278941Y0170687D01*
X0278807Y0170742D01*
X0277591Y0171958D01*
X0275679Y0172750D01*
X0273611Y0172750D01*
X0271700Y0171958D01*
X0271443Y0171702D01*
X0270803Y0173246D01*
X0269341Y0174708D01*
X0267429Y0175500D01*
X0265361Y0175500D01*
X0263450Y0174708D01*
X0261987Y0173246D01*
X0261195Y0171334D01*
X0261195Y0169266D01*
X0261987Y0167354D01*
X0263450Y0165892D01*
X0265361Y0165100D01*
X0266363Y0165100D01*
X0288695Y0142767D01*
X0288695Y0140450D01*
X0271228Y0140450D01*
X0271031Y0140647D01*
X0271560Y0140866D01*
X0273529Y0142835D01*
X0274595Y0145408D01*
X0274595Y0148192D01*
X0273529Y0150765D01*
X0271560Y0152734D01*
X0268988Y0153800D01*
X0266203Y0153800D01*
X0263630Y0152734D01*
X0261661Y0150765D01*
X0261442Y0150236D01*
X0240762Y0170916D01*
X0243585Y0173739D01*
X0245524Y0171800D01*
X0247395Y0171800D01*
X0247395Y0176600D01*
X0247795Y0176600D01*
X0247795Y0171800D01*
X0249666Y0171800D01*
X0252595Y0174729D01*
X0252595Y0176600D01*
X0247795Y0176600D01*
X0247795Y0177000D01*
X0252595Y0177000D01*
X0252595Y0178150D01*
X0255581Y0178150D01*
X0256941Y0178713D01*
X0261486Y0183258D01*
X0261661Y0182835D01*
X0263630Y0180866D01*
X0266203Y0179800D01*
X0268988Y0179800D01*
X0269321Y0179938D01*
X0270758Y0178501D01*
X0272209Y0177900D01*
X0289944Y0177900D01*
X0291044Y0176800D01*
X0288695Y0174451D01*
X0288695Y0169149D01*
X0292034Y0165810D01*
X0290095Y0163871D01*
X0290095Y0162000D01*
X0294895Y0162000D01*
X0295295Y0162000D01*
X0300095Y0162000D01*
X0300095Y0163871D01*
X0298156Y0165810D01*
X0301495Y0169149D01*
X0301495Y0174451D01*
X0299146Y0176800D01*
X0301495Y0179149D01*
X0301495Y0184451D01*
X0297746Y0188200D01*
X0292444Y0188200D01*
X0290044Y0185800D01*
X0274631Y0185800D01*
X0274595Y0185836D01*
X0274595Y0188192D01*
X0274426Y0188600D01*
X0456263Y0188600D01*
X0460963Y0183900D01*
X0457595Y0183900D01*
X0449558Y0183900D01*
X0449100Y0183777D01*
X0448690Y0183540D01*
X0448355Y0183205D01*
X0448118Y0182795D01*
X0447995Y0182337D01*
X0447995Y0174300D01*
X0447995Y0166263D01*
X0448118Y0165805D01*
X0448355Y0165395D01*
X0448690Y0165060D01*
X0449100Y0164823D01*
X0449558Y0164700D01*
X0457595Y0164700D01*
X0457595Y0174300D01*
X0457595Y0174300D01*
X0447995Y0174300D01*
X0457595Y0174300D01*
X0457595Y0183900D01*
X0457595Y0174300D01*
X0457595Y0174300D01*
X0457595Y0174300D01*
X0457595Y0164700D01*
X0463445Y0164700D01*
X0463445Y0155814D01*
X0462948Y0156311D01*
X0459475Y0157750D01*
X0455715Y0157750D01*
X0452242Y0156311D01*
X0449584Y0153653D01*
X0448145Y0150180D01*
X0448145Y0146420D01*
X0449584Y0142947D01*
X0452242Y0140289D01*
X0455715Y0138850D01*
X0459475Y0138850D01*
X0462948Y0140289D01*
X0463445Y0140786D01*
X0463445Y0076683D01*
X0457899Y0071137D01*
X0456858Y0070096D01*
X0456516Y0069268D01*
X0455279Y0069268D01*
X0455279Y0064484D01*
X0454911Y0064484D01*
X0454911Y0069268D01*
X0451690Y0069268D01*
X0451232Y0069146D01*
X0451071Y0069053D01*
X0450976Y0069281D01*
X0450076Y0070181D01*
X0448900Y0070668D01*
X0441290Y0070668D01*
X0440114Y0070181D01*
X0439214Y0069281D01*
X0438727Y0068105D01*
X0438727Y0060495D01*
X0439214Y0059319D01*
X0440114Y0058419D01*
X0441290Y0057931D01*
X0448900Y0057931D01*
X0450076Y0058419D01*
X0450976Y0059319D01*
X0451071Y0059547D01*
X0451232Y0059454D01*
X0451690Y0059331D01*
X0454911Y0059331D01*
X0454911Y0064116D01*
X0455279Y0064116D01*
X0455279Y0059331D01*
X0456295Y0059331D01*
X0456295Y0040383D01*
X0454070Y0038158D01*
X0453968Y0038200D01*
X0451223Y0038200D01*
X0448687Y0037150D01*
X0448095Y0036558D01*
X0446504Y0038150D01*
X0443968Y0039200D01*
X0441223Y0039200D01*
X0438687Y0038150D01*
X0437095Y0036558D01*
X0436504Y0037150D01*
X0433968Y0038200D01*
X0431223Y0038200D01*
X0428687Y0037150D01*
X0428095Y0036558D01*
X0426504Y0038150D01*
X0423968Y0039200D01*
X0421223Y0039200D01*
X0418687Y0038150D01*
X0417095Y0036558D01*
X0416504Y0037150D01*
X0413968Y0038200D01*
X0411223Y0038200D01*
X0408687Y0037150D01*
X0408095Y0036558D01*
X0406504Y0038150D01*
X0403968Y0039200D01*
X0401223Y0039200D01*
X0398687Y0038150D01*
X0397095Y0036558D01*
X0396504Y0037150D01*
X0393968Y0038200D01*
X0391223Y0038200D01*
X0389195Y0037360D01*
X0389008Y0037813D01*
X0388108Y0038713D01*
X0386932Y0039200D01*
X0378259Y0039200D01*
X0377082Y0038713D01*
X0376182Y0037813D01*
X0375695Y0036637D01*
X0375695Y0029350D01*
X0369256Y0029350D01*
X0369495Y0029927D01*
X0369495Y0032672D01*
X0368445Y0035209D01*
X0366504Y0037150D01*
X0363968Y0038200D01*
X0361223Y0038200D01*
X0360943Y0038084D01*
X0353145Y0045883D01*
X0353250Y0045778D02*
X0456295Y0045778D01*
X0456295Y0047376D02*
X0353145Y0047376D01*
X0353145Y0048975D02*
X0456295Y0048975D01*
X0456295Y0050573D02*
X0415854Y0050573D01*
X0416560Y0050866D02*
X0413988Y0049800D01*
X0411203Y0049800D01*
X0408630Y0050866D01*
X0406661Y0052835D01*
X0405595Y0055408D01*
X0405595Y0058192D01*
X0406661Y0060765D01*
X0408630Y0062734D01*
X0411203Y0063800D01*
X0413988Y0063800D01*
X0416560Y0062734D01*
X0418529Y0060765D01*
X0419595Y0058192D01*
X0419595Y0055408D01*
X0418529Y0052835D01*
X0416560Y0050866D01*
X0417866Y0052172D02*
X0456295Y0052172D01*
X0456295Y0053770D02*
X0418917Y0053770D01*
X0419579Y0055369D02*
X0456295Y0055369D01*
X0456295Y0056967D02*
X0419595Y0056967D01*
X0419440Y0058566D02*
X0439967Y0058566D01*
X0438864Y0060164D02*
X0418778Y0060164D01*
X0417532Y0061763D02*
X0438727Y0061763D01*
X0438727Y0063361D02*
X0415047Y0063361D01*
X0410144Y0063361D02*
X0375047Y0063361D01*
X0373988Y0063800D02*
X0371203Y0063800D01*
X0368630Y0062734D01*
X0366661Y0060765D01*
X0365595Y0058192D01*
X0365595Y0055408D01*
X0366661Y0052835D01*
X0368630Y0050866D01*
X0371203Y0049800D01*
X0373988Y0049800D01*
X0376560Y0050866D01*
X0378529Y0052835D01*
X0379595Y0055408D01*
X0379595Y0058192D01*
X0378529Y0060765D01*
X0376560Y0062734D01*
X0373988Y0063800D01*
X0370144Y0063361D02*
X0353145Y0063361D01*
X0353145Y0061763D02*
X0367658Y0061763D01*
X0366412Y0060164D02*
X0353145Y0060164D01*
X0353145Y0058566D02*
X0365750Y0058566D01*
X0365595Y0056967D02*
X0353145Y0056967D01*
X0353145Y0055369D02*
X0365611Y0055369D01*
X0366273Y0053770D02*
X0353145Y0053770D01*
X0353145Y0052172D02*
X0367324Y0052172D01*
X0369336Y0050573D02*
X0353145Y0050573D01*
X0354849Y0044179D02*
X0456295Y0044179D01*
X0456295Y0042581D02*
X0356447Y0042581D01*
X0358046Y0040982D02*
X0456295Y0040982D01*
X0455296Y0039384D02*
X0359644Y0039384D01*
X0364969Y0037785D02*
X0376171Y0037785D01*
X0375695Y0036187D02*
X0367467Y0036187D01*
X0368702Y0034588D02*
X0375695Y0034588D01*
X0375695Y0032990D02*
X0369364Y0032990D01*
X0369495Y0031391D02*
X0375695Y0031391D01*
X0375695Y0029793D02*
X0369439Y0029793D01*
X0389019Y0037785D02*
X0390221Y0037785D01*
X0394969Y0037785D02*
X0398322Y0037785D01*
X0406868Y0037785D02*
X0410221Y0037785D01*
X0414969Y0037785D02*
X0418322Y0037785D01*
X0426868Y0037785D02*
X0430221Y0037785D01*
X0434969Y0037785D02*
X0438322Y0037785D01*
X0446868Y0037785D02*
X0450221Y0037785D01*
X0450223Y0058566D02*
X0456295Y0058566D01*
X0455279Y0060164D02*
X0454911Y0060164D01*
X0454911Y0061763D02*
X0455279Y0061763D01*
X0455279Y0063361D02*
X0454911Y0063361D01*
X0454911Y0064960D02*
X0455279Y0064960D01*
X0455279Y0066558D02*
X0454911Y0066558D01*
X0454911Y0068157D02*
X0455279Y0068157D01*
X0456717Y0069755D02*
X0450502Y0069755D01*
X0458116Y0071354D02*
X0413731Y0071354D01*
X0414201Y0072952D02*
X0459715Y0072952D01*
X0461313Y0074551D02*
X0414201Y0074551D01*
X0414185Y0076149D02*
X0462912Y0076149D01*
X0463445Y0077748D02*
X0413523Y0077748D01*
X0417167Y0079346D02*
X0463445Y0079346D01*
X0463445Y0080945D02*
X0418205Y0080945D01*
X0418295Y0082543D02*
X0463445Y0082543D01*
X0463445Y0084142D02*
X0418295Y0084142D01*
X0418295Y0085740D02*
X0463445Y0085740D01*
X0463445Y0087339D02*
X0418295Y0087339D01*
X0418295Y0088937D02*
X0463445Y0088937D01*
X0463445Y0090536D02*
X0418295Y0090536D01*
X0418295Y0092134D02*
X0463445Y0092134D01*
X0463445Y0093733D02*
X0418295Y0093733D01*
X0418295Y0095332D02*
X0463445Y0095332D01*
X0463445Y0096930D02*
X0418295Y0096930D01*
X0418295Y0098529D02*
X0463445Y0098529D01*
X0463445Y0100127D02*
X0418295Y0100127D01*
X0418295Y0101726D02*
X0463445Y0101726D01*
X0463445Y0103324D02*
X0418295Y0103324D01*
X0418295Y0104923D02*
X0463445Y0104923D01*
X0463445Y0106521D02*
X0418295Y0106521D01*
X0418295Y0108120D02*
X0423848Y0108120D01*
X0420150Y0109718D02*
X0418295Y0109718D01*
X0429256Y0108120D02*
X0463445Y0108120D01*
X0463445Y0109718D02*
X0432954Y0109718D01*
X0434831Y0111317D02*
X0446361Y0111317D01*
X0446647Y0111137D02*
X0447589Y0110683D01*
X0448576Y0110338D01*
X0449596Y0110105D01*
X0450358Y0110019D01*
X0450358Y0118500D01*
X0441878Y0118500D01*
X0441963Y0117738D01*
X0442196Y0116718D01*
X0442542Y0115731D01*
X0442995Y0114789D01*
X0443552Y0113903D01*
X0444204Y0113085D01*
X0444943Y0112346D01*
X0445761Y0111694D01*
X0446647Y0111137D01*
X0444374Y0112915D02*
X0436144Y0112915D01*
X0437067Y0114514D02*
X0443168Y0114514D01*
X0442408Y0116112D02*
X0437602Y0116112D01*
X0438031Y0117711D02*
X0441970Y0117711D01*
X0441878Y0120100D02*
X0450358Y0120100D01*
X0450358Y0118500D01*
X0451958Y0118500D01*
X0451958Y0110019D01*
X0452720Y0110105D01*
X0453740Y0110338D01*
X0454727Y0110683D01*
X0455670Y0111137D01*
X0456555Y0111694D01*
X0457373Y0112346D01*
X0458112Y0113085D01*
X0458764Y0113903D01*
X0459321Y0114789D01*
X0459775Y0115731D01*
X0460120Y0116718D01*
X0460353Y0117738D01*
X0460439Y0118500D01*
X0451958Y0118500D01*
X0451958Y0120100D01*
X0450358Y0120100D01*
X0450358Y0128581D01*
X0449596Y0128495D01*
X0448576Y0128262D01*
X0447589Y0127917D01*
X0446647Y0127463D01*
X0445761Y0126906D01*
X0444943Y0126254D01*
X0444204Y0125515D01*
X0443552Y0124697D01*
X0442995Y0123811D01*
X0442542Y0122869D01*
X0442196Y0121882D01*
X0441963Y0120862D01*
X0441878Y0120100D01*
X0441974Y0120908D02*
X0438026Y0120908D01*
X0438051Y0119309D02*
X0450358Y0119309D01*
X0450358Y0117711D02*
X0451958Y0117711D01*
X0451958Y0119309D02*
X0463445Y0119309D01*
X0463445Y0117711D02*
X0460347Y0117711D01*
X0459908Y0116112D02*
X0463445Y0116112D01*
X0463445Y0114514D02*
X0459148Y0114514D01*
X0457942Y0112915D02*
X0463445Y0112915D01*
X0463445Y0111317D02*
X0455955Y0111317D01*
X0451958Y0111317D02*
X0450358Y0111317D01*
X0450358Y0112915D02*
X0451958Y0112915D01*
X0451958Y0114514D02*
X0450358Y0114514D01*
X0450358Y0116112D02*
X0451958Y0116112D01*
X0451958Y0120100D02*
X0460439Y0120100D01*
X0460353Y0120862D01*
X0460120Y0121882D01*
X0459775Y0122869D01*
X0459321Y0123811D01*
X0458764Y0124697D01*
X0458112Y0125515D01*
X0457373Y0126254D01*
X0456555Y0126906D01*
X0455670Y0127463D01*
X0454727Y0127917D01*
X0453740Y0128262D01*
X0452720Y0128495D01*
X0451958Y0128581D01*
X0451958Y0120100D01*
X0451958Y0120908D02*
X0450358Y0120908D01*
X0450358Y0122506D02*
X0451958Y0122506D01*
X0451958Y0124105D02*
X0450358Y0124105D01*
X0450358Y0125703D02*
X0451958Y0125703D01*
X0451958Y0127302D02*
X0450358Y0127302D01*
X0446391Y0127302D02*
X0434812Y0127302D01*
X0436133Y0125703D02*
X0444392Y0125703D01*
X0443180Y0124105D02*
X0437056Y0124105D01*
X0437598Y0122506D02*
X0442415Y0122506D01*
X0443092Y0128900D02*
X0463445Y0128900D01*
X0463445Y0127302D02*
X0455926Y0127302D01*
X0457924Y0125703D02*
X0463445Y0125703D01*
X0463445Y0124105D02*
X0459137Y0124105D01*
X0459902Y0122506D02*
X0463445Y0122506D01*
X0463445Y0120908D02*
X0460342Y0120908D01*
X0463445Y0130499D02*
X0445222Y0130499D01*
X0446619Y0132097D02*
X0463445Y0132097D01*
X0463445Y0133696D02*
X0447542Y0133696D01*
X0448084Y0135294D02*
X0463445Y0135294D01*
X0463445Y0136893D02*
X0448484Y0136893D01*
X0448484Y0138491D02*
X0463445Y0138491D01*
X0463445Y0140090D02*
X0462468Y0140090D01*
X0452722Y0140090D02*
X0448355Y0140090D01*
X0447927Y0141688D02*
X0450842Y0141688D01*
X0449443Y0143287D02*
X0447203Y0143287D01*
X0446233Y0144885D02*
X0448781Y0144885D01*
X0448145Y0146484D02*
X0444635Y0146484D01*
X0442075Y0148082D02*
X0448145Y0148082D01*
X0448145Y0149681D02*
X0418295Y0149681D01*
X0418295Y0151279D02*
X0448601Y0151279D01*
X0449263Y0152878D02*
X0418295Y0152878D01*
X0418295Y0154476D02*
X0450407Y0154476D01*
X0452006Y0156075D02*
X0418295Y0156075D01*
X0418295Y0157673D02*
X0455531Y0157673D01*
X0459660Y0157673D02*
X0463445Y0157673D01*
X0463445Y0156075D02*
X0463184Y0156075D01*
X0463445Y0159272D02*
X0418295Y0159272D01*
X0418295Y0160870D02*
X0463445Y0160870D01*
X0463445Y0162469D02*
X0418295Y0162469D01*
X0418295Y0164068D02*
X0463445Y0164068D01*
X0457595Y0165666D02*
X0457595Y0165666D01*
X0457595Y0167265D02*
X0457595Y0167265D01*
X0457595Y0168863D02*
X0457595Y0168863D01*
X0457595Y0170462D02*
X0457595Y0170462D01*
X0457595Y0172060D02*
X0457595Y0172060D01*
X0457595Y0173659D02*
X0457595Y0173659D01*
X0457595Y0175257D02*
X0457595Y0175257D01*
X0457595Y0176856D02*
X0457595Y0176856D01*
X0457595Y0178454D02*
X0457595Y0178454D01*
X0457595Y0180053D02*
X0457595Y0180053D01*
X0457595Y0181651D02*
X0457595Y0181651D01*
X0457595Y0183250D02*
X0457595Y0183250D01*
X0460014Y0184848D02*
X0412424Y0184848D01*
X0413315Y0183250D02*
X0448399Y0183250D01*
X0447995Y0181651D02*
X0413977Y0181651D01*
X0414201Y0180053D02*
X0447995Y0180053D01*
X0447995Y0178454D02*
X0414201Y0178454D01*
X0413938Y0176856D02*
X0447995Y0176856D01*
X0447995Y0175257D02*
X0413276Y0175257D01*
X0417762Y0173659D02*
X0447995Y0173659D01*
X0447995Y0172060D02*
X0418295Y0172060D01*
X0418295Y0170462D02*
X0447995Y0170462D01*
X0447995Y0168863D02*
X0418295Y0168863D01*
X0418295Y0167265D02*
X0447995Y0167265D01*
X0448198Y0165666D02*
X0418295Y0165666D01*
X0396914Y0175257D02*
X0300689Y0175257D01*
X0301495Y0173659D02*
X0347428Y0173659D01*
X0346895Y0172060D02*
X0301495Y0172060D01*
X0301495Y0170462D02*
X0346895Y0170462D01*
X0346895Y0168863D02*
X0301209Y0168863D01*
X0299611Y0167265D02*
X0346895Y0167265D01*
X0346895Y0165666D02*
X0298300Y0165666D01*
X0299899Y0164068D02*
X0346895Y0164068D01*
X0346895Y0162469D02*
X0300095Y0162469D01*
X0300095Y0160870D02*
X0346895Y0160870D01*
X0346895Y0159272D02*
X0299638Y0159272D01*
X0298273Y0157673D02*
X0346895Y0157673D01*
X0346895Y0156075D02*
X0299871Y0156075D01*
X0301470Y0154476D02*
X0346895Y0154476D01*
X0346895Y0152878D02*
X0301495Y0152878D01*
X0301495Y0151279D02*
X0346895Y0151279D01*
X0346895Y0149681D02*
X0301495Y0149681D01*
X0300428Y0148082D02*
X0346895Y0148082D01*
X0346895Y0146484D02*
X0299462Y0146484D01*
X0301061Y0144885D02*
X0346895Y0144885D01*
X0346895Y0143287D02*
X0301495Y0143287D01*
X0301495Y0141688D02*
X0346895Y0141688D01*
X0346895Y0140090D02*
X0301495Y0140090D01*
X0302336Y0138491D02*
X0346895Y0138491D01*
X0346895Y0136893D02*
X0303935Y0136893D01*
X0305533Y0135294D02*
X0346895Y0135294D01*
X0346895Y0133696D02*
X0307132Y0133696D01*
X0308730Y0132097D02*
X0346895Y0132097D01*
X0346895Y0130499D02*
X0310329Y0130499D01*
X0311927Y0128900D02*
X0346895Y0128900D01*
X0346895Y0127302D02*
X0313526Y0127302D01*
X0315124Y0125703D02*
X0346895Y0125703D01*
X0346895Y0124105D02*
X0316723Y0124105D01*
X0318322Y0122506D02*
X0346895Y0122506D01*
X0346895Y0120908D02*
X0319920Y0120908D01*
X0321519Y0119309D02*
X0346895Y0119309D01*
X0346895Y0117711D02*
X0323117Y0117711D01*
X0324716Y0116112D02*
X0346895Y0116112D01*
X0346895Y0114514D02*
X0326314Y0114514D01*
X0327913Y0112915D02*
X0346895Y0112915D01*
X0346895Y0111317D02*
X0329511Y0111317D01*
X0331110Y0109718D02*
X0346895Y0109718D01*
X0346895Y0108120D02*
X0332708Y0108120D01*
X0334307Y0106521D02*
X0346895Y0106521D01*
X0346895Y0104923D02*
X0335905Y0104923D01*
X0337504Y0103324D02*
X0346895Y0103324D01*
X0346895Y0101726D02*
X0339102Y0101726D01*
X0340701Y0100127D02*
X0346895Y0100127D01*
X0346895Y0098529D02*
X0342299Y0098529D01*
X0343898Y0096930D02*
X0346895Y0096930D01*
X0346895Y0095332D02*
X0345496Y0095332D01*
X0353145Y0077748D02*
X0396668Y0077748D01*
X0396005Y0076149D02*
X0353145Y0076149D01*
X0353145Y0074551D02*
X0395990Y0074551D01*
X0395990Y0072952D02*
X0353145Y0072952D01*
X0353145Y0071354D02*
X0396460Y0071354D01*
X0397122Y0069755D02*
X0353145Y0069755D01*
X0353145Y0068157D02*
X0398361Y0068157D01*
X0399991Y0066558D02*
X0353145Y0066558D01*
X0353145Y0064960D02*
X0438727Y0064960D01*
X0438727Y0066558D02*
X0410199Y0066558D01*
X0411829Y0068157D02*
X0438748Y0068157D01*
X0439688Y0069755D02*
X0413068Y0069755D01*
X0407658Y0061763D02*
X0377532Y0061763D01*
X0378778Y0060164D02*
X0406412Y0060164D01*
X0405750Y0058566D02*
X0379440Y0058566D01*
X0379595Y0056967D02*
X0405595Y0056967D01*
X0405611Y0055369D02*
X0379579Y0055369D01*
X0378917Y0053770D02*
X0406273Y0053770D01*
X0407324Y0052172D02*
X0377866Y0052172D01*
X0375854Y0050573D02*
X0409336Y0050573D01*
X0418295Y0128900D02*
X0420182Y0128900D01*
X0418295Y0130499D02*
X0423917Y0130499D01*
X0428003Y0133696D02*
X0418295Y0133696D01*
X0418295Y0135294D02*
X0427461Y0135294D01*
X0427060Y0136893D02*
X0418295Y0136893D01*
X0418295Y0138491D02*
X0427060Y0138491D01*
X0427190Y0140090D02*
X0418295Y0140090D01*
X0418295Y0141688D02*
X0427618Y0141688D01*
X0428342Y0143287D02*
X0418295Y0143287D01*
X0418295Y0144885D02*
X0429311Y0144885D01*
X0430910Y0146484D02*
X0418295Y0146484D01*
X0418295Y0148082D02*
X0433470Y0148082D01*
X0428925Y0132097D02*
X0418295Y0132097D01*
X0429187Y0130499D02*
X0430322Y0130499D01*
X0396252Y0176856D02*
X0299202Y0176856D01*
X0300800Y0178454D02*
X0395990Y0178454D01*
X0395990Y0180053D02*
X0301495Y0180053D01*
X0301495Y0181651D02*
X0396213Y0181651D01*
X0396875Y0183250D02*
X0301495Y0183250D01*
X0301098Y0184848D02*
X0397766Y0184848D01*
X0399365Y0186447D02*
X0299499Y0186447D01*
X0297901Y0188045D02*
X0402414Y0188045D01*
X0407776Y0188045D02*
X0456817Y0188045D01*
X0458416Y0186447D02*
X0410826Y0186447D01*
X0295295Y0164068D02*
X0294895Y0164068D01*
X0294895Y0162469D02*
X0295295Y0162469D01*
X0291890Y0165666D02*
X0283962Y0165666D01*
X0285560Y0164068D02*
X0290292Y0164068D01*
X0290095Y0162469D02*
X0287159Y0162469D01*
X0288757Y0160870D02*
X0290095Y0160870D01*
X0290356Y0159272D02*
X0290552Y0159272D01*
X0290580Y0167265D02*
X0282363Y0167265D01*
X0280765Y0168863D02*
X0288981Y0168863D01*
X0288695Y0170462D02*
X0279166Y0170462D01*
X0277345Y0172060D02*
X0288695Y0172060D01*
X0288695Y0173659D02*
X0270390Y0173659D01*
X0271295Y0172060D02*
X0271945Y0172060D01*
X0268016Y0175257D02*
X0289501Y0175257D01*
X0290989Y0176856D02*
X0247795Y0176856D01*
X0247795Y0175257D02*
X0247395Y0175257D01*
X0247395Y0173659D02*
X0247795Y0173659D01*
X0247795Y0172060D02*
X0247395Y0172060D01*
X0245264Y0172060D02*
X0241906Y0172060D01*
X0241216Y0170462D02*
X0261195Y0170462D01*
X0261362Y0168863D02*
X0242815Y0168863D01*
X0244413Y0167265D02*
X0262077Y0167265D01*
X0263994Y0165666D02*
X0246012Y0165666D01*
X0247610Y0164068D02*
X0267395Y0164068D01*
X0268994Y0162469D02*
X0249209Y0162469D01*
X0250807Y0160870D02*
X0270592Y0160870D01*
X0272191Y0159272D02*
X0252406Y0159272D01*
X0254004Y0157673D02*
X0273789Y0157673D01*
X0275388Y0156075D02*
X0255603Y0156075D01*
X0257201Y0154476D02*
X0276986Y0154476D01*
X0278585Y0152878D02*
X0271214Y0152878D01*
X0273015Y0151279D02*
X0280183Y0151279D01*
X0281782Y0149681D02*
X0273979Y0149681D01*
X0274595Y0148082D02*
X0283380Y0148082D01*
X0284979Y0146484D02*
X0274595Y0146484D01*
X0274379Y0144885D02*
X0286577Y0144885D01*
X0288176Y0143287D02*
X0273717Y0143287D01*
X0272383Y0141688D02*
X0288695Y0141688D01*
X0263977Y0152878D02*
X0258800Y0152878D01*
X0260398Y0151279D02*
X0262175Y0151279D01*
X0261496Y0172060D02*
X0249926Y0172060D01*
X0251525Y0173659D02*
X0262400Y0173659D01*
X0264774Y0175257D02*
X0252595Y0175257D01*
X0256315Y0178454D02*
X0270872Y0178454D01*
X0265593Y0180053D02*
X0258280Y0180053D01*
X0259879Y0181651D02*
X0262845Y0181651D01*
X0261489Y0183250D02*
X0261477Y0183250D01*
X0255808Y0188045D02*
X0252595Y0188045D01*
X0252595Y0188871D02*
X0252595Y0187000D01*
X0247795Y0187000D01*
X0247395Y0187000D01*
X0247395Y0191800D01*
X0245524Y0191800D01*
X0243585Y0189861D01*
X0240246Y0193200D01*
X0234944Y0193200D01*
X0232595Y0190851D01*
X0230246Y0193200D01*
X0224944Y0193200D01*
X0222595Y0190851D01*
X0221087Y0192359D01*
X0222278Y0193550D01*
X0261313Y0193550D01*
X0253313Y0185550D01*
X0252595Y0185550D01*
X0252595Y0186600D01*
X0247795Y0186600D01*
X0247795Y0187000D01*
X0247795Y0191800D01*
X0249666Y0191800D01*
X0252595Y0188871D01*
X0251822Y0189644D02*
X0257406Y0189644D01*
X0259005Y0191242D02*
X0250224Y0191242D01*
X0247795Y0191242D02*
X0247395Y0191242D01*
X0247395Y0189644D02*
X0247795Y0189644D01*
X0247795Y0188045D02*
X0247395Y0188045D01*
X0244966Y0191242D02*
X0242204Y0191242D01*
X0240605Y0192841D02*
X0260603Y0192841D01*
X0254209Y0186447D02*
X0252595Y0186447D01*
X0243666Y0173659D02*
X0243505Y0173659D01*
X0232986Y0191242D02*
X0232204Y0191242D01*
X0230605Y0192841D02*
X0234585Y0192841D01*
X0224585Y0192841D02*
X0221568Y0192841D01*
X0222204Y0191242D02*
X0222986Y0191242D01*
X0228613Y0208350D02*
X0195759Y0208350D01*
X0194308Y0207749D01*
X0192859Y0206300D01*
X0192211Y0206300D01*
X0191445Y0205983D01*
X0191445Y0216426D01*
X0191504Y0216450D01*
X0193135Y0218082D01*
X0193400Y0217717D01*
X0194012Y0217105D01*
X0194712Y0216596D01*
X0195484Y0216203D01*
X0196307Y0215935D01*
X0197162Y0215800D01*
X0197395Y0215800D01*
X0197395Y0221100D01*
X0197795Y0221100D01*
X0197795Y0215800D01*
X0198028Y0215800D01*
X0198883Y0215935D01*
X0199706Y0216203D01*
X0200478Y0216596D01*
X0201178Y0217105D01*
X0201790Y0217717D01*
X0202055Y0218082D01*
X0203687Y0216450D01*
X0206223Y0215400D01*
X0208968Y0215400D01*
X0211504Y0216450D01*
X0212095Y0217042D01*
X0213687Y0215450D01*
X0216223Y0214400D01*
X0218968Y0214400D01*
X0221504Y0215450D01*
X0221508Y0215455D01*
X0228613Y0208350D01*
X0228137Y0208826D02*
X0191445Y0208826D01*
X0191445Y0210424D02*
X0226538Y0210424D01*
X0224940Y0212023D02*
X0191445Y0212023D01*
X0191445Y0213621D02*
X0223341Y0213621D01*
X0221743Y0215220D02*
X0220947Y0215220D01*
X0214243Y0215220D02*
X0191445Y0215220D01*
X0191872Y0216818D02*
X0194406Y0216818D01*
X0197395Y0216818D02*
X0197795Y0216818D01*
X0197795Y0218417D02*
X0197395Y0218417D01*
X0197395Y0220015D02*
X0197795Y0220015D01*
X0200784Y0216818D02*
X0203319Y0216818D01*
X0211872Y0216818D02*
X0212319Y0216818D01*
X0193786Y0207227D02*
X0191445Y0207227D01*
X0134585Y0192841D02*
X0130605Y0192841D01*
X0132204Y0191242D02*
X0132986Y0191242D01*
X0124585Y0192841D02*
X0120605Y0192841D01*
X0122204Y0191242D02*
X0122986Y0191242D01*
X0274595Y0188045D02*
X0292289Y0188045D01*
X0290691Y0186447D02*
X0274595Y0186447D01*
D26*
X0265295Y0192300D02*
X0457795Y0192300D01*
X0467145Y0182950D01*
X0467145Y0075150D01*
X0459995Y0068000D01*
X0459995Y0038850D01*
X0452845Y0031700D01*
X0452595Y0031300D01*
X0442595Y0032300D02*
X0442395Y0032250D01*
X0435795Y0025650D01*
X0288945Y0025650D01*
X0286745Y0027850D01*
X0286745Y0030600D01*
X0257595Y0059750D01*
X0257595Y0074050D01*
X0249895Y0081750D01*
X0215245Y0081750D01*
X0210295Y0076800D01*
X0207595Y0076800D01*
X0200395Y0076800D02*
X0211945Y0088350D01*
X0243295Y0088350D01*
X0252645Y0090000D02*
X0259795Y0090000D01*
X0263095Y0086700D01*
X0282895Y0086700D01*
X0292795Y0076800D01*
X0297195Y0076800D01*
X0342295Y0031700D01*
X0342595Y0031300D01*
X0352195Y0032800D02*
X0352595Y0032300D01*
X0352195Y0032800D02*
X0298295Y0086700D01*
X0292795Y0086700D01*
X0282345Y0097150D01*
X0253195Y0097150D01*
X0202595Y0147750D01*
X0202595Y0158750D01*
X0207545Y0163700D01*
X0207545Y0176350D01*
X0207595Y0176800D01*
X0212495Y0179100D02*
X0212495Y0169200D01*
X0221845Y0159850D01*
X0219095Y0157100D02*
X0247695Y0128500D01*
X0291145Y0128500D01*
X0292795Y0126850D01*
X0303245Y0126850D01*
X0305445Y0124650D01*
X0295095Y0121800D02*
X0294995Y0121900D01*
X0288395Y0121900D01*
X0283995Y0126300D01*
X0238895Y0126300D01*
X0257595Y0131800D02*
X0222395Y0167000D01*
X0219095Y0157100D02*
X0206445Y0157100D01*
X0192695Y0165350D02*
X0192695Y0179100D01*
X0189945Y0181850D01*
X0185545Y0181850D01*
X0180595Y0186800D01*
X0177595Y0186800D01*
X0177595Y0176800D02*
X0177845Y0176350D01*
X0177845Y0162600D01*
X0239445Y0101000D01*
X0239445Y0097700D01*
X0259795Y0077350D01*
X0259795Y0060850D01*
X0282895Y0037750D01*
X0297195Y0037750D01*
X0302145Y0032800D01*
X0302145Y0031700D01*
X0302595Y0031300D01*
X0329095Y0032800D02*
X0300495Y0061400D01*
X0264745Y0061400D01*
X0247595Y0076800D02*
X0247145Y0076800D01*
X0242195Y0071850D01*
X0195445Y0071850D01*
X0192695Y0074600D01*
X0192695Y0079000D01*
X0142645Y0129050D01*
X0142645Y0193400D01*
X0166845Y0217600D01*
X0166845Y0221450D01*
X0166895Y0221800D01*
X0172895Y0224200D02*
X0176745Y0228050D01*
X0405545Y0228050D01*
X0412145Y0221450D01*
X0412595Y0221300D01*
X0372595Y0221300D02*
X0372545Y0220900D01*
X0348895Y0197250D01*
X0220745Y0197250D01*
X0212495Y0189000D01*
X0212495Y0184600D01*
X0209745Y0181850D01*
X0205345Y0181850D01*
X0200395Y0176900D01*
X0197645Y0176900D01*
X0197595Y0176800D01*
X0197595Y0186800D02*
X0197095Y0186800D01*
X0197095Y0191750D01*
X0187745Y0201100D01*
X0187745Y0222000D01*
X0187595Y0222300D01*
X0172895Y0224200D02*
X0172895Y0212650D01*
X0152545Y0192300D01*
X0152545Y0184600D01*
X0147595Y0179650D01*
X0147595Y0176800D01*
X0157595Y0176800D02*
X0235045Y0099350D01*
X0235595Y0099350D01*
X0243295Y0099900D02*
X0247145Y0099900D01*
X0253195Y0093850D01*
X0263095Y0093850D01*
X0264745Y0092200D01*
X0265095Y0091800D01*
X0260895Y0100450D02*
X0293895Y0100450D01*
X0294995Y0101550D01*
X0295095Y0101800D01*
X0295095Y0111800D02*
X0294995Y0112000D01*
X0284545Y0122450D01*
X0282345Y0122450D01*
X0295095Y0131800D02*
X0257595Y0131800D01*
X0269695Y0136750D02*
X0298845Y0136750D01*
X0349445Y0086150D01*
X0349445Y0044350D01*
X0362095Y0031700D01*
X0362595Y0031300D01*
X0332595Y0032300D02*
X0332395Y0032800D01*
X0329095Y0032800D01*
X0268595Y0043250D02*
X0267495Y0044350D01*
X0213045Y0044350D01*
X0192695Y0064700D01*
X0192695Y0069100D01*
X0189945Y0071850D01*
X0155295Y0071850D01*
X0150345Y0076800D01*
X0147595Y0076800D01*
X0197595Y0076800D02*
X0200395Y0076800D01*
X0252645Y0103200D02*
X0258145Y0103200D01*
X0260895Y0100450D01*
X0269695Y0136750D02*
X0230095Y0176350D01*
X0227895Y0176350D01*
X0227595Y0176800D01*
X0225695Y0181850D02*
X0254845Y0181850D01*
X0265295Y0192300D01*
X0264745Y0201650D02*
X0278495Y0215400D01*
X0355495Y0215400D01*
X0362095Y0222000D01*
X0362595Y0222300D01*
X0297195Y0201100D02*
X0269695Y0201100D01*
X0264745Y0201650D02*
X0221845Y0201650D01*
X0208095Y0187900D01*
X0208095Y0186800D01*
X0207595Y0186800D01*
X0212495Y0179100D02*
X0217445Y0184050D01*
X0217445Y0186800D01*
X0217595Y0186800D01*
X0225695Y0181850D02*
X0220745Y0176900D01*
X0217995Y0176900D01*
X0217595Y0176800D01*
X0233395Y0208800D02*
X0239445Y0208800D01*
X0233395Y0208800D02*
X0221295Y0220900D01*
X0217995Y0220900D01*
X0217595Y0221300D01*
X0266395Y0170300D02*
X0294995Y0141700D01*
X0295095Y0141800D01*
X0295095Y0151800D02*
X0294995Y0152150D01*
X0292245Y0152150D01*
X0276845Y0167550D01*
X0274645Y0167550D01*
M02*
