%
M48
M72
T01C0.0200
T02C0.0276
T03C0.0315
T04C0.0394
T05C0.0400
T06C0.0440
T07C0.0450
T08C0.0787
T09C0.1102
T10C0.1260
%
T01
X19985Y9165
X23560Y9935
X24330Y9990
X25265Y10320
X26255Y10430
X25265Y9000
X24330Y8835
X26475Y6140
X26860Y4325
X30545Y11860
X30545Y12465
X28235Y12245
X23890Y12630
X20645Y15710
X22185Y15985
X22240Y16700
X19270Y16535
X18335Y19670
X19325Y20110
X21855Y20880
X23945Y20880
X24880Y20550
X26970Y20110
X29720Y20110
X27465Y16755
X26640Y17030
X16300Y20825
T02
X17078Y4680
X17866Y4680
X18653Y4680
X19441Y4680
T03
X45760Y17430
T04
X45510Y6430
X44510Y6430
X46510Y6430
T05
X45260Y3130
X44260Y3230
X43260Y3130
X42260Y3230
X41260Y3130
X40260Y3230
X39260Y3130
X38260Y3230
X36260Y3130
X35260Y3230
X34260Y3130
X33260Y3230
X32260Y3130
X31260Y3230
X30260Y3130
X29260Y3230
X27260Y3230
X26260Y3130
X25260Y3230
X24260Y3130
X23260Y3230
X22260Y3130
X21260Y3230
X21760Y6680
X22760Y6680
X23760Y6680
X24760Y6680
X24760Y7680
X23760Y7680
X22760Y7680
X21760Y7680
X20760Y7680
X19760Y7680
X18760Y7680
X17760Y7680
X16760Y7680
X15760Y7680
X14760Y7680
X13760Y7680
X12760Y7680
X11760Y7680
X10760Y7680
X10760Y6680
X11760Y6680
X12760Y6680
X13760Y6680
X14760Y6680
X15760Y6680
X16760Y6680
X17760Y6680
X18760Y6680
X19760Y6680
X20760Y6680
X26510Y7180
X27510Y7180
X27510Y8180
X26510Y8180
X26510Y9180
X27510Y9180
X29510Y9180
X29510Y10180
X29510Y11180
X29510Y12180
X29510Y13180
X29510Y14180
X29510Y15180
X29510Y16180
X29510Y17180
X29510Y18180
X24760Y17680
X23760Y17680
X22760Y17680
X21760Y17680
X20760Y17680
X19760Y17680
X18760Y17680
X17760Y17680
X16760Y17680
X15760Y17680
X14760Y17680
X13760Y17680
X12760Y17680
X11760Y17680
X11760Y18680
X12760Y18680
X13760Y18680
X14760Y18680
X15760Y18680
X16760Y18680
X17760Y18680
X18760Y18680
X19760Y18680
X20760Y18680
X21760Y18680
X22760Y18680
X23760Y18680
X24760Y18680
X25760Y22130
X24760Y22230
X23760Y22130
X22760Y22230
X21760Y22130
X20760Y22230
X19760Y22130
X18760Y22230
X17830Y22180
X16690Y22180
X10760Y18680
X10760Y17680
X27260Y22230
X28260Y22130
X29260Y22230
X30260Y22130
X31260Y22230
X32260Y22130
X33260Y22230
X34260Y22130
X36260Y22230
X37260Y22130
X38260Y22230
X39260Y22130
X40260Y22230
X41260Y22130
X42260Y22230
X43260Y22130
X29510Y8180
X29510Y7180
T06
X37260Y5680
X41260Y5680
X26760Y14680
X26760Y18680
T07
X15539Y4566
X12980Y4566
X12980Y2794
X15539Y2794
T08
X40510Y7430
X45760Y14830
X40510Y17930
X45760Y20030
T09
X43777Y13820
X45116Y11930
T10
X10760Y3680
X10760Y21680
X42655Y11930
X46760Y3680
X46760Y21680
M30
