G75*
%MOIN*%
%OFA0B0*%
%FSLAX25Y25*%
%IPPOS*%
%LPD*%
%AMOC8*
5,1,8,0,0,1.08239X$1,22.5*
%
%ADD10C,0.00800*%
D10*
X0142495Y0109017D02*
X0145598Y0109017D01*
X0146632Y0110052D01*
X0146632Y0112120D01*
X0145598Y0113154D01*
X0142495Y0113154D01*
X0142495Y0115223D02*
X0142495Y0109017D01*
X0148941Y0109017D02*
X0148941Y0112120D01*
X0149975Y0113154D01*
X0153078Y0113154D01*
X0153078Y0109017D01*
X0155386Y0109017D02*
X0158489Y0109017D01*
X0159523Y0110052D01*
X0158489Y0111086D01*
X0155386Y0111086D01*
X0155386Y0112120D02*
X0155386Y0109017D01*
X0155386Y0112120D02*
X0156421Y0113154D01*
X0158489Y0113154D01*
X0162786Y0115223D02*
X0162786Y0109017D01*
X0163820Y0109017D02*
X0161752Y0109017D01*
X0167123Y0113154D02*
X0169192Y0111086D01*
X0169192Y0113154D02*
X0169192Y0109017D01*
X0171500Y0111086D02*
X0175637Y0111086D01*
X0175637Y0112120D02*
X0174603Y0113154D01*
X0172534Y0113154D01*
X0171500Y0112120D01*
X0171500Y0111086D01*
X0172534Y0109017D02*
X0174603Y0109017D01*
X0175637Y0110052D01*
X0175637Y0112120D01*
X0177946Y0113154D02*
X0182083Y0109017D01*
X0177946Y0109017D01*
X0184311Y0109017D02*
X0185345Y0110052D01*
X0185345Y0114188D01*
X0184311Y0113154D02*
X0186380Y0113154D01*
X0189642Y0113154D02*
X0189642Y0109017D01*
X0188608Y0109017D02*
X0190677Y0109017D01*
X0192985Y0110052D02*
X0192985Y0113154D01*
X0190677Y0113154D02*
X0189642Y0113154D01*
X0189642Y0115223D02*
X0189642Y0116257D01*
X0182083Y0113154D02*
X0177946Y0113154D01*
X0167123Y0113154D02*
X0166089Y0113154D01*
X0163820Y0115223D02*
X0162786Y0115223D01*
X0192985Y0110052D02*
X0194019Y0109017D01*
X0195054Y0110052D01*
X0196088Y0109017D01*
X0197122Y0110052D01*
X0197122Y0113154D01*
X0199431Y0114188D02*
X0200465Y0115223D01*
X0202533Y0115223D01*
X0203568Y0114188D01*
X0203568Y0113154D01*
X0202533Y0112120D01*
X0200465Y0112120D01*
X0199431Y0111086D01*
X0199431Y0110052D01*
X0200465Y0109017D01*
X0202533Y0109017D01*
X0203568Y0110052D01*
X0212322Y0112120D02*
X0216459Y0112120D01*
X0225133Y0115223D02*
X0227201Y0115223D01*
X0226167Y0115223D02*
X0226167Y0109017D01*
X0227201Y0109017D02*
X0225133Y0109017D01*
X0231578Y0109017D02*
X0231578Y0115223D01*
X0229510Y0115223D02*
X0233647Y0115223D01*
X0242401Y0112120D02*
X0246537Y0112120D01*
X0255292Y0112120D02*
X0255292Y0109017D01*
X0258394Y0109017D01*
X0259428Y0110052D01*
X0258394Y0111086D01*
X0255292Y0111086D01*
X0255292Y0112120D02*
X0256326Y0113154D01*
X0258394Y0113154D01*
X0262691Y0113154D02*
X0262691Y0109017D01*
X0263725Y0109017D02*
X0261657Y0109017D01*
X0265954Y0109017D02*
X0268022Y0109017D01*
X0266988Y0109017D02*
X0266988Y0115223D01*
X0268022Y0115223D01*
X0270331Y0113154D02*
X0273434Y0113154D01*
X0274468Y0112120D01*
X0274468Y0110052D01*
X0273434Y0109017D01*
X0270331Y0109017D01*
X0270331Y0107983D02*
X0270331Y0113154D01*
X0276777Y0113154D02*
X0276777Y0109017D01*
X0279879Y0109017D01*
X0280913Y0110052D01*
X0280913Y0113154D01*
X0283222Y0113154D02*
X0286325Y0113154D01*
X0287359Y0112120D01*
X0287359Y0110052D01*
X0286325Y0109017D01*
X0283222Y0109017D01*
X0283222Y0107983D02*
X0283222Y0113154D01*
X0283222Y0107983D02*
X0284256Y0106949D01*
X0285291Y0106949D01*
X0289668Y0109017D02*
X0289668Y0112120D01*
X0290702Y0113154D01*
X0292770Y0113154D01*
X0292770Y0111086D02*
X0289668Y0111086D01*
X0289668Y0109017D02*
X0292770Y0109017D01*
X0293804Y0110052D01*
X0292770Y0111086D01*
X0296073Y0113154D02*
X0297107Y0113154D01*
X0299176Y0111086D01*
X0299176Y0113154D02*
X0299176Y0109017D01*
X0301484Y0110052D02*
X0302519Y0109017D01*
X0305621Y0109017D01*
X0305621Y0115223D01*
X0302519Y0115223D01*
X0301484Y0114188D01*
X0301484Y0113154D01*
X0302519Y0112120D01*
X0305621Y0112120D01*
X0302519Y0112120D02*
X0301484Y0111086D01*
X0301484Y0110052D01*
X0314375Y0110052D02*
X0315410Y0109017D01*
X0317478Y0109017D01*
X0318512Y0110052D01*
X0318512Y0112120D01*
X0317478Y0113154D01*
X0315410Y0113154D01*
X0314375Y0112120D01*
X0314375Y0110052D01*
X0320821Y0109017D02*
X0320821Y0112120D01*
X0321855Y0113154D01*
X0322889Y0112120D01*
X0322889Y0109017D01*
X0324958Y0109017D02*
X0324958Y0113154D01*
X0323923Y0113154D01*
X0322889Y0112120D01*
X0327186Y0109017D02*
X0329255Y0109017D01*
X0328220Y0109017D02*
X0328220Y0115223D01*
X0329255Y0115223D01*
X0331563Y0112120D02*
X0332598Y0113154D01*
X0334666Y0113154D01*
X0335700Y0112120D01*
X0335700Y0110052D01*
X0334666Y0109017D01*
X0332598Y0109017D01*
X0331563Y0111086D02*
X0335700Y0111086D01*
X0337929Y0109017D02*
X0339997Y0109017D01*
X0338963Y0109017D02*
X0338963Y0113154D01*
X0339997Y0113154D01*
X0338963Y0115223D02*
X0338963Y0116257D01*
X0340077Y0119517D02*
X0338009Y0123654D01*
X0335700Y0122620D02*
X0335700Y0120552D01*
X0334666Y0119517D01*
X0332598Y0119517D01*
X0331563Y0120552D01*
X0331563Y0121586D01*
X0332598Y0122620D01*
X0335700Y0122620D01*
X0333632Y0124688D01*
X0331563Y0125723D01*
X0340077Y0119517D02*
X0342146Y0123654D01*
X0350900Y0124688D02*
X0350900Y0120552D01*
X0351934Y0119517D01*
X0355037Y0119517D01*
X0355037Y0125723D01*
X0351934Y0125723D01*
X0350900Y0124688D01*
X0357345Y0124688D02*
X0357345Y0122620D01*
X0358380Y0121586D01*
X0361482Y0121586D01*
X0359414Y0121586D02*
X0357345Y0119517D01*
X0361482Y0119517D02*
X0361482Y0125723D01*
X0358380Y0125723D01*
X0357345Y0124688D01*
X0363791Y0123654D02*
X0363791Y0119517D01*
X0363791Y0122620D02*
X0367928Y0122620D01*
X0367928Y0123654D02*
X0365859Y0125723D01*
X0363791Y0123654D01*
X0367928Y0123654D02*
X0367928Y0119517D01*
X0370236Y0120552D02*
X0370236Y0124688D01*
X0371271Y0125723D01*
X0373339Y0125723D01*
X0374373Y0124688D01*
X0374373Y0120552D01*
X0373339Y0119517D01*
X0371271Y0119517D01*
X0370236Y0120552D01*
X0376682Y0120552D02*
X0377716Y0119517D01*
X0380819Y0119517D01*
X0380819Y0125723D01*
X0377716Y0125723D01*
X0376682Y0124688D01*
X0376682Y0123654D01*
X0377716Y0122620D01*
X0380819Y0122620D01*
X0377716Y0122620D02*
X0376682Y0121586D01*
X0376682Y0120552D01*
X0379865Y0115223D02*
X0381933Y0115223D01*
X0382967Y0114188D01*
X0385276Y0114188D02*
X0389413Y0110052D01*
X0388378Y0109017D01*
X0386310Y0109017D01*
X0385276Y0110052D01*
X0385276Y0114188D01*
X0386310Y0115223D01*
X0388378Y0115223D01*
X0389413Y0114188D01*
X0389413Y0110052D01*
X0391721Y0109017D02*
X0395858Y0109017D01*
X0391721Y0113154D01*
X0391721Y0114188D01*
X0392756Y0115223D01*
X0394824Y0115223D01*
X0395858Y0114188D01*
X0396972Y0119517D02*
X0393870Y0119517D01*
X0396972Y0119517D02*
X0398007Y0120552D01*
X0398007Y0122620D01*
X0396972Y0123654D01*
X0393870Y0123654D01*
X0391561Y0123654D02*
X0389493Y0123654D01*
X0390527Y0124688D02*
X0390527Y0120552D01*
X0389493Y0119517D01*
X0379865Y0115223D02*
X0378830Y0114188D01*
X0378830Y0113154D01*
X0382967Y0109017D01*
X0378830Y0109017D01*
X0376522Y0112120D02*
X0372385Y0112120D01*
X0373419Y0115223D02*
X0376522Y0112120D01*
X0373419Y0109017D02*
X0373419Y0115223D01*
X0363631Y0114188D02*
X0363631Y0110052D01*
X0362596Y0109017D01*
X0360528Y0109017D01*
X0359494Y0110052D01*
X0359494Y0112120D01*
X0361562Y0112120D01*
X0359494Y0114188D02*
X0360528Y0115223D01*
X0362596Y0115223D01*
X0363631Y0114188D01*
X0357185Y0113154D02*
X0357185Y0110052D01*
X0356151Y0109017D01*
X0353048Y0109017D01*
X0353048Y0113154D01*
X0350740Y0112120D02*
X0350740Y0110052D01*
X0349705Y0109017D01*
X0346603Y0109017D01*
X0346603Y0107983D02*
X0346603Y0113154D01*
X0349705Y0113154D01*
X0350740Y0112120D01*
X0348671Y0106949D02*
X0347637Y0106949D01*
X0346603Y0107983D01*
X0344294Y0109017D02*
X0342226Y0109017D01*
X0343260Y0109017D02*
X0343260Y0115223D01*
X0344294Y0115223D01*
X0331563Y0112120D02*
X0331563Y0111086D01*
X0272400Y0106949D02*
X0271365Y0106949D01*
X0270331Y0107983D01*
X0263725Y0113154D02*
X0262691Y0113154D01*
X0262691Y0115223D02*
X0262691Y0116257D01*
X0400315Y0119517D02*
X0400315Y0123654D01*
X0402384Y0125723D01*
X0404452Y0123654D01*
X0404452Y0119517D01*
X0406761Y0121586D02*
X0406761Y0122620D01*
X0407795Y0123654D01*
X0409863Y0123654D01*
X0410898Y0122620D01*
X0410898Y0120552D01*
X0409863Y0119517D01*
X0407795Y0119517D01*
X0406761Y0121586D02*
X0410898Y0121586D01*
X0413206Y0119517D02*
X0413206Y0125723D01*
X0417343Y0125723D02*
X0417343Y0119517D01*
X0415275Y0121586D01*
X0413206Y0119517D01*
X0415275Y0115223D02*
X0417343Y0113154D01*
X0417343Y0111086D01*
X0415275Y0109017D01*
X0413046Y0110052D02*
X0412012Y0109017D01*
X0408909Y0109017D01*
X0406601Y0109017D02*
X0404532Y0111086D01*
X0404532Y0113154D01*
X0406601Y0115223D01*
X0408909Y0113154D02*
X0412012Y0113154D01*
X0413046Y0112120D01*
X0413046Y0110052D01*
X0404452Y0122620D02*
X0400315Y0122620D01*
M02*
